<?xml version="1.0" standalone="no"?>
<!DOCTYPE svg PUBLIC "-//W3C//DTD SVG 20010904//EN"
 "http://www.w3.org/TR/2001/REC-SVG-20010904/DTD/svg10.dtd">
<svg version="1.0" xmlns="http://www.w3.org/2000/svg"
 width="490.000000pt" height="509.000000pt" viewBox="0 0 490.000000 509.000000"
 preserveAspectRatio="xMidYMid meet">

<g transform="translate(0.000000,509.000000) scale(0.100000,-0.100000)"
fill="#000000" stroke="none">
<path d="M2905 4080 c-144 -38 -265 -98 -365 -181 -32 -27 -61 -49 -63 -49 -2
0 -66 -63 -142 -140 l-139 -140 -156 7 c-130 5 -160 3 -185 -10 -50 -25 -364
-315 -371 -341 -3 -13 -1 -33 5 -45 19 -35 46 -43 108 -31 31 5 87 10 125 10
39 0 68 4 68 10 0 14 37 12 49 -2 6 -7 22 -28 37 -46 l26 -32 -26 -31 c-14
-17 -27 -38 -28 -47 0 -9 -2 -22 -2 -28 -1 -7 -21 -33 -44 -58 -24 -26 -40
-51 -36 -57 9 -15 -27 -50 -46 -44 -20 6 -55 -29 -47 -49 7 -18 -33 -56 -60
-56 -11 0 -28 -9 -38 -20 -10 -11 -22 -17 -28 -13 -6 4 -7 1 -2 -6 4 -8 -43
-64 -138 -160 -122 -123 -147 -154 -157 -191 -44 -165 105 -314 270 -270 37
10 68 36 197 163 84 83 153 147 153 142 0 -4 9 4 20 18 11 14 20 34 20 45 0
24 37 58 59 54 22 -3 55 33 48 52 -7 17 27 51 42 41 6 -3 33 14 59 39 35 32
58 46 77 46 18 0 40 11 56 26 l28 27 31 -27 c17 -14 35 -26 40 -26 13 0 23
-59 12 -73 -5 -7 -12 -48 -16 -92 -4 -44 -9 -96 -12 -115 -7 -44 17 -77 62
-86 29 -6 38 2 189 169 87 96 164 190 172 208 12 27 14 63 8 183 l-6 150 127
127 c70 70 132 125 137 122 6 -3 7 -1 3 5 -3 6 13 32 36 59 142 163 228 379
228 572 0 100 -26 154 -90 188 -36 19 -58 23 -134 22 -55 0 -119 -7 -161 -19z
m269 -40 c71 -27 88 -170 41 -334 -56 -193 -111 -273 -378 -543 -140 -142
-217 -227 -214 -236 3 -8 -9 -28 -27 -46 l-32 -31 -68 69 c-42 43 -74 67 -83
64 -19 -8 -85 57 -78 76 4 10 -43 64 -137 158 l-143 143 225 226 c124 124 259
252 301 283 94 71 221 135 319 160 81 22 231 28 274 11z m-988 -887 c-1 -2
-22 4 -45 12 -54 19 -112 7 -150 -29 l-27 -26 -27 28 c-15 15 -27 37 -27 47 0
11 26 45 57 77 l57 58 83 -82 c45 -45 81 -83 79 -85z m-241 -293 c3 -5 16 -10
27 -10 28 0 68 -38 68 -65 0 -11 6 -27 12 -33 10 -10 -41 -67 -253 -277 -253
-252 -267 -265 -303 -265 -70 0 -116 72 -85 133 12 24 509 527 521 527 4 0 10
-4 13 -10z"/>
<path d="M2695 3780 c-45 -14 -101 -64 -124 -113 -52 -108 -8 -232 103 -289
56 -29 149 -22 204 15 48 31 92 101 99 157 10 76 -45 198 -82 183 -21 -7 -19
-20 10 -77 14 -27 25 -64 25 -81 0 -52 -40 -116 -90 -142 -54 -29 -94 -29
-150 0 -60 30 -90 76 -90 139 0 82 43 139 121 162 32 10 44 18 44 32 0 22 -25
27 -70 14z"/>
<path d="M2691 3664 c-17 -14 -31 -32 -31 -40 0 -25 30 -28 54 -5 12 11 27 21
34 21 18 0 25 20 12 35 -18 21 -34 19 -69 -11z"/>
<path d="M2165 2520 c3 -5 8 -10 11 -10 2 0 4 5 4 10 0 6 -5 10 -11 10 -5 0
-7 -4 -4 -10z"/>
<path d="M2048 2363 c6 -2 18 -2 25 0 6 3 1 5 -13 5 -14 0 -19 -2 -12 -5z"/>
<path d="M3088 1689 c-16 -9 -18 -32 -18 -244 0 -248 4 -275 47 -294 35 -16
110 -14 138 5 22 15 23 17 9 49 -16 40 -19 85 -4 85 5 0 15 -21 21 -46 7 -25
25 -58 41 -75 25 -24 38 -29 80 -29 41 0 54 5 79 29 23 23 29 38 29 71 0 56
-13 76 -57 90 -43 14 -65 30 -42 30 18 1 63 39 78 67 6 12 11 39 11 60 0 69
-50 101 -150 95 -21 -2 -28 -11 -43 -52 -20 -55 -61 -110 -73 -97 -5 4 -3 16
4 25 25 35 34 69 35 135 2 61 -1 71 -22 88 -26 21 -132 27 -163 8z"/>
<path d="M1028 1643 l-38 -15 0 -223 0 -224 26 -20 c33 -26 130 -29 174 -6
l30 16 0 204 c0 112 -4 215 -10 229 -19 52 -107 71 -182 39z"/>
<path d="M1760 1643 l-35 -18 -3 -205 c-3 -220 2 -250 44 -269 15 -7 86 -11
179 -11 141 0 155 2 164 19 20 37 23 96 7 134 l-15 37 -63 0 c-35 -1 -81 -7
-103 -15 -50 -18 -56 -18 -49 -1 3 8 19 20 35 26 l29 12 0 119 c0 116 -1 119
-28 150 -36 40 -108 50 -162 22z"/>
<path d="M2315 1580 c-110 -18 -175 -101 -175 -225 0 -92 40 -163 113 -202 50
-28 171 -25 223 5 76 44 114 136 100 239 -17 128 -128 205 -261 183z m55 -220
c0 -40 -4 -70 -10 -70 -5 0 -10 21 -10 48 0 26 -3 57 -6 70 -5 16 -2 22 10 22
13 0 16 -12 16 -70z"/>
<path d="M2771 1579 c-109 -20 -180 -124 -168 -244 14 -138 109 -215 248 -202
68 6 127 40 160 94 21 33 24 51 24 128 0 81 -3 94 -27 132 -49 74 -139 109
-237 92z m63 -165 c3 -9 6 -40 6 -70 0 -41 -4 -54 -15 -54 -12 0 -15 14 -15
70 0 66 10 90 24 54z"/>
<path d="M1450 1569 c-14 -6 -37 -22 -52 -36 -28 -27 -30 -26 -32 12 -1 17 -8
20 -56 20 l-55 0 -9 -42 c-7 -33 -5 -53 8 -86 11 -30 16 -75 16 -149 0 -103 1
-107 26 -127 35 -27 122 -29 153 -3 19 15 20 21 11 52 -13 44 -1 202 14 197 7
-3 10 -31 8 -78 -4 -96 3 -131 33 -163 20 -22 33 -26 78 -26 45 0 57 4 79 28
32 34 41 80 22 106 -9 13 -14 47 -14 100 0 99 -22 153 -72 184 -38 24 -113 29
-158 11z"/>
</g>
</svg>
