<?xml version="1.0" standalone="no"?>
<svg version="1.1" id="Layer_1" xmlns="http://www.w3.org/2000/svg" xmlns:xlink="http://www.w3.org/1999/xlink" x="0px" y="0px" viewBox="0 0 595.28 595.28" enable-background="new 0 0 595.28 595.28" xml:space="preserve">
<path id="color_x5F_7" fill="#FFFFFF" d="M361.441,270.649c0.085-0.198,0.198-0.397,0.283-0.567
	c5.074,3.062,10.999,7.682,15.25,14.201c0,0,0,0.001,0.001,0.001c-0.114,0.198-0.256,0.368-0.369,0.567
	C372.411,278.331,366.487,273.711,361.441,270.649z M381.114,276.461L381.114,276.461c-5.726-4.904-12.473-7.711-18.085-9.27v0.001
	c-0.057,0.141-0.114,0.339-0.227,0.594c5.584,1.56,12.358,4.337,18.056,9.297c0,0,0,0,0.001,0.001
	C380.944,276.886,381.029,276.658,381.114,276.461z M310.79,277.223c0.054,0.216,0.116,0.432,0.175,0.648
	c9.519-5.611,15.157-14.934,18.104-21.367c-0.198-0.084-0.397-0.17-0.595-0.227C325.583,262.569,320.085,271.695,310.79,277.223z
	 M317.334,289.387c0.17,0.17,0.34,0.34,0.51,0.51c0.005-0.003,0.01-0.006,0.016-0.008c11.612-5.587,18.071-16.748,21.13-23.719
	c-0.141-0.17-0.283-0.367-0.453-0.566C335.589,272.463,329.126,283.86,317.334,289.387z M347.122,284.527
	c1.264-2.003,2.322-3.95,3.179-5.714l0,0c-0.198-0.084-0.397-0.17-0.595-0.283c-2.977,6.179-8.306,14.485-16.895,19.729
	c0.057,0.025,0.104,0.045,0.159,0.07c0.19,0.08,0.375,0.154,0.564,0.232C339.581,294.768,344,289.473,347.122,284.527z
	 M283.516,291.767c-0.084,0.227-0.17,0.454-0.226,0.68l7.795,8.022c0.028-0.312,0.028-0.595,0.028-0.879L283.516,291.767z
	 M210.779,162.308c18.794,0,34.016,15.223,34.016,34.016c0,18.766-15.222,33.989-34.016,33.988
	c-18.765,0-33.987-15.222-33.987-33.988C176.792,177.531,192.014,162.308,210.779,162.308z M205.053,195.248
	c0,1.615,1.332,2.947,2.948,2.947c0,0,0,0,0.001,0s0,0,0,0c0.369,0,0.708-0.056,1.048-0.197l9.666,20.664h0.001l0,0l0.397-0.17
	l-9.666-20.693c0.368-0.198,0.708-0.482,0.935-0.822l28.714,11.82l0,0h0.001l0.34-0.85l-28.63-11.793
	c0.085-0.283,0.17-0.594,0.171-0.906c0-1.503-1.106-2.693-2.523-2.92V174.64h-0.001h-0.906h-0.001v17.688
	C206.131,192.555,205.053,193.773,205.053,195.248z M359.316,275.977c1.729,6.265,3.118,15.279,0.709,24.293
	c0.255-0.143,0.51-0.283,0.764-0.453c0,0,0,0,0.001,0c2.126-8.502,0.992-16.948-0.623-23.127c0-0.001-0.001-0.003-0.001-0.004
	c4.11,3.543,8.504,8.361,11.48,14.428c0.142-0.17,0.312-0.34,0.453-0.51l0,0c-2.381-4.804-5.639-8.811-8.937-12.034
	c-0.55-0.537-1.1-1.052-1.648-1.546s-1.093-0.965-1.632-1.415c-0.17-0.623-0.34-1.189-0.51-1.729
	c-0.142,0.198-0.312,0.426-0.482,0.623c0.057,0.113,0.085,0.256,0.142,0.397c-0.001-0.001-0.001-0.001-0.002-0.002
	c-0.085-0.084-0.197-0.141-0.281-0.226l0,0c-0.001,0.002-0.002,0.003-0.004,0.005c-0.002,0.002-0.003,0.005-0.005,0.007
	c-0.137,0.167-0.249,0.333-0.388,0.499C358.664,275.438,359.004,275.694,359.316,275.977z M291.506,292.943
	c0.011-0.165,0.016-0.33,0.033-0.496v-0.001l-5.754-5.924l0,0c-0.114,0.2-0.199,0.427-0.284,0.624l5.98,6.151
	C291.489,293.179,291.497,293.061,291.506,292.943z M291.905,288.137c0.027-0.284,0.055-0.568,0.083-0.852l-0.003-0.003
	l-4.331-4.727c-0.003,0.006-0.005,0.01-0.008,0.016c-0.109,0.219-0.193,0.414-0.304,0.607l0.028,0.031l4.318,4.693L291.905,288.137z
	 M281.929,296.7c-0.057,0.282-0.113,0.538-0.142,0.765l9.128,9.383c0-0.138,0.01-0.295,0.014-0.444
	c0.003-0.156,0.005-0.313,0.009-0.469L281.929,296.7z M466.436,137.08l-0.085-0.765l-3.827,0.454l0.085,0.736
	c0.595-0.028,1.021,0.057,1.247,0.256c0.227,0.227,0.397,0.708,0.482,1.445l0.51,4.365l-6.746-6.265l-3.345,0.397l0.085,0.736
	c0.312,0,0.595,0.057,0.85,0.198c0.255,0.114,0.539,0.312,0.794,0.567l0.709,6.123c0.113,0.736,0.057,1.219-0.113,1.502
	c-0.17,0.255-0.567,0.426-1.134,0.51l0.085,0.766l3.912-0.482l-0.085-0.736c-0.595,0.057-1.021-0.028-1.247-0.256
	c-0.255-0.197-0.397-0.68-0.482-1.416l-0.624-5.018l7.483,6.831l1.191-0.142l-0.935-7.795c-0.085-0.737-0.028-1.219,0.142-1.503
	C465.529,137.336,465.898,137.166,466.436,137.08z M441.207,122.51c0.368-0.028,0.624,0.057,0.765,0.198
	c0.17,0.143,0.284,0.539,0.34,1.162l0.68,5.557c0.085,0.736,0.028,1.219-0.142,1.474c-0.17,0.283-0.51,0.454-1.077,0.538
	l0.085,0.766l3.713-0.453l-0.083-0.737c-0.567,0.028-0.935-0.057-1.162-0.284c-0.227-0.197-0.397-0.68-0.482-1.416l-0.822-6.974
	l4.536,9.185l0.68-0.086l2.211-9.978l0.879,7.342c0.085,0.624,0.057,1.021-0.057,1.19c-0.113,0.17-0.34,0.313-0.709,0.369
	l-0.369,0.084l0.113,0.737l5.188-0.595l-0.113-0.766l-0.397,0.028c-0.369,0-0.624-0.057-0.794-0.198
	c-0.142-0.143-0.255-0.539-0.34-1.162l-0.709-5.925c-0.057-0.624-0.057-1.021,0.085-1.19c0.113-0.199,0.34-0.313,0.68-0.369
	l0.425-0.084l-0.085-0.766l-4.422,0.538l-1.502,6.945l-3.203-6.378l-4.45,0.51l0.113,0.766L441.207,122.51z M454.276,143.063
	c0.085,0.765,0.028,1.53-0.17,2.268c-0.227,0.708-0.567,1.36-1.077,1.928c-0.482,0.538-1.021,0.963-1.672,1.303
	c-0.68,0.341-1.389,0.539-2.154,0.624c-0.822,0.114-1.587,0.085-2.296-0.085c-0.737-0.17-1.389-0.453-1.956-0.879
	c-0.624-0.425-1.105-0.963-1.474-1.615c-0.369-0.624-0.595-1.361-0.68-2.184c-0.113-0.821-0.057-1.587,0.142-2.295
	c0.227-0.709,0.567-1.333,1.049-1.928c0.482-0.511,1.02-0.936,1.701-1.275c0.652-0.341,1.389-0.539,2.154-0.624
	c0.822-0.113,1.587-0.085,2.296,0.085c0.709,0.17,1.361,0.453,1.928,0.851c0.624,0.453,1.134,0.991,1.502,1.644
	C453.937,141.534,454.191,142.268,454.276,143.063z M451.384,143.402c-0.17-1.56-0.567-2.693-1.134-3.43
	c-0.567-0.737-1.332-1.078-2.268-0.965c-0.964,0.113-1.616,0.596-2.013,1.446c-0.369,0.851-0.482,2.069-0.312,3.628
	c0.198,1.56,0.567,2.693,1.162,3.43c0.567,0.738,1.332,1.049,2.268,0.936c0.936-0.113,1.616-0.595,2.013-1.445
	C451.469,146.152,451.583,144.933,451.384,143.402z M475.652,125.26c0.369,0.681,0.85,1.219,1.446,1.645
	c0.567,0.369,1.191,0.652,1.899,0.794c0.68,0.17,1.417,0.198,2.154,0.113c0.652-0.085,1.304-0.255,1.871-0.538
	c0.595-0.284,1.162-0.681,1.701-1.191l0.907,1.191l0.737-0.086l-0.369-3.287c-0.085-0.652-0.057-1.049,0.057-1.22
	c0.11-0.17,0.337-0.284,0.706-0.368l0.369-0.057l-0.085-0.766l-5.074,0.623l0.085,0.738l0.369-0.029
	c0.397,0,0.652,0.057,0.822,0.227c0.142,0.17,0.255,0.539,0.34,1.078c0.085,0.85-0.028,1.502-0.397,1.955
	c-0.34,0.454-0.935,0.737-1.757,0.851c-1.021,0.113-1.814-0.17-2.438-0.907c-0.595-0.709-0.992-1.814-1.162-3.345
	c-0.198-1.503-0.057-2.665,0.425-3.515c0.453-0.851,1.247-1.332,2.324-1.475c0.709-0.084,1.361,0.086,1.899,0.482
	c0.567,0.368,1.134,1.077,1.672,2.041l0.794-0.086l-0.624-3.713l-0.765,0.086c0.028,0.227-0.028,0.424-0.113,0.538
	c-0.085,0.142-0.227,0.227-0.397,0.227c-0.142,0.028-0.397,0-0.765-0.113c-0.34-0.085-0.595-0.171-0.765-0.198
	c-0.312-0.057-0.624-0.086-0.907-0.086c-0.283-0.027-0.567,0-0.822,0.029c-0.68,0.084-1.332,0.283-1.927,0.595
	c-0.624,0.312-1.162,0.709-1.587,1.22c-0.539,0.566-0.907,1.246-1.134,1.983s-0.283,1.503-0.198,2.296
	C475.028,123.843,475.283,124.58,475.652,125.26z M462.553,120.214c0.255,0.113,0.51,0.312,0.765,0.596l0.737,6.094
	c0.085,0.737,0.057,1.248-0.142,1.502c-0.17,0.284-0.539,0.454-1.134,0.539l0.113,0.736l3.912-0.453l-0.085-0.736
	c-0.595,0.027-1.02-0.057-1.276-0.256c-0.227-0.227-0.397-0.709-0.482-1.445l-0.595-5.018l7.455,6.859l1.219-0.141l-0.935-7.824
	c-0.085-0.709-0.057-1.219,0.113-1.474c0.171-0.283,0.539-0.453,1.078-0.537l-0.085-0.738l-3.827,0.454l0.085,0.737
	c0.595-0.057,0.992,0.028,1.247,0.255c0.227,0.227,0.397,0.681,0.482,1.417l0.51,4.365l-6.746-6.264l-3.373,0.396l0.085,0.766
	C461.986,120.044,462.269,120.101,462.553,120.214z M336.78,466.127L336.78,466.127l0.652,0.057l6.009-64.318v-0.086l0,0
	l-25.342-58.393l-0.567,0.255l0,0l25.257,58.252L336.78,466.127z M428.679,128.519c-0.113-0.821-0.057-1.587,0.142-2.295
	c0.198-0.709,0.567-1.361,1.049-1.928c0.453-0.539,1.021-0.965,1.701-1.275c0.652-0.341,1.361-0.539,2.154-0.652
	c0.822-0.086,1.587-0.057,2.296,0.113c0.709,0.17,1.361,0.453,1.928,0.85c0.624,0.454,1.134,0.992,1.502,1.645
	c0.369,0.652,0.595,1.361,0.709,2.154c0.085,0.794,0.028,1.56-0.17,2.268c-0.227,0.737-0.595,1.361-1.077,1.957
	c-0.482,0.538-1.049,0.963-1.701,1.303c-0.652,0.313-1.361,0.539-2.154,0.624c-0.794,0.113-1.559,0.057-2.296-0.113
	c-0.709-0.142-1.361-0.454-1.928-0.851c-0.625-0.454-1.106-0.993-1.475-1.616C428.99,130.051,428.764,129.342,428.679,128.519z
	 M431.542,128.152c0.198,1.559,0.567,2.721,1.162,3.457c0.567,0.737,1.332,1.049,2.268,0.936c0.936-0.113,1.616-0.595,1.984-1.445
	c0.397-0.879,0.51-2.069,0.312-3.629c-0.17-1.53-0.567-2.692-1.134-3.43c-0.595-0.736-1.332-1.049-2.268-0.936
	c-0.964,0.113-1.616,0.596-2.013,1.446C431.456,125.401,431.372,126.621,431.542,128.152z M426.07,145.698
	c-0.397-0.142-1.049-0.312-1.956-0.511l-0.057-0.027c-1.701-0.426-2.608-0.936-2.665-1.531c-0.057-0.396,0.057-0.766,0.34-1.049
	c0.312-0.283,0.737-0.453,1.276-0.51c0.765-0.086,1.446,0.027,2.041,0.396c0.595,0.368,1.105,0.963,1.531,1.785l0.68-0.057
	l-0.453-3.401l-0.652,0.085c-0.085,0.227-0.142,0.396-0.227,0.482c-0.085,0.113-0.17,0.17-0.283,0.198
	c-0.085,0-0.425-0.057-1.077-0.198c-0.652-0.143-1.247-0.17-1.814-0.086c-0.992,0.114-1.786,0.511-2.381,1.163
	c-0.567,0.651-0.794,1.417-0.68,2.324c0.057,0.511,0.227,0.964,0.539,1.332s0.765,0.681,1.332,0.936
	c0.454,0.198,1.162,0.425,2.183,0.681c0.368,0.113,0.68,0.17,0.879,0.227c0.624,0.17,1.106,0.396,1.389,0.623
	c0.283,0.228,0.453,0.539,0.482,0.936c0.057,0.454-0.057,0.852-0.34,1.191c-0.283,0.312-0.68,0.51-1.219,0.566
	c-0.85,0.113-1.644-0.085-2.381-0.596c-0.709-0.481-1.332-1.303-1.899-2.381l-0.737,0.086l0.624,4.252l0.765-0.086
	c0.028-0.312,0.057-0.538,0.142-0.68c0.085-0.17,0.198-0.256,0.34-0.283c0.085,0,0.283,0.027,0.567,0.141
	c0.142,0.029,0.255,0.057,0.34,0.086c0.482,0.141,0.907,0.227,1.276,0.283c0.397,0.028,0.765,0.028,1.134,0
	c1.134-0.143,2.013-0.539,2.608-1.19c0.567-0.681,0.822-1.503,0.709-2.495c-0.059-0.481-0.201-0.906-0.428-1.275
	c-0.227-0.368-0.567-0.68-0.964-0.963C426.779,145.981,426.439,145.839,426.07,145.698z M418.021,132.093
	c0.369,0.652,0.822,1.19,1.389,1.645c0.539,0.396,1.134,0.68,1.786,0.85c0.623,0.168,1.303,0.197,2.012,0.141
	c1.247-0.17,2.211-0.624,2.891-1.361c0.709-0.766,1.106-1.758,1.191-3.033l-0.935,0.113c-0.142,0.965-0.453,1.758-0.964,2.324
	c-0.51,0.596-1.134,0.936-1.899,1.021c-0.907,0.113-1.644-0.199-2.183-0.879c-0.51-0.709-0.879-1.843-1.049-3.373
	c-0.198-1.503-0.085-2.693,0.312-3.516c0.368-0.822,1.049-1.304,1.984-1.417c0.794-0.085,1.474,0.113,2.013,0.595
	c0.567,0.482,1.077,1.333,1.559,2.523l0.709-0.085l-0.68-4.28l-0.737,0.085c0.028,0.198,0,0.396-0.085,0.511
	c-0.085,0.141-0.198,0.227-0.369,0.227c-0.142,0.027-0.51-0.029-1.049-0.199c-0.17-0.057-0.283-0.084-0.34-0.113
	c-0.255-0.057-0.539-0.085-0.794-0.113c-0.283-0.028-0.567,0-0.85,0.028c-0.68,0.085-1.304,0.284-1.871,0.595
	c-0.595,0.313-1.106,0.738-1.531,1.248c-0.482,0.596-0.822,1.247-1.02,1.956c-0.198,0.708-0.255,1.445-0.142,2.268
	C417.454,130.705,417.681,131.441,418.021,132.093z M440.615,142.44c0.366,0.623,0.621,1.359,0.706,2.153s0.028,1.56-0.17,2.268
	c-0.227,0.708-0.567,1.36-1.077,1.928c-0.453,0.538-1.021,0.991-1.672,1.304c-0.652,0.34-1.389,0.566-2.154,0.652
	c-0.822,0.084-1.587,0.057-2.296-0.113c-0.737-0.17-1.389-0.454-1.956-0.879c-0.624-0.426-1.105-0.964-1.474-1.588
	c-0.34-0.652-0.595-1.389-0.68-2.211c-0.085-0.822-0.057-1.588,0.17-2.296c0.198-0.681,0.539-1.333,1.021-1.899
	c0.482-0.539,1.049-0.964,1.701-1.304c0.652-0.312,1.389-0.538,2.183-0.624c0.794-0.085,1.559-0.057,2.268,0.113
	c0.709,0.143,1.361,0.426,1.956,0.851C439.736,141.22,440.246,141.787,440.615,142.44z M438.458,144.933
	c-0.198-1.53-0.567-2.692-1.162-3.43c-0.567-0.737-1.332-1.049-2.268-0.936c-0.964,0.113-1.616,0.595-2.013,1.446
	c-0.369,0.85-0.482,2.041-0.283,3.6c0.17,1.559,0.567,2.693,1.134,3.458c0.567,0.737,1.332,1.049,2.296,0.936
	c0.936-0.113,1.587-0.595,1.984-1.474C438.515,147.682,438.628,146.492,438.458,144.933z M455.891,120.754
	c0.34,0,0.595,0.057,0.765,0.197c0.142,0.143,0.255,0.539,0.312,1.162l0.709,5.925c0.085,0.624,0.057,1.049-0.057,1.22
	c-0.085,0.17-0.34,0.283-0.68,0.34l-0.425,0.084l0.085,0.766l5.329-0.651l-0.085-0.737l-0.425,0.028
	c-0.368,0-0.624-0.057-0.765-0.198c-0.17-0.142-0.284-0.539-0.34-1.162l-0.709-5.924c-0.085-0.625-0.057-1.021,0.057-1.22
	c0.113-0.17,0.34-0.283,0.709-0.34l0.397-0.085l-0.085-0.766l-5.329,0.652l0.085,0.736L455.891,120.754z M325.894,295.027
	L325.894,295.027c0.219,0.112,0.438,0.227,0.657,0.337c9.634-6.18,15.103-16.125,17.711-22.275v-0.001
	c-0.17-0.198-0.312-0.396-0.453-0.567c-1.276,3.033-3.282,7.115-6.205,11.211C334.682,287.827,330.841,291.937,325.894,295.027z
	 M345.393,302.156c6.244-7.098,9.028-15.882,10.259-22.464c0.157-0.839,0.293-1.649,0.404-2.408c0,0-0.001,0-0.001,0.001
	c-0.227,0.171-0.452,0.341-0.708,0.48c-1.049,6.803-3.799,16.781-10.942,24.549c0.255,0.057,0.481,0.113,0.708,0.17h0.001
	C345.211,302.376,345.298,302.264,345.393,302.156z M313.076,283.337c-0.007,0.003-0.013,0.007-0.02,0.011
	c0.037,0.073,0.078,0.144,0.116,0.217c0.014,0.026,0.03,0.053,0.044,0.079s0.029,0.053,0.043,0.079
	c0.034,0.063,0.068,0.126,0.107,0.194c0.001,0,0.002-0.001,0.003-0.001c11.394-5.472,17.828-16.299,20.945-23.272
	c-0.17-0.17-0.34-0.34-0.482-0.51c-0.589,1.327-1.304,2.803-2.15,4.359C328.138,271.008,322.241,278.94,313.076,283.337z
	 M292.641,281.703l-0.003-0.003l-2.915-3.198c-0.112,0.197-0.225,0.396-0.339,0.623l3.146,3.401
	C292.565,282.25,292.604,281.977,292.641,281.703z"></path>
<path id="color_x5F_6_1_" fill="#94ABC0" d="M292.694,281.319c-0.018,0.127-0.038,0.252-0.055,0.379l-2.914-3.198
	c2.126-4.138,4.196-7.852,5.443-10.063c-0.097,0.372-0.181,0.765-0.274,1.144c-0.121,0.489-0.24,0.982-0.355,1.481
	c-0.08,0.351-0.161,0.7-0.238,1.056c-0.197,0.903-0.383,1.821-0.559,2.751c-0.035,0.182-0.068,0.365-0.102,0.549
	c-0.188,1.018-0.367,2.047-0.533,3.092c-0.026,0.166-0.05,0.336-0.076,0.503C292.912,279.776,292.8,280.545,292.694,281.319z
	 M358.745,274.677c-0.002,0.002-0.003,0.005-0.005,0.007c-0.085,0.111-0.193,0.222-0.276,0.331
	C358.557,274.902,358.651,274.79,358.745,274.677z M292.641,281.702l-0.003-0.003v0.001L292.641,281.702
	C292.641,281.703,292.641,281.702,292.641,281.702z M292.03,286.863c0.018-0.177,0.037-0.354,0.056-0.531
	c0.062-0.593,0.127-1.186,0.195-1.774c0.079-0.681,0.162-1.358,0.249-2.032l-3.146-3.401c-0.567,1.134-1.162,2.268-1.729,3.43
	l4.331,4.727C292,287.142,292.015,287.003,292.03,286.863z M326.258,255.656c-0.095-0.017-0.188-0.036-0.284-0.051
	c-0.145-0.023-0.293-0.04-0.441-0.059c-0.161-0.02-0.322-0.04-0.487-0.054c-0.099-0.009-0.2-0.013-0.3-0.019
	c-0.208-0.013-0.416-0.025-0.628-0.028c-0.074-0.001-0.15,0.001-0.224,0.001c-0.234,0-0.469,0.004-0.707,0.016
	c-0.072,0.004-0.145,0.012-0.217,0.017c-0.239,0.017-0.48,0.037-0.723,0.066c-0.089,0.011-0.18,0.027-0.27,0.04
	c-0.226,0.032-0.452,0.066-0.68,0.11c-0.129,0.025-0.259,0.058-0.389,0.087c-0.19,0.042-0.38,0.084-0.572,0.135
	c-0.185,0.05-0.372,0.11-0.558,0.168c-0.139,0.043-0.278,0.082-0.417,0.13c-0.253,0.088-0.506,0.188-0.76,0.292
	c-0.076,0.031-0.151,0.057-0.227,0.089c-0.325,0.139-0.65,0.292-0.976,0.459c-0.008,0.004-0.016,0.007-0.023,0.011
	c-1.365,0.704-2.734,1.662-4.065,2.923c-0.206,0.196-0.402,0.407-0.59,0.63c-0.073,0.087-0.139,0.185-0.21,0.276
	c-0.11,0.143-0.222,0.283-0.325,0.435c-0.073,0.108-0.139,0.224-0.208,0.336c-0.092,0.149-0.186,0.296-0.272,0.453
	c-0.064,0.117-0.122,0.241-0.183,0.362c-0.082,0.164-0.165,0.327-0.241,0.498c-0.054,0.122-0.103,0.251-0.154,0.377
	c-0.073,0.181-0.147,0.363-0.213,0.551c-0.045,0.126-0.085,0.256-0.126,0.384c-0.064,0.199-0.127,0.398-0.184,0.604
	c-0.036,0.128-0.068,0.26-0.101,0.39c-0.054,0.215-0.106,0.432-0.152,0.654c-0.027,0.129-0.052,0.26-0.076,0.392
	c-0.043,0.231-0.083,0.465-0.118,0.703c-0.019,0.13-0.037,0.26-0.054,0.392c-0.031,0.244-0.059,0.492-0.082,0.742
	c-0.012,0.133-0.024,0.266-0.034,0.401c-0.019,0.253-0.033,0.508-0.043,0.766c-0.006,0.138-0.011,0.276-0.014,0.414
	c-0.006,0.258-0.007,0.518-0.005,0.78c0.001,0.144,0.002,0.289,0.005,0.434c0.006,0.256,0.018,0.514,0.032,0.773
	c0.008,0.157,0.016,0.313,0.027,0.47c0.017,0.246,0.042,0.495,0.066,0.743c0.017,0.173,0.032,0.346,0.052,0.52
	c0.026,0.225,0.059,0.451,0.091,0.677c0.028,0.201,0.054,0.401,0.087,0.603c0.029,0.183,0.066,0.366,0.099,0.55
	c0.045,0.246,0.087,0.492,0.138,0.738c0.02,0.095,0.044,0.19,0.064,0.285c0.065,0.3,0.132,0.6,0.207,0.899
	c9.267-5.527,14.794-14.653,17.684-20.946c-0.485-0.19-1.002-0.353-1.544-0.483c-0.007-0.002-0.014-0.004-0.021-0.005
	C326.697,255.738,326.477,255.696,326.258,255.656z M313.368,283.915c1.08,2,2.389,3.868,3.965,5.472
	c11.793-5.528,18.256-16.924,21.204-23.783c-1.361-1.758-2.778-3.458-4.224-4.961C331.195,267.616,324.761,278.443,313.368,283.915z
	 M317.86,289.889c1.127,1.074,2.344,2.037,3.698,2.814c0.018,0.01,0.036,0.019,0.053,0.029c0.731,0.416,1.466,0.814,2.201,1.209
	c0.694,0.37,1.388,0.731,2.082,1.085c4.946-3.089,8.787-7.2,11.71-11.296c2.923-4.096,4.929-8.178,6.204-11.211
	c-1.531-1.983-3.146-4.166-4.819-6.35C335.93,273.141,329.471,284.302,317.86,289.889z M326.552,295.363
	c0.074,0.037,0.148,0.077,0.221,0.113c2.047,1.007,4.07,1.962,6.037,2.782c8.59-5.244,13.919-13.55,16.895-19.73
	c-1.616-0.85-3.458-2.891-5.442-5.441C341.655,279.238,336.186,289.183,326.552,295.363z M449.796,388.061v0.085h-10.998v-0.085
	v-57.572h0.341v-28.346h-14.003v24.831h0.991v61.087h-29.508v5.669h26.589v21.741h2.75V393.73h84.756v23.499h2.75V393.73h26.249
	v-5.669H449.796z M310.965,277.871c0.038,0.138,0.074,0.277,0.114,0.415c0.052,0.179,0.106,0.357,0.161,0.535
	c0.073,0.236,0.148,0.471,0.227,0.706c0.105,0.309,0.215,0.618,0.331,0.924c0.031,0.083,0.061,0.167,0.093,0.251
	c0.348,0.894,0.743,1.774,1.186,2.634c9.165-4.397,15.062-12.329,18.605-18.845c0.846-1.556,1.56-3.032,2.15-4.359
	c-1.049-1.021-2.098-1.956-3.146-2.693c-0.482-0.34-1.021-0.651-1.616-0.936C326.122,262.938,320.483,272.26,310.965,277.871z
	 M291.539,292.447L291.539,292.447c0,0.011,0,0.037,0,0.054c0.107-1.463,0.229-2.918,0.366-4.364l-0.216-0.235l-4.318-4.693
	c-0.566,1.104-1.104,2.209-1.586,3.314L291.539,292.447C291.539,292.446,291.539,292.447,291.539,292.447z M291.059,301.477
	c0.01-0.338,0.016-0.668,0.026-1.008l-7.795-8.022c-0.596,1.588-1.077,3.033-1.361,4.252l9.008,9.235
	C290.966,304.455,291.006,302.968,291.059,301.477z M290.914,306.848l-9.128-9.383c-0.169,1.077-0.197,1.928,0.001,2.523
	c1.105,3.06,5.525,7.678,9.095,11.051c0.003-1.073,0.012-2.152,0.026-3.238C290.911,307.482,290.908,307.17,290.914,306.848z
	 M358.889,274.504c-0.047,0.056-0.093,0.112-0.14,0.168c0.084,0.085,0.196,0.142,0.281,0.226
	C358.974,274.757,358.946,274.616,358.889,274.504z M347.122,284.527c-3.122,4.948-7.539,10.247-13.571,14.041
	c0.09,0.038,0.18,0.074,0.27,0.111c0.714,0.298,1.416,0.577,2.112,0.847c0.39,0.151,0.777,0.298,1.161,0.441
	c0.546,0.203,1.085,0.399,1.616,0.584c0.298,0.105,0.596,0.21,0.888,0.309c1.705,0.575,3.326,1.064,4.807,1.451
	c7.143-7.768,9.893-17.745,10.942-24.549c-1.248,0.766-2.665,1.249-4.196,1.219c-0.283,0-0.567-0.084-0.85-0.17v0.001l0,0
	C349.444,280.577,348.386,282.524,347.122,284.527z M356.056,277.283c-0.111,0.759-0.247,1.569-0.404,2.408
	c-1.227,6.582-3.992,15.367-10.259,22.464c-0.095,0.108-0.182,0.22-0.279,0.327h-0.001l0,0c2.608,0.623,4.791,0.907,6.265,0.822
	c2.013-0.113,5.131-1.105,8.646-3.033c2.409-9.014,1.02-18.029-0.709-24.293c-0.312-0.283-0.652-0.539-0.964-0.794
	C357.642,275.951,356.877,276.688,356.056,277.283c-0.001,0-0.001,0-0.001,0.001C356.055,277.283,356.056,277.283,356.056,277.283z
	 M313.215,283.644c-0.014-0.026-0.03-0.053-0.044-0.079c0.017,0.032,0.034,0.064,0.051,0.096l0,0
	C313.22,283.655,313.218,283.65,313.215,283.644z M287.654,282.555c-0.112,0.226-0.197,0.425-0.311,0.623
	c0.111-0.193,0.195-0.388,0.304-0.607C287.65,282.565,287.651,282.56,287.654,282.555z M360.79,299.817L360.79,299.817
	c-0.001,0.001-0.001,0.001-0.001,0.002c3.458-1.984,7.285-4.876,10.857-8.703c-2.977-6.066-7.369-10.884-11.479-14.426
	C361.783,282.869,362.916,291.315,360.79,299.817z M381.114,276.461c0.935-2.211,1.757-4.535,2.408-7.03
	c0.033-0.116-1.686-0.384-4.131-0.704c-3.533-0.463-8.583-1.037-12.111-1.427c-2.412-0.267-4.111-0.448-4.111-0.448
	s-0.057,0.113-0.142,0.34c0,0,0,0,0.001,0v-0.001C368.641,268.75,375.388,271.557,381.114,276.461z M372.099,290.604
	L372.099,290.604c0,0.001,0,0.001,0,0.001c1.559-1.729,3.09-3.656,4.507-5.754c-4.195-6.52-10.119-11.14-15.165-14.202
	c-0.567,1.021-1.247,2.154-2.069,3.231c0.17,0.539,0.34,1.105,0.51,1.729c0.539,0.45,1.084,0.922,1.632,1.416
	c0.548,0.494,1.099,1.009,1.648,1.546C366.46,281.793,369.718,285.8,372.099,290.604z M376.974,284.283
	c1.446-2.212,2.75-4.593,3.884-7.199c-5.698-4.961-12.473-7.738-18.057-9.298c-0.255,0.568-0.595,1.36-1.077,2.296
	C366.798,273.144,372.723,277.764,376.974,284.283z M285.501,287.146c-0.737,1.617-1.418,3.176-1.984,4.621l7.597,7.823
	c0.026-0.479,0.058-0.958,0.084-1.437c0.078-1.621,0.171-3.241,0.283-4.856L285.501,287.146z M313.223,283.66
	c0.011,0.021,0.024,0.041,0.035,0.062c0.034,0.063,0.068,0.126,0.107,0.194c0.001,0,0.002-0.001,0.003-0.001l0,0
	c-0.001,0-0.002,0.001-0.003,0.001C313.308,283.83,313.28,283.745,313.223,283.66z"></path>
<path id="color_x5F_5" fill="#FFD2BB" d="M342.526,473.013l-12.096-1.331l0.368-5.328l13.011,0.992L342.526,473.013z
	 M381.539,253.67c0.05-0.087,0.123-0.169,0.207-0.249c0.033-0.032,0.07-0.063,0.107-0.094c0.053-0.043,0.11-0.086,0.171-0.127
	c0.723-0.498,1.974-0.876,2.938-1.177c0.683-0.221,1.221-0.413,1.311-0.593c0.283-0.481,0.566-1.899,0.51-3.004
	c-0.085-1.134,0.142-1.19-0.907-2.892c-1.077-1.673-0.794-2.098-1.191-4.763c-0.425-2.664-1.219-3.854-1.219-3.854
	s-1.389-0.567-2.523-0.481c-1.105,0.057-1.332,0.057-1.332,0.057s-0.198,0-1.757,0.566c-1.531,0.566-1.871,0.709-4.535,1.814
	c-2.693,1.134-1.106,7.115-0.397,9.836c0.396,1.584-2.17,11.144-5.641,18.591c3.527,0.39,8.578,0.964,12.111,1.427
	C382.161,258.85,381.199,254.292,381.539,253.67z M313.526,250.624c0.205,0.005,0.406,0.012,0.616,0.014
	c0.257,0.002,0.522-0.003,0.786-0.006c0.254-0.003,0.508-0.007,0.767-0.016c0.25-0.009,0.505-0.023,0.76-0.038
	c0.288-0.016,0.577-0.035,0.87-0.058c0.245-0.02,0.492-0.044,0.741-0.07c0.316-0.033,0.635-0.071,0.957-0.113
	c0.237-0.031,0.474-0.065,0.714-0.102c0.35-0.055,0.703-0.118,1.058-0.186c0.217-0.041,0.434-0.082,0.653-0.129
	c0.399-0.085,0.8-0.183,1.203-0.287c0.18-0.046,0.359-0.089,0.54-0.138c0.097-0.027,0.195-0.062,0.293-0.091
	c-0.536-4.079-0.333-9.055,3.772-9.424c7.002-0.596,7.625-2.438,7.287-5.7c-0.369-3.26-0.199-5.896,1.077-6.406
	c1.304-0.511,1.899-1.531,0.68-2.665c-0.935-0.878-1.531-1.956-1.162-8.021c-3.898,0.438-7.301,0.203-9.328,0.313
	c-1.573,0.074-2.604,0.416-3.279,0.813c-1.122,0.663-1.255,1.482-1.255,1.482s0.567,5.301-0.397,5.925
	c-0.121,0.082-0.234,0.145-0.341,0.187c-0.746,0.294-1.195-0.455-2.014-3.332c-0.567-2.072-1.864-2.551-2.902-2.017
	c-0.623,0.321-1.153,1.006-1.376,1.93c-0.624,2.494,0,4.281,1.417,6.379c1.329,1.967-3.023,10.412-7.263,12.136
	c-0.283,0.115-0.565,0.201-0.846,0.252c-0.382,0.071-0.775,0.096-1.171,0.102c-0.042,0-0.084,0-0.125,0
	c-1.217-0.002-2.483-0.293-3.736-0.831c1.356,1.016,2.542,1.95,3.277,3.137c1.134,1.785,0.539,3.883-0.397,5.839
	c0.406,0.125,3.141,0.866,7.006,1.079c0.091,0.005,0.176,0.012,0.268,0.017C312.95,250.611,313.24,250.616,313.526,250.624z
	 M284.51,448.297l-2.228,1.913l6.571-5.594l-9.803-8.601l-3.415,3.976l0.001,0.001l0.001-0.001L284.51,448.297z"></path>
<path id="color_x5F_4" fill="#00CEC9" d="M208.456,192.328c0.354,0.057,0.689,0.174,0.992,0.341
	C209.145,192.502,208.81,192.385,208.456,192.328l0-17.688h0V192.328z M202.287,229.242c2.714,0.699,5.56,1.07,8.492,1.07h0
	C207.847,230.312,205.001,229.94,202.287,229.242z M210.784,194.19c-0.252-0.653-0.73-1.187-1.336-1.521
	C210.054,193.003,210.532,193.537,210.784,194.19z M189.162,222.549c-0.839-0.693-1.645-1.425-2.414-2.194
	C187.518,221.124,188.323,221.856,189.162,222.549z M292.641,281.702l-0.003-0.002L292.641,281.702
	C292.641,281.702,292.641,281.702,292.641,281.702z M218.717,218.662l0.397-0.17L218.717,218.662L218.717,218.662z M209.05,197.998
	l9.666,20.664h0.001l-9.666-20.664H209.05z M291.539,292.447c-0.014,0.136-0.019,0.271-0.027,0.406
	c0.008-0.116,0.017-0.232,0.026-0.348c0-0.004,0.001-0.008,0.001-0.012C291.539,292.477,291.539,292.456,291.539,292.447z
	 M181.714,178.683c-1.703,2.805-3.013,5.877-3.851,9.138C178.701,184.56,180.01,181.488,181.714,178.683z M186.749,172.269
	c0.769-0.769,1.574-1.502,2.414-2.195C188.323,170.767,187.518,171.499,186.749,172.269z M189.162,222.549
	c0.839,0.693,1.712,1.346,2.617,1.957C190.875,223.895,190.002,223.242,189.162,222.549z M210.979,195.248
	c-0.001,0.312-0.086,0.623-0.171,0.906l28.63,11.793l-0.34,0.85l0.34-0.85l-28.63-11.793
	C210.893,195.871,210.978,195.56,210.979,195.248z M185.623,219.175c-0.732-0.805-1.425-1.645-2.078-2.517
	C184.198,217.53,184.892,218.37,185.623,219.175z M183.546,216.657c-2.61-3.49-4.565-7.498-5.683-11.841
	C178.98,209.16,180.936,213.168,183.546,216.657z M194.581,226.209c1.926,1.047,3.965,1.913,6.093,2.575
	C198.546,228.121,196.508,227.255,194.581,226.209z M194.581,226.209c-0.963-0.523-1.898-1.092-2.802-1.703
	C192.683,225.117,193.618,225.685,194.581,226.209z M177.483,189.467c-0.453,2.215-0.691,4.508-0.691,6.857
	c0,2.932,0.372,5.778,1.07,8.492c-0.699-2.715-1.07-5.56-1.07-8.492C176.792,193.975,177.03,191.682,177.483,189.467z
	 M345.64,301.862c6.002-6.945,8.721-15.428,9.957-21.888C354.357,286.433,351.62,294.916,345.64,301.862z M313.211,283.636
	c0.001,0.003,0.003,0.005,0.004,0.008c0,0.001,0,0.001,0.001,0.002c0.003,0.006,0.007,0.013,0.01,0.019
	c0.004,0.008,0.01,0.016,0.014,0.025c0.006,0.011,0.012,0.021,0.018,0.032c0.004,0.008,0.009,0.016,0.013,0.024
	c0.012,0.023,0.026,0.044,0.037,0.067c-0.016-0.03-0.034-0.061-0.05-0.09c-0.014-0.026-0.029-0.053-0.043-0.079
	C313.208,283.629,313.204,283.623,313.211,283.636z M342.789,401.894 M208.001,198.195c0,0,0,0,0.001,0
	c-1.616,0-2.948-1.332-2.948-2.947c0-1.475,1.077-2.693,2.495-2.92V174.64h-0.001v17.688c-1.417,0.227-2.495,1.445-2.495,2.92
	C205.053,196.863,206.385,198.195,208.001,198.195z M369.343,276.453c-1.977-1.765-4.014-3.286-5.973-4.582
	C365.329,273.167,367.366,274.689,369.343,276.453z M547.791,437.81c-10.167,33.252-23.947,46.99-33.503,52.667H360.463
	c0.096-1.477-1.475-3.152-3.416-3.516c-2.721-0.539-5.329,0.51-8.362-1.417c-3.005-1.928-4.62-6.406-5.641-6.604
	c-0.73-0.125-0.99,0.318-2.034,0.775c-0.001,0-0.001,0.001-0.002,0.001c0,0-0.001,0-0.001,0.001
	c-0.157,0.069-0.341,0.137-0.538,0.204c-0.272,0.093-0.572,0.184-0.939,0.266c-2.409,0.511-2.721,0.511-2.721,0.511l-0.528-0.053
	l0.527,0.052c0,0,0.312,0,2.721-0.511c0.364-0.083,0.666-0.174,0.939-0.265c0.198-0.068,0.381-0.136,0.538-0.204l0.197-0.866
	l1.33-5.836v-0.001l-0.008-0.001l-12.096-1.331l-0.566,8.323l-1.019-0.102c0,0-1.106,0.17-1.502,1.219
	c-0.425,1.049-1.134,6.69-1.134,7.909c0,0.559,0.164,1.044,0.59,1.446c0.525,0.495,1.456,0.861,3.067,1.049
	c2.007,0.234,2.54,0.266,3.819,0.264c-1.279,0.003-1.813-0.03-3.82-0.264c-1.612-0.188-2.543-0.554-3.067-1.049H196.208
	c5.018-3.289,12.558-19.701,10.602-39.346c-2.041-20.664-18.879-34.638-17.858-45.326c1.021-10.658,8.164-18,8.164-18h-8.645
	c0.964-12.813,4.507-27.326,8.816-41.017c3.26-0.255,18.624-1.843,23.187-8.164c5.102-7.087-4.819-13.606-2.268-22.96
	c2.551-9.355,10.176-6.236,15.846-12.729c5.669-6.52-4.252-17.291,5.669-26.361c9.921-9.071,12.756-11.906,13.039-21.827
	c0.283-9.581,12.217-14.259,12.983-14.57c-28.516,9.807-47.962,47.395-58.79,75.175c-7.937,19.389-18.454,48.784-20.183,72.453
	h-3.005h-1.673c5.784-22.763,6.464-45.723,5.642-63.383c0.34-7.228-0.539-17.603-2.976-28.572c-0.369-2.127-0.624-3.316-0.624-3.402
	l-0.17,0.057c-3.118-12.5-8.277-25.398-15.931-35.008c-20.098-25.199-40.422-31.691-40.422-31.691s-4.025,6.747,6.094,12.559
	c10.12,5.782,15.676,13.805,15.591,20.607c-0.085,6.774-8.759,20.834,0.737,31.72c9.496,10.913,4.365,13.096,6.406,31.833
	c2.013,18.736,23.017,15.59,28.743,11.707c0.425-0.283,0.794-0.822,1.106-1.531c0.255,16.243-0.992,35.744-5.953,55.104v0.001h0
	v-0.001h-0.595h-13.351c0,0,7.171,7.342,8.192,18c1.02,10.687-15.846,24.662-17.887,45.326
	c-1.927,19.645,5.585,36.057,10.602,39.346h-19.162v3.996c-0.003-0.001-45.835-16.329-25.994-77.98
	c6.326-19.711,27.8-48.252,26.838-77.558c5.794,2.078,5.993,4.559,7.97,6.463c0.652,0.624,0.992,0.539,1.134,0
	c5.499,9.837,11.48,23.527,17.405,42.406h1.786c-6.803-21.883-13.72-36.906-19.871-47.168c-0.906-3.231-2.493-7.228-4.166-9.609
	c0,0-2.347-1.984-6.302-5.176c-2.073-7.193-5.821-14.361-11.812-21.383c-30.983-36.313-45.609-109.418,14.003-151.994
	c56.013-39.996,133.994-37.672,162,21.346c3.664,7.716,7.443,15.299,11.444,22.631c-0.399-0.07-0.829-0.149-1.32-0.254
	c-4.667-1-6.333-0.833-9.583,1.25c-3.25,2.083-4.417-1.667-8.667-1c-4.25,0.667,0.167,4.167-3.667,5.083
	c-3.833,0.917-5.833,2.25-4.167,5.083c1.667,2.833-0.417,3.583-1.667,5s3,2.583,0,4.25s-3.917,4-2.333,5.083
	c1.583,1.083,2.833,2.083,1.25,3.833c-1.583,1.75-0.667,6.583,2.167,7.5c2.833,0.917,1.75,1.5,2.167,3.583s0.833,2.177,2.917,2.839
	c1.462,0.464,2.519,2.242,4.831,3.435c-0.584-0.546-1.252-1.068-1.975-1.61c1.356,1.016,2.542,1.95,3.277,3.137
	c1.134,1.785,0.539,3.883-0.397,5.839c0.406,0.125,3.141,0.866,7.006,1.079c0.091,0.005,0.176,0.012,0.268,0.017
	c0.274,0.012,0.564,0.017,0.85,0.025c0.205,0.005,0.406,0.012,0.616,0.014c0.257,0.002,0.522-0.003,0.786-0.006
	c0.254-0.003,0.508-0.007,0.767-0.016c0.25-0.009,0.505-0.023,0.76-0.038c0.288-0.016,0.577-0.035,0.87-0.058
	c0.245-0.02,0.492-0.044,0.741-0.07c0.316-0.033,0.635-0.071,0.957-0.113c0.237-0.031,0.474-0.065,0.714-0.102
	c0.35-0.055,0.703-0.118,1.058-0.186c0.217-0.041,0.434-0.082,0.653-0.129c0.399-0.085,0.8-0.183,1.203-0.287
	c0.18-0.046,0.359-0.089,0.54-0.138c0.097-0.027,0.195-0.062,0.293-0.091c-0.536-4.079-0.333-9.055,3.772-9.424
	c7.002-0.596,7.625-2.438,7.287-5.7c-0.369-3.26-0.199-5.896,1.077-6.406c1.304-0.511,1.899-1.531,0.68-2.665
	c-0.889-0.835-1.47-1.86-1.208-7.171c-0.011,0.232-0.021,0.457-0.029,0.675c0.341-0.03,0.71-0.013,1.086,0.019
	c9.913,14.367,21.402,26.949,35.558,36.521c-1.026,3.621-2.597,8.123-4.426,12.046c3.527,0.39,8.578,0.964,12.111,1.427
	c0.875-3.122,1.376-5.709,1.665-7.812c21.124,11.356,47.75,16.506,82.743,12.23C553.8,262.147,568.228,370.941,547.791,437.81z
	 M248.792,196.324c0-21.004-17.008-38.011-38.013-38.012c-20.976,0-37.984,17.008-37.984,38.012
	c0,20.976,17.008,37.984,37.984,37.984C231.784,234.308,248.792,217.301,248.792,196.324z M503.626,363.399
	c0.001-0.001,16.045-5.556,20.098-21.174C523.724,342.225,511.053,347.496,503.626,363.399z M512.613,363.824l-0.057,0.312
	c6.718-1.219,10.772-5.103,10.772-5.103c-11.311-0.368-16.215,3.403-17.632,4.791h-8.39c-1.418-1.388-6.322-5.159-17.632-4.791
	c0,0,4.106,3.908,10.848,5.129l5.281,23.642l11.168,0.17l5.641-24.15H512.613z M502.238,363.342c0,0,11.792-19.106,10.233-35.914
	C512.471,327.428,500.906,346.25,502.238,363.342z M500.792,363.342c1.304-17.092-10.261-35.914-10.261-35.914
	C488.972,344.236,500.792,363.342,500.792,363.342z M479.277,342.225c4.054,15.618,20.126,21.174,20.126,21.174
	C491.976,347.496,479.277,342.225,479.277,342.225z M358.464,275.015c0.083-0.109,0.191-0.22,0.276-0.331
	c0.002-0.002,0.003-0.005,0.005-0.007C358.651,274.79,358.557,274.902,358.464,275.015z M350.301,278.813
	c-0.198-0.084-0.397-0.17-0.595-0.283c-2.977,6.179-8.306,14.485-16.895,19.729c0.057,0.025,0.104,0.045,0.159,0.07
	c0.19,0.08,0.375,0.154,0.564,0.232c6.047-3.793,10.466-9.088,13.588-14.034c-3.122,4.948-7.539,10.247-13.571,14.041
	c0.09,0.038,0.18,0.074,0.27,0.111c0.714,0.298,1.416,0.577,2.112,0.847c0.39,0.151,0.777,0.298,1.161,0.441
	c0.546,0.203,1.085,0.399,1.616,0.584c0.298,0.105,0.596,0.21,0.888,0.309c1.705,0.575,3.326,1.064,4.807,1.451
	c7.143-7.768,9.893-17.745,10.942-24.549c-1.248,0.766-2.665,1.249-4.196,1.219c-0.283,0-0.567-0.084-0.85-0.17L350.301,278.813
	C350.301,278.812,350.301,278.813,350.301,278.813z M343.809,272.521c-1.276,3.033-3.282,7.115-6.205,11.211
	c-2.922,4.095-6.763,8.205-11.71,11.295c0.219,0.112,0.438,0.227,0.657,0.337c0,0,0.001-0.001,0.001-0.001
	c0.074,0.037,0.148,0.077,0.221,0.113c2.047,1.007,4.07,1.962,6.037,2.782c8.59-5.244,13.919-13.55,16.895-19.73
	c-1.616-0.85-3.458-2.891-5.442-5.441c-1.793,4.229-4.939,10.251-9.86,15.611c4.921-5.359,8.066-11.381,9.859-15.609v-0.001
	C344.092,272.89,343.95,272.692,343.809,272.521z M287.826,468.168c-1.843-2.07-4.593-2.778-5.84-6.123
	c-1.276-3.373,0.113-7.938-0.595-8.674c-0.523-0.544-0.989-0.335-2.095-0.596c-0.006-0.001-0.01-0.002-0.016-0.003
	c-0.002,0-0.003,0-0.005-0.001c-0.001,0-0.002,0-0.004-0.001c-0.377-0.091-0.831-0.239-1.384-0.489
	c0.54,0.238,1.003,0.377,1.385,0.488c0.001,0,0.002,0.001,0.003,0.001s0.003,0.001,0.004,0.001c0.006,0.001,0.011,0.002,0.016,0.003
	l2.986-2.564l2.228-1.913l-8.872-8.306l0,0l8.873,8.306l-2.228,1.913l6.571-5.594l-9.803-8.601l-3.415,3.976l0.001,0.001l0,0
	l-5.443,6.349l4.806,4.384l-5.57-5.065c0,0-0.964-0.539-1.928,0.057c-0.964,0.596-4.904,4.678-5.641,5.67s-0.68,2.154,1.446,4.195
	c2.126,2.012,2.013,1.814,4.847,3.939c2.835,2.098,7.087,5.812,9.921,9.27c2.835,3.43,5.896,4.705,8.646,4.904
	C289.47,473.865,289.696,470.209,287.826,468.168z M343.809,467.346l-13.011-0.992l-0.368,5.328l12.096,1.331L343.809,467.346z
	 M313.077,283.336c9.165-4.397,15.062-12.329,18.605-18.845c0.846-1.556,1.56-3.032,2.15-4.359
	c-1.049-1.021-2.098-1.956-3.146-2.693c-0.482-0.34-1.021-0.651-1.616-0.936c-1.38,3.013-0.397-0.168-0.594-0.225
	c0-0.001,0.001-0.002,0.001-0.003c-0.374-0.146-0.781-0.26-1.189-0.372c0.316,0.083,0.635,0.163,0.93,0.267
	c-2.013-4.648-3.317-7.199-3.317-7.199c-0.474,0.164-0.947,0.302-1.419,0.438c-0.097,0.028-0.196,0.064-0.293,0.091
	c-0.181,0.05-0.36,0.092-0.54,0.138c-0.403,0.104-0.804,0.202-1.203,0.287c-0.219,0.047-0.435,0.087-0.653,0.129
	c-0.355,0.068-0.708,0.131-1.058,0.186c-0.24,0.037-0.477,0.071-0.714,0.102c-0.322,0.043-0.64,0.081-0.957,0.113
	c-0.249,0.026-0.496,0.05-0.741,0.07c-0.293,0.024-0.583,0.042-0.87,0.058c-0.255,0.014-0.509,0.029-0.76,0.038
	c-0.26,0.009-0.513,0.012-0.767,0.016c-0.264,0.003-0.529,0.009-0.786,0.006c-0.21-0.002-0.411-0.009-0.616-0.014
	c-0.287-0.007-0.575-0.012-0.852-0.026c-0.092-0.004-0.178-0.012-0.268-0.017c-4.196-0.229-7.063-1.079-7.063-1.079
	c-4.892,3.862-8.211,11.101-10.426,19.984c0.085-0.351,0.163-0.712,0.253-1.054c-1.247,2.211-3.317,5.925-5.443,10.063l2.914,3.198
	c0.01-0.075,0.021-0.148,0.032-0.222c-0.01,0.075-0.021,0.15-0.031,0.226l-0.003-0.003v0.001l-2.915-3.198
	c-0.112,0.197-0.225,0.396-0.339,0.623c-0.567,1.134-1.162,2.268-1.729,3.43l4.331,4.727c0.007-0.072,0.015-0.144,0.023-0.216
	c-0.007,0.073-0.014,0.146-0.021,0.219l-0.002-0.002l-4.331-4.727c0,0,0,0.001,0,0.001c0,0,0-0.001,0-0.001
	c-0.008,0.016-0.014,0.028-0.022,0.044c-0.102,0.207-0.184,0.395-0.29,0.579l0.028,0.031l0.001,0.001
	c-0.566,1.104-1.104,2.208-1.585,3.313l0,0c-0.114,0.2-0.199,0.427-0.284,0.624l5.979,6.15v0l-5.979-6.15
	c-0.737,1.617-1.418,3.176-1.984,4.621l7.597,7.823c0.025-0.462,0.056-0.924,0.081-1.386c-0.051,1.074-0.097,2.148-0.135,3.22
	c0.009-0.319,0.015-0.633,0.025-0.955c0.028-0.312,0.028-0.595,0.028-0.879l-7.597-7.823c-0.084,0.227-0.17,0.454-0.226,0.68
	c-0.596,1.588-1.077,3.033-1.361,4.252l9.007,9.234v0l-9.007-9.233c-0.057,0.282-0.113,0.538-0.142,0.765l9.128,9.383
	c0-0.102,0.006-0.217,0.01-0.329c-0.006,0.355-0.011,0.71-0.016,1.064c0.001-0.244,0-0.487,0.005-0.735l-9.128-9.383
	c-0.169,1.077-0.197,1.928,0.001,2.523c1.105,3.059,5.523,7.676,9.093,11.049c0,0.002,0,0.003,0,0.005
	c-0.061,20.946,1.904,38.896,1.904,38.896s12.057-4.244,22.382-6.234c-6.35,1.228-13.353,3.307-17.815,4.728
	c-0.171,0.142-0.369,0.283-0.539,0.454l1.305,2.268l13.691,47.99l-34.073,35.717l1.316,1.154l9.803,8.601l2.062,1.81l37.66-21.848
	l-1.971,41.464l23.159,1.616l6.435-65.622l-13.521-58.535c0,0-0.198-0.142-0.567-0.369c-1.829-0.115,5.073,0.34,5.073,0.34
	c-0.113-14.938-2.013-29.083-4.649-41.668c-0.935-0.276-1.924-0.598-2.936-0.942c-0.292-0.099-0.59-0.204-0.888-0.309
	c-0.532-0.187-1.068-0.38-1.616-0.584c-0.383-0.143-0.77-0.29-1.161-0.441c-0.694-0.269-1.399-0.553-2.112-0.847
	c-0.09-0.037-0.18-0.074-0.27-0.111c-0.005-0.002-0.011-0.004-0.016-0.007c-0.189-0.079-0.374-0.152-0.564-0.232
	c-2.022-0.855-4.1-1.808-6.197-2.852c-0.074-0.037-0.148-0.076-0.221-0.113c-0.219-0.11-0.438-0.225-0.657-0.336
	c-0.694-0.354-1.388-0.712-2.082-1.085c-0.735-0.395-1.469-0.793-2.201-1.209c-0.018-0.01-0.036-0.019-0.053-0.029
	c-0.092-0.053-0.178-0.115-0.269-0.169c0.09,0.054,0.175,0.113,0.266,0.165c0.018,0.01,0.036,0.019,0.053,0.029
	c0.731,0.416,1.466,0.814,2.201,1.209c0.694,0.37,1.388,0.731,2.082,1.085c4.946-3.089,8.787-7.2,11.71-11.296
	c2.923-4.096,4.929-8.178,6.204-11.211c-1.531-1.983-3.145-4.165-4.818-6.349c0,0,0,0,0,0c-0.141-0.17-0.283-0.367-0.453-0.566
	c-1.361-1.758-2.777-3.457-4.223-4.96v0c-0.17-0.17-0.34-0.34-0.482-0.51c-0.589,1.327-1.304,2.803-2.15,4.359
	c-3.544,6.515-9.441,14.447-18.606,18.844c-0.007,0.003-0.013,0.007-0.019,0.01 M360.024,300.271
	c2.409-9.014,1.02-18.029-0.709-24.293c-0.312-0.283-0.652-0.539-0.964-0.794c-0.709,0.767-1.474,1.504-2.295,2.099
	c0,0,0,0.001,0,0.001c0,0-0.001,0-0.001,0.001c-0.227,0.171-0.452,0.341-0.708,0.48c-1.049,6.803-3.799,16.781-10.942,24.549
	c0.255,0.057,0.481,0.113,0.708,0.17h0.001c0-0.001,0.001-0.001,0.001-0.002c2.607,0.623,4.789,0.906,6.263,0.821
	C353.391,303.191,356.509,302.199,360.024,300.271z M376.974,284.283c1.446-2.212,2.75-4.593,3.884-7.199
	c-5.698-4.961-12.473-7.738-18.057-9.298c-0.255,0.568-0.595,1.36-1.077,2.296c-0.085,0.17-0.198,0.369-0.283,0.567
	c0.631,0.383,1.275,0.79,1.928,1.222c-0.653-0.432-1.298-0.839-1.928-1.222c-0.567,1.021-1.247,2.154-2.069,3.231l0,0
	c-0.142,0.198-0.312,0.426-0.482,0.623c0.057,0.113,0.085,0.256,0.142,0.397c-0.001-0.001-0.001-0.001-0.002-0.002h0
	c-0.056-0.141-0.084-0.282-0.141-0.394c-0.047,0.056-0.093,0.112-0.14,0.168l0,0c-0.001,0.002-0.002,0.003-0.004,0.005
	c-0.002,0.002-0.003,0.005-0.005,0.007c-0.137,0.167-0.249,0.333-0.388,0.499c0.312,0.255,0.652,0.511,0.964,0.794
	c1.729,6.265,3.118,15.279,0.709,24.293c0.255-0.143,0.51-0.283,0.764-0.453c0,0,0,0,0.001,0c-0.001,0.001-0.001,0.001-0.001,0.002
	c3.458-1.984,7.285-4.876,10.857-8.703c-2.977-6.066-7.369-10.884-11.479-14.426c0,0,0,0,0,0c0-0.001-0.001-0.003-0.001-0.004
	c4.11,3.543,8.504,8.361,11.48,14.428c0.142-0.17,0.312-0.34,0.453-0.51c0,0.001,0,0.001,0,0.001
	c1.559-1.729,3.09-3.656,4.507-5.754c-0.524-0.815-1.076-1.6-1.649-2.357c0.573,0.756,1.125,1.542,1.649,2.357
	c0.113-0.199,0.255-0.369,0.369-0.567C376.974,284.284,376.974,284.283,376.974,284.283z M383.522,269.431
	c0.033-0.116-1.686-0.384-4.131-0.704c-3.533-0.463-8.583-1.037-12.111-1.427c-2.412-0.267-4.111-0.448-4.111-0.448
	s-0.057,0.113-0.142,0.34c0,0,0,0,0.001,0v-0.001c0,0,0.001,0,0.001,0v0.001c-0.057,0.141-0.114,0.339-0.227,0.594
	c5.584,1.56,12.358,4.337,18.056,9.297c0,0,0,0,0.001,0.001c0.085-0.198,0.17-0.426,0.255-0.623
	C382.049,274.25,382.871,271.926,383.522,269.431z M539.713,388.061h-89.917v-57.572h-10.657v-28.346h-14.003v24.831h0h-13.012
	v61.001l14.003,0.086h-29.508v5.669h26.589v21.741h2.75V393.73h84.756v23.499h2.75V393.73h26.249V388.061z M159.114,494.473
	c59.89,0,344.003,0.001,344.003,0.001s0.012,0,0.03-0.001H159.114z M359.463,274.176c0.108,0.349,0.216,0.714,0.323,1.096
	C359.678,274.889,359.57,274.525,359.463,274.176z M360.291,277.184c1.547,6.132,2.57,14.353,0.499,22.633
	C362.861,291.536,361.838,283.315,360.291,277.184z M316.757,343.412"></path>
<path id="color_x5F_3_1_" fill="#71ABDB" d="M279.051,436.015l9.803,8.601l2.062,1.81l37.66-21.848l-1.971,41.464l23.159,1.616
	l6.435-65.622l-13.521-58.535c0,0-0.198-0.142-0.567-0.369c-1.829-0.115-4.038-0.234-6.425-0.327
	c-0.078-0.003-0.156-0.006-0.234-0.009c-0.213-0.008-0.429-0.015-0.645-0.023c-2.477-0.087-5.115-0.144-7.708-0.139
	c-0.066,0-0.132,0-0.197,0c-0.245,0.001-0.49,0.003-0.734,0.005c-0.158,0.001-0.316,0.002-0.474,0.004
	c-0.207,0.002-0.414,0.005-0.62,0.008c-0.209,0.004-0.417,0.008-0.624,0.012c-0.166,0.004-0.333,0.007-0.498,0.011
	c-0.363,0.009-0.724,0.019-1.081,0.031c-0.013,0-0.026,0.001-0.038,0.001c-0.43,0.016-0.878,0.045-1.336,0.082
	c-0.082,0.006-0.164,0.014-0.246,0.021c-7.416,0.643-17.932,3.722-23.9,5.623c-0.171,0.142-0.369,0.283-0.539,0.454l1.305,2.268
	l13.691,47.99l-34.073,35.717L279.051,436.015z M317.532,343.642l0.567-0.255l25.342,58.393v0.086l-6.009,64.318l-0.652-0.057
	l6.009-64.233L317.532,343.642z M275.352,451.047l-5.159-4.706l5.443-6.349l0.001-0.001l8.872,8.306l-2.228,1.913l-2.986,2.564
	c-0.005-0.001-0.01-0.002-0.016-0.003c-0.001,0-0.003-0.001-0.004-0.001s-0.002-0.001-0.003-0.001
	c-0.393-0.113-0.867-0.253-1.425-0.503C275.579,451.244,275.352,451.047,275.352,451.047z M330.429,471.682l12.096,1.331
	l0.008,0.001v0.001l-1.33,5.836l-0.197,0.866c-0.157,0.068-0.34,0.136-0.538,0.204c-0.273,0.091-0.575,0.182-0.939,0.265
	c-2.409,0.511-2.721,0.511-2.721,0.511l-0.643-0.063l-6.302-0.629L330.429,471.682z M451.384,143.402
	c0.199,1.531,0.085,2.75-0.284,3.6c-0.397,0.85-1.077,1.332-2.013,1.445c-0.936,0.113-1.701-0.198-2.268-0.936
	c-0.595-0.737-0.964-1.87-1.162-3.43c-0.17-1.559-0.057-2.777,0.312-3.628c0.397-0.85,1.049-1.333,2.013-1.446
	c0.936-0.113,1.701,0.228,2.268,0.965C450.817,140.709,451.214,141.842,451.384,143.402z M526.134,490.477v3.996h-378v-3.996h19.162
	c-5.017-3.289-12.529-19.701-10.602-39.346c2.041-20.664,18.907-34.639,17.887-45.326c-1.021-10.658-8.192-18-8.192-18h13.351h0.595
	v0.001h1.757v-0.001h1.673h3.005h1.701h8.645c0,0-7.143,7.342-8.164,18c-1.021,10.688,15.817,24.662,17.858,45.326
	c1.956,19.645-5.584,36.057-10.602,39.346h130.589c0.524,0.495,1.455,0.861,3.067,1.049c2.92,0.34,2.721,0.254,6.236,0.254
	s9.156,0.454,13.493,1.503s7.569,0.255,9.865-1.219c0.666-0.431,0.966-0.993,1.005-1.587H526.134z M416.914,210.413
	c0.085-0.255,0.341-0.425,0.624-0.368l10.942,2.834c0.284,0.086,0.454,0.369,0.369,0.624c-0.029,0.17-0.17,0.311-0.312,0.368
	c-0.114,0.029-0.199,0.029-0.312,0l-10.942-2.834C417,210.98,416.858,210.697,416.914,210.413z M416.206,205.537
	c-0.113-0.255,0.057-0.538,0.312-0.623l10.743-3.572c0.255-0.083,0.539,0.057,0.624,0.313c0.113,0.255-0.057,0.566-0.312,0.652
	l-10.743,3.57C416.575,205.963,416.291,205.82,416.206,205.537z M421.507,191.932l-7.058,8.844c-0.057,0.085-0.142,0.142-0.227,0.17
	c-0.17,0.057-0.34,0.028-0.482-0.085c-0.227-0.17-0.255-0.511-0.085-0.708l7.058-8.845c0.17-0.228,0.51-0.255,0.737-0.085
	C421.649,191.393,421.705,191.732,421.507,191.932z M438.458,144.933c0.17,1.559,0.057,2.749-0.312,3.6
	c-0.397,0.879-1.048,1.361-1.984,1.474c-0.964,0.113-1.729-0.199-2.296-0.936c-0.567-0.765-0.964-1.899-1.134-3.458
	c-0.199-1.559-0.086-2.75,0.283-3.6c0.397-0.851,1.049-1.333,2.013-1.446c0.936-0.113,1.701,0.199,2.268,0.936
	C437.891,142.241,438.26,143.403,438.458,144.933z M423.888,175.15l5.386-1.361l-0.142,18.369l15.279-22.139l40.62-10.119
	c8.532,0,15.42-6.918,15.42-15.422l1.021-26.844c0-8.504-6.917-15.42-15.421-15.42l-62.164,6.264
	c-8.532,0-15.421,6.889-15.421,15.422v35.829C408.468,168.233,415.356,175.15,423.888,175.15z M454.106,145.331
	c-0.227,0.708-0.567,1.36-1.077,1.928c-0.482,0.538-1.021,0.963-1.672,1.303c-0.68,0.341-1.389,0.539-2.154,0.624
	c-0.822,0.114-1.587,0.085-2.296-0.085c-0.737-0.17-1.389-0.453-1.956-0.879c-0.624-0.425-1.105-0.963-1.474-1.615
	c-0.369-0.624-0.595-1.361-0.68-2.184c-0.113-0.821-0.057-1.587,0.142-2.295c0.227-0.709,0.567-1.333,1.049-1.928
	c0.482-0.511,1.02-0.936,1.701-1.275c0.652-0.341,1.389-0.539,2.154-0.624c0.822-0.113,1.587-0.085,2.296,0.085
	c0.709,0.17,1.361,0.453,1.928,0.851c0.624,0.453,1.134,0.991,1.502,1.644c0.368,0.653,0.622,1.387,0.707,2.182
	C454.361,143.828,454.304,144.593,454.106,145.331z M465.246,139.091l0.935,7.795l-1.191,0.142l-7.483-6.831l0.624,5.018
	c0.085,0.736,0.227,1.219,0.482,1.416c0.226,0.228,0.652,0.313,1.247,0.256l0.085,0.736l-3.912,0.482l-0.085-0.766
	c0.567-0.084,0.964-0.255,1.134-0.51c0.17-0.283,0.226-0.766,0.113-1.502l-0.709-6.123c-0.255-0.255-0.539-0.453-0.794-0.567
	c-0.255-0.141-0.538-0.198-0.85-0.198l-0.085-0.736l3.345-0.397l6.746,6.265l-0.51-4.365c-0.085-0.737-0.255-1.218-0.482-1.445
	c-0.226-0.199-0.652-0.284-1.247-0.256l-0.085-0.736l3.827-0.454l0.085,0.765c-0.538,0.086-0.907,0.256-1.048,0.508
	C465.218,137.872,465.161,138.354,465.246,139.091z M475.141,120.696c0.227-0.737,0.595-1.417,1.134-1.983
	c0.425-0.511,0.963-0.908,1.587-1.22c0.595-0.312,1.247-0.511,1.927-0.595c0.255-0.029,0.539-0.056,0.822-0.029
	c0.283,0,0.595,0.029,0.907,0.086c0.17,0.027,0.425,0.113,0.765,0.198c0.368,0.113,0.623,0.141,0.765,0.113
	c0.17,0,0.312-0.085,0.397-0.227c0.085-0.114,0.141-0.311,0.113-0.538l0.765-0.086l0.624,3.713l-0.794,0.086
	c-0.538-0.964-1.105-1.673-1.672-2.041c-0.538-0.396-1.19-0.566-1.899-0.482c-1.077,0.143-1.871,0.624-2.324,1.475
	c-0.482,0.85-0.623,2.012-0.425,3.515c0.17,1.531,0.567,2.636,1.162,3.345c0.624,0.737,1.417,1.02,2.438,0.907
	c0.822-0.114,1.417-0.397,1.757-0.851c0.369-0.453,0.482-1.105,0.397-1.955c-0.085-0.539-0.198-0.908-0.34-1.078
	c-0.17-0.17-0.425-0.227-0.822-0.227l-0.369,0.029l-0.085-0.738l5.074-0.623l0.085,0.766l-0.369,0.057
	c-0.369,0.084-0.596,0.198-0.706,0.368c-0.114,0.171-0.142,0.568-0.057,1.22l0.369,3.287l-0.737,0.086l-0.907-1.191
	c-0.539,0.51-1.106,0.907-1.701,1.191c-0.567,0.283-1.219,0.453-1.871,0.538c-0.737,0.085-1.474,0.057-2.154-0.113
	c-0.708-0.142-1.332-0.425-1.899-0.794c-0.596-0.426-1.077-0.964-1.446-1.645c-0.369-0.68-0.624-1.417-0.709-2.268
	C474.858,122.199,474.914,121.433,475.141,120.696z M464.962,118.882l6.746,6.264l-0.51-4.365c-0.085-0.736-0.255-1.19-0.482-1.417
	c-0.255-0.227-0.652-0.312-1.247-0.255l-0.085-0.737l3.827-0.454l0.085,0.738c-0.539,0.084-0.907,0.254-1.078,0.537
	c-0.17,0.255-0.198,0.765-0.113,1.474l0.935,7.824l-1.219,0.141l-7.455-6.859l0.595,5.018c0.085,0.736,0.255,1.218,0.482,1.445
	c0.256,0.199,0.681,0.283,1.276,0.256l0.085,0.736l-3.912,0.453l-0.113-0.736c0.595-0.085,0.964-0.255,1.134-0.539
	c0.199-0.254,0.227-0.765,0.142-1.502l-0.737-6.094c-0.255-0.284-0.51-0.483-0.765-0.596c-0.284-0.113-0.567-0.17-0.879-0.17
	l-0.085-0.766L464.962,118.882z M460.683,119.393l0.085,0.766l-0.397,0.085c-0.369,0.057-0.596,0.17-0.709,0.34
	c-0.114,0.199-0.142,0.595-0.057,1.22l0.709,5.924c0.056,0.623,0.17,1.02,0.34,1.162c0.141,0.141,0.397,0.198,0.765,0.198
	l0.425-0.028l0.085,0.737l-5.329,0.651l-0.085-0.766l0.425-0.084c0.34-0.057,0.595-0.17,0.68-0.34
	c0.114-0.171,0.142-0.596,0.057-1.22l-0.709-5.925c-0.057-0.623-0.17-1.019-0.312-1.162c-0.17-0.14-0.425-0.197-0.765-0.197
	l-0.452,0.027l-0.085-0.736L460.683,119.393z M445.119,121.262l3.203,6.378l1.502-6.945l4.422-0.538l0.085,0.766l-0.425,0.084
	c-0.34,0.056-0.567,0.17-0.68,0.369c-0.142,0.169-0.142,0.566-0.085,1.19l0.709,5.925c0.085,0.623,0.198,1.019,0.34,1.162
	c0.17,0.141,0.425,0.198,0.794,0.198l0.397-0.028l0.113,0.766l-5.188,0.595l-0.113-0.737l0.369-0.084
	c0.369-0.056,0.596-0.199,0.709-0.369c0.114-0.169,0.142-0.566,0.057-1.19l-0.879-7.342l-2.211,9.978l-0.68,0.086l-4.536-9.185
	l0.822,6.974c0.085,0.736,0.255,1.219,0.482,1.416c0.227,0.227,0.595,0.312,1.162,0.284l0.083,0.737l-3.713,0.453l-0.085-0.766
	c0.567-0.084,0.907-0.255,1.077-0.538c0.17-0.255,0.227-0.738,0.142-1.474l-0.68-5.557c-0.056-0.623-0.17-1.019-0.34-1.162
	c-0.141-0.141-0.397-0.226-0.765-0.198l-0.425,0.028l-0.113-0.766L445.119,121.262z M441.321,144.593
	c0.085,0.794,0.028,1.56-0.17,2.268c-0.227,0.708-0.567,1.36-1.077,1.928c-0.453,0.538-1.021,0.991-1.672,1.304
	c-0.652,0.34-1.389,0.566-2.154,0.652c-0.822,0.084-1.587,0.057-2.296-0.113c-0.737-0.17-1.389-0.454-1.956-0.879
	c-0.624-0.426-1.105-0.964-1.474-1.588c-0.34-0.652-0.595-1.389-0.68-2.211c-0.085-0.822-0.057-1.588,0.17-2.296
	c0.198-0.681,0.539-1.333,1.021-1.899c0.482-0.539,1.049-0.964,1.701-1.304c0.652-0.312,1.389-0.538,2.183-0.624
	c0.794-0.085,1.559-0.057,2.268,0.113c0.709,0.143,1.361,0.426,1.956,0.851c0.595,0.425,1.105,0.992,1.474,1.645
	C440.981,143.063,441.236,143.799,441.321,144.593z M428.821,126.224c0.198-0.709,0.567-1.361,1.049-1.928
	c0.453-0.539,1.021-0.965,1.701-1.275c0.652-0.341,1.361-0.539,2.154-0.652c0.822-0.086,1.587-0.057,2.296,0.113
	c0.709,0.17,1.361,0.453,1.928,0.85c0.624,0.454,1.134,0.992,1.502,1.645c0.369,0.652,0.595,1.361,0.709,2.154
	c0.085,0.794,0.028,1.56-0.17,2.268c-0.227,0.737-0.595,1.361-1.077,1.957c-0.482,0.538-1.049,0.963-1.701,1.303
	c-0.652,0.313-1.361,0.539-2.154,0.624c-0.794,0.113-1.559,0.057-2.296-0.113c-0.709-0.142-1.361-0.454-1.928-0.851
	c-0.625-0.454-1.106-0.993-1.475-1.616c-0.369-0.652-0.595-1.361-0.68-2.184C428.566,127.698,428.622,126.932,428.821,126.224z
	 M427.998,147.115c0.227,0.369,0.369,0.794,0.428,1.275c0.113,0.992-0.142,1.814-0.709,2.495c-0.595,0.651-1.474,1.047-2.608,1.19
	c-0.369,0.028-0.737,0.028-1.134,0c-0.369-0.056-0.794-0.142-1.276-0.283c-0.085-0.029-0.198-0.057-0.34-0.086
	c-0.284-0.114-0.482-0.141-0.567-0.141c-0.142,0.027-0.255,0.113-0.34,0.283c-0.085,0.142-0.114,0.368-0.142,0.68l-0.765,0.086
	l-0.624-4.252l0.737-0.086c0.567,1.078,1.19,1.9,1.899,2.381c0.737,0.511,1.531,0.709,2.381,0.596
	c0.539-0.056,0.936-0.254,1.219-0.566c0.283-0.339,0.397-0.737,0.34-1.191c-0.029-0.397-0.199-0.708-0.482-0.936
	c-0.283-0.227-0.765-0.453-1.389-0.623c-0.199-0.057-0.511-0.114-0.879-0.227c-1.021-0.256-1.729-0.483-2.183-0.681
	c-0.567-0.255-1.02-0.568-1.332-0.936c-0.312-0.368-0.482-0.821-0.539-1.332c-0.114-0.907,0.113-1.673,0.68-2.324
	c0.595-0.652,1.389-1.049,2.381-1.163c0.567-0.084,1.162-0.057,1.814,0.086c0.652,0.141,0.992,0.198,1.077,0.198
	c0.113-0.028,0.198-0.085,0.283-0.198c0.085-0.086,0.142-0.255,0.227-0.482l0.652-0.085l0.453,3.401l-0.68,0.057
	c-0.426-0.822-0.936-1.417-1.531-1.785c-0.595-0.369-1.276-0.482-2.041-0.396c-0.539,0.057-0.964,0.227-1.276,0.51
	c-0.283,0.283-0.397,0.653-0.34,1.049c0.057,0.595,0.964,1.105,2.665,1.531l0.057,0.027c0.907,0.199,1.559,0.369,1.956,0.511
	c0.369,0.141,0.709,0.283,0.964,0.454C427.431,146.435,427.771,146.747,427.998,147.115z M417.511,127.586
	c0.198-0.709,0.538-1.36,1.02-1.956c0.425-0.51,0.936-0.935,1.531-1.248c0.567-0.311,1.191-0.51,1.871-0.595
	c0.283-0.028,0.567-0.056,0.85-0.028c0.255,0.028,0.539,0.056,0.794,0.113c0.057,0.029,0.17,0.056,0.34,0.113
	c0.539,0.17,0.907,0.226,1.049,0.199c0.171,0,0.284-0.086,0.369-0.227c0.085-0.115,0.113-0.313,0.085-0.511l0.737-0.085l0.68,4.28
	l-0.709,0.085c-0.482-1.19-0.992-2.041-1.559-2.523c-0.539-0.482-1.219-0.68-2.013-0.595c-0.935,0.113-1.616,0.595-1.984,1.417
	c-0.397,0.823-0.51,2.013-0.312,3.516c0.17,1.53,0.539,2.664,1.049,3.373c0.539,0.68,1.276,0.992,2.183,0.879
	c0.765-0.085,1.389-0.425,1.899-1.021c0.511-0.566,0.822-1.359,0.964-2.324l0.935-0.113c-0.085,1.275-0.482,2.267-1.191,3.033
	c-0.68,0.737-1.644,1.191-2.891,1.361c-0.709,0.056-1.389,0.027-2.012-0.141c-0.652-0.17-1.247-0.454-1.786-0.85
	c-0.567-0.455-1.02-0.993-1.389-1.645c-0.34-0.652-0.567-1.388-0.652-2.239C417.256,129.031,417.313,128.294,417.511,127.586z
	 M384.962,252.023c0.088-0.027,0.18-0.056,0.262-0.082l0.567,1.673l-4.337,1.445c0-0.766,0-1.219,0.085-1.389
	c0.049-0.086,0.124-0.168,0.207-0.249c0.033-0.032,0.07-0.063,0.107-0.094c0.052-0.043,0.111-0.086,0.171-0.127
	C382.747,252.702,383.998,252.323,384.962,252.023z M360.108,224.274c-1.53-4.593,0.964-9.525,5.528-11.056l10.206-3.401
	l0.002-0.001l17.933-15.243v0l-0.134-0.403l4.932-3.685l4.57,13.719l0.901-0.31c3.089-1.021,6.434,0.651,7.484,3.742
	c1.021,3.089-0.652,6.435-3.77,7.484l-0.879,0.283l-1.838-5.501l7.053,21.176l-6.066,0.283l-1.108-3.326l0.994,2.986l-23.528-0.228
	l0.529-0.194l-4.298,1.441l1.474,4.422c-0.369,0.029-0.482,0.029-0.482,0.029s-0.198,0-1.757,0.566
	c-1.446,0.54-1.843,0.681-4.139,1.645l-1.531-4.564c-4.479,1.248-9.184-1.162-10.658-5.612L360.108,224.274z M431.542,128.152
	c-0.17-1.531-0.086-2.751,0.311-3.601c0.397-0.85,1.049-1.333,2.013-1.446c0.936-0.113,1.673,0.2,2.268,0.936
	c0.567,0.738,0.964,1.9,1.134,3.43c0.198,1.56,0.085,2.75-0.312,3.629c-0.368,0.85-1.048,1.332-1.984,1.445
	c-0.936,0.113-1.701-0.199-2.268-0.936C432.109,130.873,431.74,129.711,431.542,128.152z"></path>
<path id="color_x5F_2" fill="#FBC02D" d="M207.549,192.328V174.64h0.906h0.001v17.688c1.417,0.227,2.523,1.417,2.523,2.92
	c-0.001,0.312-0.086,0.623-0.171,0.906l28.63,11.793l-0.34,0.85h-0.001l-28.714-11.82l0,0c-0.227,0.34-0.567,0.624-0.935,0.822
	l9.666,20.693l-0.397,0.17l0,0l-9.666-20.664h-0.001c-0.34,0.141-0.679,0.197-1.048,0.197l0,0c-1.616,0-2.948-1.332-2.948-2.947
	C205.054,193.773,206.131,192.555,207.549,192.328z M172.795,196.324c0-21.004,17.008-38.012,37.984-38.012
	c21.005,0.001,38.013,17.008,38.013,38.012c0,20.977-17.008,37.984-38.013,37.984C189.803,234.308,172.795,217.3,172.795,196.324z
	 M210.779,162.308c-18.765,0-33.987,15.223-33.987,34.016c0,18.766,15.222,33.988,33.987,33.988
	c18.794,0.001,34.016-15.222,34.016-33.988C244.795,177.531,229.573,162.308,210.779,162.308z M261.86,451.387
	c-0.737,0.992-0.68,2.154,1.446,4.195c2.126,2.012,2.013,1.814,4.847,3.939c2.835,2.098,7.087,5.812,9.921,9.27
	c2.835,3.43,5.896,4.705,8.646,4.904c2.75,0.17,2.976-3.486,1.106-5.527c-1.843-2.07-4.593-2.778-5.84-6.123
	c-1.276-3.373,0.113-7.938-0.595-8.674c-0.523-0.544-0.989-0.335-2.095-0.596c-0.006-0.001-0.01-0.002-0.016-0.003
	c-0.002,0-0.003,0-0.005-0.001c-0.001,0-0.002,0-0.004-0.001c-0.387-0.093-0.85-0.243-1.423-0.504
	c-2.268-1.021-2.495-1.219-2.495-1.219l-5.924-5.387c0,0-0.964-0.539-1.928,0.057C266.537,446.313,262.597,450.395,261.86,451.387z
	 M322.833,342.706L322.833,342.706c0.013,0,0.025-0.001,0.038-0.001c0.357-0.012,0.718-0.022,1.081-0.031
	c0.165-0.004,0.332-0.007,0.498-0.011c0.207-0.004,0.415-0.008,0.624-0.012c0.206-0.003,0.413-0.006,0.62-0.008
	c0.158-0.002,0.316-0.003,0.474-0.004c0.244-0.002,0.489-0.004,0.734-0.005c0.065,0,0.131,0,0.197,0
	c2.593-0.005,5.231,0.052,7.708,0.139c0.216,0.008,0.432,0.015,0.645,0.023c0.078,0.003,0.156,0.006,0.234,0.009
	c6.397,0.245,11.498,0.667,11.498,0.667c-0.113-14.938-2.013-29.083-4.649-41.668c-0.935-0.276-1.924-0.598-2.936-0.942
	c-0.292-0.099-0.59-0.204-0.888-0.309c-0.532-0.187-1.068-0.38-1.616-0.584c-0.383-0.143-0.77-0.29-1.161-0.441
	c-0.694-0.269-1.399-0.553-2.112-0.847c-0.09-0.037-0.18-0.074-0.27-0.111c-0.005-0.002-0.011-0.004-0.016-0.007
	c-0.189-0.079-0.374-0.152-0.564-0.232c-2.022-0.855-4.1-1.808-6.197-2.852c-0.074-0.037-0.148-0.076-0.221-0.113
	c-0.219-0.11-0.438-0.225-0.657-0.336c-0.694-0.354-1.388-0.712-2.082-1.085c-0.735-0.395-1.469-0.793-2.201-1.209
	c-0.018-0.01-0.036-0.019-0.053-0.029c-3.632-2.078-6.405-5.339-8.335-9.042c-0.017-0.032-0.035-0.064-0.051-0.096
	c-0.038-0.073-0.079-0.144-0.116-0.217c-0.435-0.862-0.821-1.747-1.166-2.645c-0.032-0.083-0.061-0.167-0.093-0.251
	c-0.115-0.307-0.227-0.615-0.331-0.924c-0.079-0.235-0.154-0.47-0.227-0.706c-0.055-0.178-0.109-0.357-0.161-0.535
	c-0.04-0.138-0.076-0.277-0.114-0.415c0,0,0,0,0-0.001c-0.059-0.216-0.121-0.432-0.175-0.648l0,0
	c-0.075-0.3-0.142-0.599-0.207-0.899c-0.021-0.095-0.044-0.19-0.064-0.285c-0.051-0.246-0.093-0.492-0.138-0.738
	c-0.033-0.183-0.069-0.367-0.099-0.55c-0.033-0.202-0.058-0.402-0.087-0.603c-0.032-0.226-0.065-0.452-0.091-0.677
	c-0.02-0.174-0.035-0.347-0.052-0.52c-0.024-0.249-0.048-0.497-0.066-0.743c-0.011-0.158-0.018-0.313-0.027-0.47
	c-0.014-0.259-0.026-0.517-0.032-0.773c-0.004-0.146-0.004-0.29-0.005-0.434c-0.002-0.262-0.001-0.522,0.005-0.78
	c0.003-0.139,0.009-0.277,0.014-0.414c0.011-0.258,0.025-0.513,0.043-0.766c0.01-0.134,0.021-0.268,0.034-0.401
	c0.023-0.25,0.05-0.497,0.082-0.742c0.017-0.131,0.034-0.262,0.054-0.392c0.035-0.238,0.075-0.471,0.118-0.703
	c0.025-0.131,0.049-0.263,0.076-0.392c0.047-0.222,0.098-0.438,0.152-0.654c0.033-0.131,0.065-0.262,0.101-0.39
	c0.057-0.206,0.12-0.405,0.184-0.604c0.042-0.129,0.082-0.259,0.126-0.384c0.067-0.188,0.14-0.37,0.213-0.551
	c0.051-0.126,0.1-0.254,0.154-0.377c0.076-0.171,0.159-0.334,0.241-0.498c0.061-0.121,0.119-0.245,0.183-0.362
	c0.086-0.157,0.18-0.304,0.272-0.453c0.069-0.112,0.135-0.229,0.208-0.336c0.103-0.152,0.215-0.292,0.325-0.435
	c0.07-0.091,0.137-0.189,0.21-0.276c0.187-0.223,0.384-0.434,0.59-0.63c1.33-1.265,2.698-2.219,4.065-2.923
	c0.008-0.004,0.016-0.007,0.023-0.011c0.326-0.167,0.651-0.32,0.976-0.459c0.076-0.032,0.151-0.058,0.227-0.089
	c0.254-0.104,0.508-0.205,0.76-0.292c0.14-0.048,0.278-0.087,0.417-0.13c0.186-0.058,0.373-0.119,0.558-0.168
	c0.192-0.051,0.381-0.092,0.572-0.135c0.13-0.029,0.26-0.062,0.389-0.087c0.228-0.044,0.454-0.078,0.68-0.11
	c0.09-0.013,0.18-0.029,0.27-0.04c0.243-0.03,0.484-0.05,0.723-0.066c0.072-0.005,0.145-0.013,0.217-0.017
	c0.238-0.013,0.473-0.016,0.707-0.016c0.075,0,0.15-0.002,0.224-0.001c0.212,0.003,0.42,0.015,0.628,0.028
	c0.1,0.006,0.201,0.011,0.3,0.019c0.164,0.014,0.325,0.034,0.487,0.054c0.148,0.018,0.296,0.036,0.441,0.059
	c0.096,0.015,0.19,0.034,0.284,0.051c0.221,0.04,0.438,0.083,0.651,0.133c0.007,0.002,0.014,0.004,0.021,0.005
	c0.446,0.105,0.88,0.226,1.289,0.37c-2.013-4.648-3.317-7.199-3.317-7.199c-0.474,0.164-0.947,0.302-1.419,0.438
	c-0.097,0.028-0.196,0.064-0.293,0.091c-0.181,0.05-0.36,0.092-0.54,0.138c-0.403,0.104-0.804,0.202-1.203,0.287
	c-0.219,0.047-0.435,0.087-0.653,0.129c-0.355,0.068-0.708,0.131-1.058,0.186c-0.24,0.037-0.477,0.071-0.714,0.102
	c-0.322,0.043-0.64,0.081-0.957,0.113c-0.249,0.026-0.496,0.05-0.741,0.07c-0.293,0.024-0.583,0.042-0.87,0.058
	c-0.255,0.014-0.509,0.029-0.76,0.038c-0.26,0.009-0.513,0.012-0.767,0.016c-0.264,0.003-0.529,0.009-0.786,0.006
	c-0.21-0.002-0.411-0.009-0.616-0.014c-0.287-0.007-0.575-0.012-0.852-0.026c-0.092-0.004-0.178-0.012-0.268-0.017
	c-4.196-0.229-7.063-1.079-7.063-1.079c-4.91,3.876-8.236,11.152-10.45,20.079c-0.121,0.489-0.24,0.982-0.355,1.481
	c-0.081,0.35-0.161,0.701-0.238,1.056c-0.197,0.903-0.383,1.821-0.559,2.751c-0.035,0.182-0.068,0.366-0.102,0.549
	c-0.188,1.018-0.367,2.047-0.533,3.092c-0.026,0.166-0.05,0.335-0.076,0.503c-0.118,0.762-0.23,1.531-0.336,2.305
	c-0.018,0.127-0.035,0.255-0.052,0.383v0.001c-0.037,0.274-0.076,0.547-0.112,0.823c-0.087,0.674-0.17,1.351-0.249,2.032
	c-0.068,0.589-0.132,1.181-0.195,1.774c-0.019,0.177-0.038,0.354-0.056,0.531c-0.014,0.14-0.027,0.281-0.041,0.422
	c-0.028,0.284-0.056,0.568-0.083,0.852l0,0c-0.138,1.446-0.26,2.901-0.366,4.364c-0.011,0.147-0.023,0.294-0.033,0.441
	c-0.008,0.118-0.017,0.236-0.025,0.354c-0.112,1.614-0.205,3.235-0.283,4.856c-0.053,1.109-0.1,2.217-0.139,3.324
	c-0.052,1.491-0.093,2.979-0.122,4.457v0.001c-0.003,0.157-0.006,0.313-0.009,0.469c-0.008,0.467-0.015,0.932-0.021,1.397
	c-0.014,1.086-0.023,2.166-0.026,3.238c-0.061,20.946,1.904,38.896,1.904,38.896s17.583-6.192,28.465-7.126
	c0.082-0.007,0.164-0.015,0.246-0.021C321.953,342.752,322.403,342.722,322.833,342.706z M336.1,491.78
	c3.515,0,9.156,0.454,13.493,1.503c4.337,1.049,7.569,0.255,9.865-1.219c0.666-0.431,0.966-0.993,1.005-1.587
	c0.096-1.477-1.475-3.152-3.416-3.516c-2.721-0.539-5.329,0.51-8.362-1.417c-3.005-1.928-4.62-6.406-5.641-6.604
	c-0.73-0.125-0.99,0.318-2.034,0.775c-0.001,0-0.001,0.001-0.002,0.001c0,0-0.001,0-0.001,0.001
	c-0.157,0.069-0.341,0.137-0.538,0.204c-0.272,0.093-0.572,0.184-0.939,0.266c-2.409,0.511-2.721,0.511-2.721,0.511l-0.642-0.064
	l-6.302-0.629l-1.021-0.102c0,0-1.106,0.17-1.502,1.219c-0.425,1.049-1.134,6.69-1.134,7.909c0,0.559,0.164,1.044,0.59,1.446
	c0.525,0.495,1.456,0.861,3.067,1.049C332.784,491.866,332.585,491.78,336.1,491.78z M425.136,326.974h-13.012v61.001h13.012h0.991
	v-61.001H425.136z M490.522,364.162l5.281,23.642l11.168,0.17l5.641-24.15h-22.166l0,0L490.522,364.162z M490.446,363.824
	L490.446,363.824L490.446,363.824L490.446,363.824z"></path>
<path id="color_x5F_1" fill="#0984E3" d="M157.402,340.636c6.151,10.262,13.068,25.285,19.871,47.168h-1.786
	c-5.925-18.879-11.906-32.569-17.405-42.406c-0.142,0.539-0.482,0.624-1.134,0c-3.033-2.92-1.871-7.199-23.159-9.297
	c-21.288-2.098-11.027,1.928-19.701-6.379c-8.674-8.333,0.708-6.831-12.586-12.5c-13.294-5.67-14.4,1.588-21.033-10.176
	c-6.633-11.765,6.974-12.048-9.269-16.385c-16.242-4.338-16.894,5.443-21.288-1.275c-4.394-6.689-5.244-6.689-10.772-6.576
	c-5.499,0.113-7.682-2.382-9.014-5.33c-1.36-2.948,12.643-4.082,41.698,2.523c20.353,4.649,52.158,27.836,69.364,41.301
	c0.624,0.454,1.304,0.963,2.013,1.559c6.18,4.904,10.035,8.164,10.035,8.164C154.909,333.408,156.496,337.405,157.402,340.636z
	 M479.674,359.033c0,0,4.106,3.908,10.848,5.129l-0.076-0.338h6.86C495.888,362.436,490.984,358.665,479.674,359.033z
	 M206.953,315.352c-7.937,19.389-18.454,48.784-20.183,72.453h1.701c0.964-12.813,4.507-27.326,8.816-41.017
	c3.26-0.255,18.624-1.843,23.187-8.164c5.102-7.087-4.819-13.606-2.268-22.96c2.551-9.355,10.176-6.236,15.846-12.729
	c5.669-6.52-4.252-17.291,5.669-26.361c9.921-9.071,12.756-11.906,13.039-21.827c0.283-9.581,12.217-14.259,12.983-14.57
	C237.227,249.984,217.781,287.572,206.953,315.352z M187.734,324.422c0.34-7.228-0.539-17.603-2.976-28.572
	c-0.369-2.127-0.624-3.316-0.624-3.402l-0.17,0.057c-3.118-12.5-8.277-25.398-15.931-35.008
	c-20.098-25.199-40.422-31.691-40.422-31.691s-4.025,6.747,6.094,12.559c10.12,5.782,15.676,13.805,15.591,20.607
	c-0.085,6.774-8.759,20.834,0.737,31.72c9.496,10.913,4.365,13.096,6.406,31.833c2.013,18.736,23.017,15.59,28.743,11.707
	c0.425-0.283,0.794-0.822,1.106-1.531c0.255,16.243-0.992,35.744-5.953,55.104v0.001h1.757v0v-0.001
	C187.876,365.042,188.556,342.082,187.734,324.422z M438.798,330.489v57.486v0.086v0.085h10.998v-0.085v-57.572h-10.657H438.798z
	 M523.724,342.225c0,0-12.671,5.271-20.098,21.174C503.627,363.398,519.671,357.843,523.724,342.225z M505.696,363.824h6.917
	l-0.057,0.312c6.718-1.219,10.772-5.103,10.772-5.103C512.017,358.665,507.113,362.436,505.696,363.824z M479.277,342.225
	c4.054,15.618,20.126,21.174,20.126,21.174C491.976,347.496,479.277,342.225,479.277,342.225z M512.471,327.428
	c0,0-11.565,18.822-10.233,35.914C502.238,363.342,514.03,344.236,512.471,327.428z M500.792,363.342
	c1.304-17.092-10.261-35.914-10.261-35.914C488.972,344.236,500.792,363.342,500.792,363.342z M342.703,214.593
	c-3.537-0.897-4.537-0.563-3.787-4.23s0-3.917-2.167-3.75s-6.167-1.417-8.417-5.917s-2.417-3.5-7.083-4.5s-6.333-0.833-9.583,1.25
	c-3.25,2.083-4.417-1.667-8.667-1c-4.25,0.667,0.167,4.167-3.667,5.083c-3.833,0.917-5.833,2.25-4.167,5.083
	c1.667,2.833-0.417,3.583-1.667,5s3,2.583,0,4.25s-3.917,4-2.333,5.083c1.583,1.083,2.833,2.083,1.25,3.833
	c-1.583,1.75-0.667,6.583,2.167,7.5c2.833,0.917,1.75,1.5,2.167,3.583s0.833,2.177,2.917,2.839c1.462,0.464,2.519,2.242,4.831,3.435
	c-0.584-0.546-1.252-1.068-1.975-1.61c1.253,0.538,2.519,0.829,3.736,0.831c0.041,0,0.083,0,0.125,0
	c0.396-0.006,0.789-0.031,1.171-0.102c0.281-0.051,0.563-0.137,0.846-0.252c4.24-1.724,8.592-10.169,7.263-12.136
	c-1.417-2.098-2.041-3.885-1.417-6.379c0.223-0.924,0.753-1.609,1.376-1.93c1.038-0.534,2.335-0.055,2.902,2.017
	c0.819,2.877,1.268,3.626,2.014,3.332c0.107-0.042,0.22-0.105,0.341-0.187c0.964-0.624,0.397-5.925,0.397-5.925
	s0.133-0.819,1.255-1.482c0.675-0.397,1.706-0.739,3.279-0.813c2.027-0.11,5.43,0.125,9.328-0.313
	c-0.034,0.553-0.057,1.052-0.075,1.525c2.004-0.177,4.812,0.997,6.02,0.233C342.667,217.947,346.24,215.49,342.703,214.593z"></path>
</svg>