<?xml version="1.0" standalone="no"?>
<svg version="1.1" id="Layer_1" xmlns="http://www.w3.org/2000/svg" xmlns:xlink="http://www.w3.org/1999/xlink" x="0px" y="0px" viewBox="0 0 595.28 595.28" enable-background="new 0 0 595.28 595.28" xml:space="preserve">
<path id="color_x5F_5" fill="#FFD2BB" d="M241.364,174.916c1.264,3.986,3.921,13.967,1.717,22.425
	c-2.819,10.887-13.74,13.254-13.74,13.254l0.843,11.503c-1.069,1.782-5.314,4.861-9.948,4.504c-4.601-0.356-7.324-3.434-7.324-3.434
	l-1.685-10.435c-10.629-1.07-14.194-15.49-14.194-15.49c-6.513,0.811-9.948-10.207-6.967-13.513
	c0.259-0.291,0.551-0.551,0.875-0.777c0.065,0.68,0.13,1.069,0.13,1.069c4.44-2.009,9.527,0.777,9.235,5.929
	c-0.324,5.152,4.602,6.935,6.967,3.435c2.365-3.5,1.782-11.18,11.828-12.379C226.555,180.133,233.425,178.416,241.364,174.916
	L241.364,174.916z M241.008,302.528L241.008,302.528c-1.588-1.328-5.347-1.069-7.81-0.81c-2.495,0.26-2.916-1.847-2.333-3.986
	c0.616-2.139,0.195-6.481-3.176-7.777c0,0-1.004-0.292-1.199,0c-0.162,0.291-2.463,13.739-3.467,14.55
	c-1.005,0.843-34.868-5.023-37.104-9.042c-2.268-4.018-0.421-8.36-0.745-10.921l-25.179-6.935c0,0-6.643,26.184-1.555,31.726
	c5.088,5.573,71.518,9.494,75.05,8.879c3.564-0.584,8.166-0.194,8.523-3.759c0.356-3.532,1.523-3.046,0.81-6.351
	C242.11,304.828,242.628,303.856,241.008,302.528L241.008,302.528z M360.648,262.151L360.648,262.151
	c-0.972-3.727-6.74-8.166-6.74-8.166l-65.718-20.22l-2.722,27.932l48.77-0.777c0,0-1.296,1.426-2.528,3.467
	c-1.264,2.041-1.523,4.245,0.162,5.055s6.222-0.453,7.55,0.971c1.329,1.427-0.162,6.774-0.259,8.815
	c-0.097,2.041,0.616,3.37,3.273,2.722c2.69-0.616,1.685,0.552,3.305,0.908c1.588,0.356,2.754-0.259,5.055-0.356
	c2.301-0.098,3.727,1.328,7.55-0.972C362.171,279.228,361.62,265.91,360.648,262.151L360.648,262.151z M194.668,476.738
	L194.668,476.738h0.065h9.397l1.458-11.957h-10.921v11.957H194.668z M255.622,475.604L255.622,475.604l7.842-3.434l1.75-0.746
	v-9.105l-11.147,0.583L255.622,475.604z"></path>
<path id="color_x5F_4" fill="#00CEC9" d="M320.627,420.191v57.714h-2.657v-57.714H320.627z M221.947,180.625
	c-0.052,0.008-0.105,0.016-0.157,0.023C221.842,180.641,221.895,180.633,221.947,180.625z M227.404,179.6
	c-0.047,0.011-0.094,0.021-0.141,0.032C227.311,179.621,227.358,179.61,227.404,179.6z M335.209,420.191v57.714h2.69v-57.714
	H335.209z M352.481,420.191v57.714h2.69v-57.714H352.481z M201.302,193.736c-0.685-0.894-1.097-2.174-0.995-3.784
	c0.109-1.932-0.538-3.532-1.624-4.67c1.085,1.138,1.732,2.738,1.623,4.669C200.205,191.561,200.616,192.842,201.302,193.736z
	 M220.236,226.602c-4.601-0.356-7.324-3.434-7.324-3.434l-0.009-0.054l0.009,0.055C212.912,223.169,215.635,226.247,220.236,226.602
	c4.634,0.358,8.879-2.721,9.948-4.503l0-0.001C229.115,223.88,224.87,226.959,220.236,226.602z M471.474,313.383
	c22.165,1.945,15.911-20.448,1.361-25.665c-14.518-5.25-20.934-11.99-26.248-17.725c-5.314-5.77-11.05,7.842-6.254,20.382
	C440.332,290.376,449.308,311.439,471.474,313.383z M485.311,489.765l0.777,0l0,0H485.311z M212.483,220.513l-1.256-7.78
	c-10.629-1.07-14.194-15.49-14.194-15.49c-1.081,0.135-2.074-0.062-2.97-0.489c-4.455,12.985-9.36,27.272-15.051,41.858
	C194.355,222.332,212.264,220.534,212.483,220.513z M108.373,329.263c21.063-10.889,31.66-27.836,30.558-40.475
	c-1.069-12.087-21.841-17.531-39.794-2.366C82.028,300.875,87.31,340.183,108.373,329.263z M341.067,282.092
	c-1.525-0.082-1.981-1.237-1.904-2.864c0.001-0.028,0.005-0.063,0.007-0.092c-0.001,0.028-0.007,0.065-0.008,0.092
	C339.085,280.855,339.541,282.01,341.067,282.092z M184.105,314.844c0,0-2.139,6.448-1.231,35.061l-0.001,0l9.657,114.877h2.137
	v11.956h0.001h0.065h9.397l1.458-11.956h2.464c0,0,16.332-87.851,18.212-89.244c1.912-1.427,3.338-0.487,4.051,0.453
	s21.193,87.04,21.193,87.04l16.429-0.875l-8.523-117.953c0,0,0,0,0.001,0c0,0,1.393-53.889-2.106-79.716l27.868,0.356l3.014-32.697
	c-0.001-0.002-17.792-13.256-58.199-12.673l-0.651-8.878c0,0,10.921-2.367,13.74-13.254c2.204-8.458-0.453-18.439-1.717-22.425
	c-1.223,0.539-2.414,1.022-3.592,1.48c3.865-1.513,7.932-3.446,12.407-5.92c9.981-5.544,16.746-20.074,12.796-31.812
	c50.091-13.667,111.949-2.522,128.943,50.673c27.609,86.554,38.919,132.862,88.531,135.324
	c49.613,2.429,72.556,60.143,60.307,96.956c-10.273,30.819-40.251,56.767-50.876,65.231h-37.655l8.49-32.922h-12.001
	c1.799-2.119,5.015-1.655,10.024-3.793c5.152-2.203,3.532-6.481-1.329-6.189c-4.893,0.291-6.351,1.167-6.351-3.241
	c0-4.439,6.027-4.309,11.342-7.096c5.347-2.82,1.037-11.213-6.027-9.009c-7.097,2.204-7.55,2.657-4.148-4.861
	c3.403-7.55,3.241-17.434-5.314-20.091c-8.555-2.657-10.337,9.3-7.388,17.272c2.949,7.972,1.62,10.79-3.532,7.809
	c-5.185-2.948-9.592,2.236-5.898,6.352c3.662,4.147,12.379,7.68,10.175,10.337c-2.203,2.657-5.314-1.749-9.009-1.037
	c-3.694,0.746-1.912,6.676,4.439,9.754c2.37,1.169,3.688,2.554,4.413,3.793H429.12l7.648,32.922h-43.877v2.91l-3.208,0v-2.909
	H366.87l0-76.508h-60.63v76.509h-44.039l38.757-16.851c0,0,0.324-1.101-0.357-2.463c-0.713-1.329-1.717-2.334-5.282-2.722
	s-24.531,7.259-24.531,7.259l-3.402-1.587l-2.172,0.934v-9.1l-11.147,0.583l1.553,12.684l-1.682,0.732c0,0-2.722,3.142-2.009,5.152
	c0.162,0.487,1.361,3.209,2.333,5.379h-45.205c0-2.429,0-5.637-0.032-6.189c-0.162-2.106-3.921-3.921-3.921-3.921h-10.37h-4.278
	l-2.463,2.851c0,0-22.295,1.328-25.406,3.111c-2.787,1.588-3.5,2.819-3.694,4.147H75.138
	c-31.867-35.543-16.565-112.911,25.393-137.722c25.06-14.832,43.687-39.105,58.22-65.973c-1.637,8.001-3.913,22.258-0.311,26.18
	c5.088,5.573,71.518,9.494,75.05,8.879 M294.378,161.015c0.939,1.102,2.754,1.913,5.379,2.367c0.778,0.13,1.264,0.13,1.491,0
	c0.227-0.098,0.421-0.389,0.583-0.875c0.324-0.81,0.681-1.653,1.037-2.496c0.357-0.875,0.843-1.62,1.394-2.269
	c0.551-0.68,1.231-1.166,2.009-1.523c0.81-0.357,1.782-0.454,2.949-0.227c1.523,0.26,2.528,0.875,3.046,1.879
	c0.519,1.005,0.713,2.01,0.519,3.047c-0.162,1.004-0.615,1.912-1.296,2.689c-0.68,0.81-1.523,1.556-2.495,2.237
	c-0.94,0.712-1.976,1.393-3.046,2.073c-1.07,0.68-2.107,1.393-3.079,2.139c-0.972,0.713-1.782,1.49-2.495,2.332
	c-0.68,0.844-1.134,1.75-1.296,2.755c-0.195,1.038,0.032,1.976,0.648,2.787c0.616,0.843,1.75,1.427,3.435,1.717l2.333,0.39
	c0.357,0.065,0.648,0.032,0.875-0.065c0.259-0.065,0.583-0.39,0.972-0.94c1.004-1.458,2.365-2.722,4.115-3.856
	c1.718-1.135,3.468-2.301,5.25-3.565c1.75-1.264,3.37-2.69,4.796-4.245c1.426-1.588,2.333-3.532,2.722-5.801
	c0.259-1.523,0.227-3.046-0.065-4.537c-0.291-1.49-0.907-2.85-1.847-4.113s-2.236-2.333-3.889-3.273
	c-1.653-0.908-3.694-1.588-6.157-2.01c-2.074-0.357-4.148-0.486-6.254-0.389c-2.074,0.129-3.986,0.518-5.736,1.199
	c-1.749,0.681-3.208,1.686-4.439,2.981c-1.232,1.297-2.009,2.949-2.366,4.99C293.147,158.358,293.438,159.881,294.378,161.015z
	 M305.139,186.033c-0.617-1.039-1.849-1.72-3.663-2.01c-1.199-0.195-2.236-0.195-3.143,0.065c-0.875,0.226-1.62,0.648-2.203,1.23
	c-0.583,0.551-1.069,1.232-1.426,2.01c-0.356,0.777-0.583,1.621-0.745,2.463c-0.259,1.523-0.13,2.851,0.389,3.986
	c0.519,1.135,1.75,1.88,3.694,2.204c1.329,0.228,2.463,0.163,3.403-0.194c0.94-0.356,1.685-0.842,2.268-1.49
	c0.551-0.615,1.005-1.33,1.329-2.139c0.292-0.778,0.518-1.523,0.648-2.204C305.949,188.334,305.787,187.038,305.139,186.033z
	 M302.123,479.718h-15.36l-6.189,6.288h21.549V479.718z M322.021,319.605c-0.972,2.494-9.495,1.782-9.495,1.782l-0.81,14.647
	c0,0,24.79,8.426,45.205,8.523v0h-0.003v-12.703c0,0-2.398,1.264-4.893,0c-2.462-1.233-0.421-4.246-0.421-4.246
	s-3.662,1.491-5.606-1.328c-1.944-2.852,2.139-5.152,2.139-5.152s-3.727-1.523-2.949-5.412c0.81-3.92,4.991-2.398,6.125-0.712
	c1.166,1.685,2.754,1.329,2.754,1.329s-0.356-4.181,1.426-4.796c1.783-0.616,3.37-0.616,4.537,1.23v-33.486
	c1.924-4.612,1.412-14.059,0.618-17.13c-0.972-3.727-6.74-8.166-6.74-8.166l-65.718-20.22l-2.722,27.932l48.77-0.777
	c0,0-1.296,1.426-2.528,3.467c-1.264,2.041-1.523,4.245,0.162,5.055s6.222-0.453,7.55,0.971c1.229,1.32,0.048,5.989-0.214,8.298
	c0.204-1.932,1.079-5.461,0.635-7.358h-24.531l-0.94,30.656c0,0,7.486,0.551,4.278,6.935c0,0,4.634,0.194,4.764,3.403
	c0.13,3.175-4.245,3.628-4.245,3.628S322.993,317.142,322.021,319.605z M330.641,358.427l31.789,49.548h4.439
	C366.87,407.975,383.915,356.806,330.641,358.427z M234.905,177.448c0.712-0.247,1.43-0.507,2.155-0.783
	C236.337,176.938,235.616,177.203,234.905,177.448z M345.74,282.858c0.199,0.045,0.391,0.074,0.579,0.091
	C346.131,282.932,345.939,282.902,345.74,282.858c-1.214-0.267-0.952-0.991-1.881-1.076
	C344.787,281.867,344.525,282.591,345.74,282.858z M263.464,472.17l-0.546,0.239l0.547-0.238l0.38-0.164L263.464,472.17z
	 M233.212,178.012c-0.229,0.073-0.458,0.146-0.686,0.217C232.754,178.159,232.984,178.085,233.212,178.012z M354,282.842
	c-0.842-0.043-1.576-0.24-2.376-0.315C352.423,282.602,353.158,282.799,354,282.842z M346.617,282.958
	c0.086,0.002,0.174,0.01,0.259,0.008C346.791,282.968,346.703,282.96,346.617,282.958z M354.43,282.849
	c-0.037,0.001-0.072-0.002-0.108-0.002C354.358,282.847,354.393,282.85,354.43,282.849z"></path>
<path id="color_x5F_3" fill="#E84393" d="M460.715,453.926l-8.49,32.922h-15.457l-7.648-32.922H460.715z M182.873,349.905
	L182.873,349.905l9.657,114.877h15.522c0,0,16.332-87.851,18.212-89.244c1.912-1.427,3.338-0.487,4.051,0.453
	s21.193,87.04,21.193,87.04l16.429-0.875L259.414,344.2C232.777,353.631,182.873,349.905,182.873,349.905L182.873,349.905z
	 M356.921,344.557c-20.415-0.097-45.205-8.523-45.205-8.523l0.81-14.647c0,0,8.523,0.712,9.495-1.782
	c0.972-2.463-2.852-3.63-2.852-3.63s4.375-0.453,4.245-3.628c-0.13-3.209-4.764-3.403-4.764-3.403
	c3.208-6.384-4.278-6.935-4.278-6.935l0.94-30.656h24.531c0.486,2.074-0.616,6.125-0.681,7.875c-0.097,2.041,0.616,3.37,3.273,2.722
	c2.69-0.616,1.685,0.552,3.305,0.908c1.588,0.356,2.754-0.259,5.055-0.356c2.301-0.098,3.727,1.328,7.55-0.972
	c0.68-0.421,1.264-1.231,1.685-2.269v33.506c-1.167-1.846-2.754-1.846-4.537-1.23c-1.782,0.615-1.426,4.796-1.426,4.796
	s-1.588,0.356-2.754-1.329c-1.134-1.686-5.315-3.208-6.125,0.712c-0.778,3.889,2.949,5.412,2.949,5.412s-4.083,2.3-2.139,5.152
	c1.944,2.819,5.606,1.328,5.606,1.328s-2.041,3.013,0.421,4.246c2.495,1.264,4.893,0,4.893,0v12.703L356.921,344.557
	L356.921,344.557z"></path>
<path id="color_x5F_2" fill="#FBC02D" d="M324.159,157.028c0.292,1.491,0.324,3.014,0.065,4.537
	c-0.389,2.269-1.296,4.213-2.722,5.801c-1.426,1.555-3.046,2.981-4.796,4.245c-1.782,1.264-3.532,2.43-5.25,3.565
	c-1.75,1.134-3.111,2.398-4.115,3.856c-0.389,0.55-0.713,0.875-0.972,0.94c-0.227,0.097-0.518,0.13-0.875,0.065l-2.333-0.39
	c-1.685-0.29-2.819-0.874-3.435-1.717c-0.616-0.811-0.843-1.749-0.648-2.787c0.162-1.005,0.616-1.911,1.296-2.755
	c0.713-0.842,1.523-1.619,2.495-2.332c0.972-0.746,2.009-1.459,3.079-2.139s2.106-1.361,3.046-2.073
	c0.972-0.681,1.815-1.427,2.495-2.237c0.681-0.777,1.134-1.685,1.296-2.689c0.194-1.037,0-2.042-0.519-3.047
	c-0.518-1.004-1.523-1.619-3.046-1.879c-1.167-0.227-2.139-0.13-2.949,0.227c-0.778,0.357-1.458,0.843-2.009,1.523
	c-0.551,0.649-1.037,1.394-1.394,2.269c-0.356,0.843-0.713,1.686-1.037,2.496c-0.162,0.486-0.356,0.777-0.583,0.875
	c-0.227,0.13-0.713,0.13-1.491,0c-2.625-0.454-4.44-1.265-5.379-2.367c-0.94-1.134-1.231-2.657-0.907-4.602
	c0.357-2.041,1.134-3.693,2.366-4.99c1.231-1.295,2.69-2.3,4.439-2.981c1.75-0.681,3.662-1.07,5.736-1.199
	c2.106-0.097,4.18,0.032,6.254,0.389c2.463,0.422,4.504,1.102,6.157,2.01c1.653,0.94,2.949,2.01,3.889,3.273
	S323.868,155.538,324.159,157.028L324.159,157.028z M301.476,184.023L301.476,184.023c-1.199-0.195-2.236-0.195-3.143,0.065
	c-0.875,0.226-1.62,0.648-2.203,1.23c-0.583,0.551-1.069,1.232-1.426,2.01c-0.356,0.777-0.583,1.621-0.745,2.463
	c-0.259,1.523-0.13,2.851,0.389,3.986s1.75,1.88,3.694,2.204c1.329,0.228,2.463,0.163,3.403-0.194
	c0.94-0.356,1.685-0.842,2.268-1.49c0.551-0.615,1.005-1.33,1.329-2.139c0.292-0.778,0.518-1.523,0.648-2.204
	c0.259-1.62,0.097-2.916-0.551-3.921C304.522,184.994,303.29,184.313,301.476,184.023L301.476,184.023z M456.373,424.598
	L456.373,424.598c-7.097,2.204-7.55,2.657-4.148-4.861c3.403-7.55,3.241-17.434-5.314-20.091s-10.337,9.3-7.388,17.272
	s1.62,10.79-3.532,7.809c-5.185-2.948-9.592,2.236-5.898,6.352c3.662,4.147,12.379,7.68,10.175,10.337
	c-2.203,2.657-5.314-1.749-9.009-1.037c-3.694,0.746-1.912,6.676,4.439,9.754c2.43,1.199,3.759,2.625,4.472,3.888h8.458
	c1.782-2.235,5.023-1.717,10.11-3.888c5.152-2.203,3.532-6.481-1.329-6.189c-4.893,0.291-6.351,1.167-6.351-3.241
	c0-4.439,6.027-4.309,11.342-7.096C467.747,430.787,463.437,422.394,456.373,424.598L456.373,424.598z M229.99,219.473
	L229.99,219.473l0.194,2.626c-1.069,1.782-5.314,4.861-9.948,4.504c-4.601-0.356-7.324-3.434-7.324-3.434l-0.421-2.657
	c0,0-41.544,3.952-52.496,57.097l25.179,6.935c0.065,0.681,0,1.492-0.097,2.367l-0.194,5.508c0.162,1.005,0.454,2.041,1.037,3.046
	c2.236,4.019,36.099,9.885,37.104,9.042c1.004-0.811,3.305-14.259,3.467-14.55c0.194-0.292,1.199,0,1.199,0
	c3.37,1.296,3.792,5.638,3.176,7.777c-0.583,2.139-0.162,4.246,2.333,3.986c2.463-0.259,6.222-0.518,7.81,0.81
	c1.62,1.329,1.102,2.301,1.815,5.574c0.713,3.306-0.454,2.819-0.81,6.351c-0.356,3.565-4.958,3.175-8.523,3.759
	c-2.204,0.39-28.452-0.972-49.386-3.37c0,0-2.139,6.448-1.231,35.064c0.032,0.648,49.904,3.727,76.541-5.705
	c0,0,1.393-53.889-2.106-79.716l27.868,0.356l3.014-32.697C288.19,232.144,270.399,218.89,229.99,219.473L229.99,219.473z"></path>
<path id="color_x5F_1" fill="#0984E3" d="M259.317,132.108c10.175,12.184,2.819,31.726-9.138,38.368
	c-11.958,6.611-20.999,9.365-31.077,10.532c-10.046,1.199-9.462,8.879-11.828,12.379s-7.291,1.717-6.967-3.435
	c0.292-5.152-4.796-7.939-9.235-5.929c0,0-3.143-18.763,14.258-26.217c17.402-7.453,16.818-16.461,19.637-24.498
	C227.819,125.239,249.141,119.924,259.317,132.108L259.317,132.108z M280.574,486.006L280.574,486.006h21.549v-6.288h-15.36
	L280.574,486.006z M330.641,358.427L330.641,358.427l31.789,49.548h4.439C366.87,407.975,383.915,356.806,330.641,358.427
	L330.641,358.427z M392.891,486.848L392.891,486.848v2.917h103.697v-2.917H392.891z M366.87,486.848L366.87,486.848h22.813v2.917
	H61.969v-2.917h96.924c0.194-1.328,0.907-2.559,3.694-4.147c3.111-1.783,25.406-3.111,25.406-3.111l2.463-2.851h4.278h10.37
	c0,0,3.759,1.815,3.921,3.921c0.032,0.552,0.032,3.76,0.032,6.189h45.205c-0.972-2.17-2.171-4.892-2.333-5.379
	c-0.713-2.01,2.009-5.152,2.009-5.152l9.527-4.147l3.921-1.686l3.402,1.587c0,0,20.966-7.647,24.531-7.259s4.569,1.393,5.282,2.722
	c0.681,1.362,0.357,2.463,0.357,2.463l-38.757,16.851h44.039V410.34h60.63L366.87,486.848L366.87,486.848z M320.627,420.191
	L320.627,420.191h-2.657v57.714h2.657V420.191z M337.899,420.191L337.899,420.191h-2.69v57.714h2.69V420.191z M355.171,420.191
	L355.171,420.191h-2.69v57.714h2.69V420.191z"></path>
</svg>