<?xml version="1.0" standalone="no"?>
<svg version="1.1" id="Layer_1" xmlns="http://www.w3.org/2000/svg" xmlns:xlink="http://www.w3.org/1999/xlink" x="0px" y="0px" viewBox="0 0 595.28 595.28" enable-background="new 0 0 595.28 595.28" xml:space="preserve">
<path id="color_x5F_10" fill="#F6AE9B" d="M254.01,283.986l8.125,1.091l20.363,2.735c0,0,5.272-8.815,6.094-11.764
	c0.744-2.58,4.397-3.879,6.001-1.77c0.229,0.301,0.416,0.672,0.547,1.118c0.885,3.039-2.731,7.569-0.578,9.013
	c0.399,0.267,0.995,0.429,1.854,0.455c5.471,0.171,10.318-1.445,19.389-1.021c4.455,0.209,6.864,1.592,8.023,3.715
	c1.201,2.201,1.058,5.198,0.424,8.531c-0.021,0.097-0.054,0.188-0.079,0.283c-0.046,0.172-0.091,0.344-0.148,0.512
	c-0.077,0.228-0.162,0.454-0.255,0.679h0.002h14.285h0.737v-56.748v-0.001H304.58h-8.334h-3.997H254.01V283.986L254.01,283.986
	L254.01,283.986z"></path>
<path id="color_x5F_9" fill="#DD9289" d="M373.495,306.784c0.009-0.111-0.005-49.132-0.005-49.244l-26.554-12.8l-0.006,0.014
	l-4.904-2.381l-0.065-0.031l-3.167-1.527v56.748l0.306,0.081l0,0l-0.306-0.081v-0.001H323.77c-2.927,6.713-15.01,7.983-22.309,7.569
	c-11.395-0.624-10.545-0.822-17.49-2.948c-0.201-0.06-0.439-0.112-0.698-0.161c-0.088-0.017-0.189-0.031-0.283-0.046
	c-0.176-0.028-0.358-0.056-0.556-0.08c-0.145-0.018-0.296-0.034-0.452-0.049c-0.164-0.016-0.335-0.031-0.512-0.045
	c-0.198-0.016-0.396-0.031-0.608-0.044c-0.12-0.007-0.249-0.013-0.374-0.019c-3.749-0.191-9.509,0.01-15.903,0.31
	c-0.74,0.035-1.486,0.07-2.241,0.107l0.004,0.002l11.958,6.631h97.285l1.063-0.009c0.97,0,0.774-1.424,0.84-1.894l0.081-0.081
	L373.495,306.784z"></path>
<polygon id="color_x5F_8" fill="#B4A2CC" points="342.026,242.373 346.93,244.754 346.936,244.74 362.379,211.476 
	360.735,206.09 "></polygon>
<path id="color_x5F_7" fill="#FEBE40" d="M256.42,218.9c1.587,6.891,8.475,11.228,15.363,9.64
	c1.021-0.227,1.984-0.595,2.891-1.049c1.534,1.632,3.349,2.972,5.344,3.965c3.169,1.576,6.797,2.27,10.502,1.818l1.729,7.54h3.997
	l-1.956-8.419c5.754-1.956,10.035-6.577,11.764-12.104c0.992,0,2.013-0.085,3.033-0.312c2.888-0.665,5.313-2.27,7.052-4.409
	l2.714-5.926c0.282-1.623,0.258-3.326-0.127-5.029c-1.587-6.888-8.476-11.196-15.364-9.637c-0.168,0.056-0.336,0.111-0.504,0.139
	l-0.601-2.636l-36.283,8.334l0.595,2.636c-0.17,0.029-0.34,0.057-0.51,0.086c-5.465,1.259-9.293,5.857-9.869,11.142
	C256.039,216.056,256.098,217.477,256.42,218.9z M303.276,196.933c0.17-0.028,0.312-0.085,0.482-0.142
	c5.896-1.332,11.792,2.353,13.153,8.249c1.332,5.896-2.353,11.764-8.249,13.124c-0.707,0.171-1.443,0.254-2.149,0.284
	c0.504-2.515,0.503-5.17-0.118-7.825l-3.284-14.393L303.276,196.933z M266.483,205.353c0.17-0.028,0.34-0.057,0.51-0.085
	l3.118,13.691c0.21,0.886,0.5,1.735,0.825,2.564c0.642,1.639,1.475,3.168,2.492,4.523c-0.652,0.283-1.332,0.51-2.041,0.681
	c-5.896,1.36-11.792-2.354-13.153-8.221c-0.245-1.083-0.317-2.165-0.241-3.219C258.332,210.597,261.669,206.463,266.483,205.353z"></path>
<path id="color_x5F_6_2_" fill="#FFFFFF" d="M193.053,268.675c-0.005,0.001-0.011,0.002-0.016,0.003c0-0.385-0.009-0.8-0.017-1.206
	c-0.005-0.252-0.011-0.489-0.011-0.75c5.159-1.106,24.378-5.868,38.948-18.142l0,0c0.025,0.031,0.045,0.058,0.07,0.089
	c0.071,0.09,0.13,0.168,0.199,0.256c0.319,0.407,0.636,0.812,0.921,1.185c-0.002,0.002-0.004,0.003-0.006,0.005
	C217.907,262.855,197.842,267.677,193.053,268.675z M216.139,231.318c-0.198-0.177-0.391-0.346-0.584-0.514
	c-0.204-0.177-0.411-0.345-0.616-0.509c-0.129-0.103-0.255-0.212-0.387-0.308c-7.71,3.854-15.108,6.207-19.899,7.482
	c-0.099,0.474-0.176,0.958-0.257,1.442c-0.026,0.156-0.058,0.307-0.083,0.466c-0.009,0.055-0.02,0.106-0.029,0.162
	c0.001,0,0.001,0,0.002-0.001C199.275,238.261,207.551,235.711,216.139,231.318z M221.157,236.108
	c-0.412-0.437-0.828-0.852-1.261-1.286c-0.044-0.044-0.084-0.086-0.128-0.131c-0.001,0-0.001,0.001-0.002,0.001
	c-10.277,5.945-20.75,9.061-26.197,10.397h-0.001c-0.006,0.002-0.013,0.003-0.019,0.005c-0.057,0.681-0.113,1.36-0.17,2.013
	c0.002,0,0.004-0.001,0.005-0.001c0.002,0,0.004-0.001,0.005-0.001C198.779,245.828,210.109,242.568,221.157,236.108z
	 M228.839,244.727c-0.3-0.366-0.61-0.744-0.923-1.116c-0.1-0.12-0.193-0.241-0.296-0.359c-0.001,0.001-0.003,0.002-0.004,0.003
	c-13.407,9.749-29.25,13.943-34.692,15.163c-0.017,0.388-0.014,0.777-0.017,1.166c-0.002,0.263-0.011,0.526-0.011,0.789
	c0.004-0.001,0.01-0.002,0.014-0.003C198.112,259.231,214.791,254.978,228.839,244.727z M225.087,240.338
	c0.003-0.002,0.007-0.004,0.01-0.006c-0.425-0.481-0.879-0.963-1.304-1.445c-0.003,0.002-0.006,0.004-0.009,0.005
	c-12.017,7.791-25.136,11.475-30.69,12.751c-0.005,0.123-0.01,0.238-0.015,0.359c-0.008,0.201-0.017,0.396-0.025,0.593
	c-0.015,0.343-0.03,0.692-0.044,1.031c0.001,0,0.003-0.001,0.004-0.001C198.4,252.406,212.366,248.638,225.087,240.338z"></path>
<path id="color_x5F_5" fill="#FFD2BB" d="M247.909,166.605c0.011,0.009,0.022,0.017,0.032,0.026
	c3.494,2.795,9.074,4.594,9.074,4.594s3.232,22.677-2.495,28.8c-1.251,1.325-2.712,2.233-4.234,2.843
	c-5.469,2.194-11.71,0.534-11.725,0.53h-0.001l-1.049,7.991l0,0v0.002c0,0,3.162,4.47,3.178,7.273c0,0.05-0.011,0.094-0.013,0.142
	c0,0.001,0,0.001,0,0.002c-0.005,0.13-0.014,0.257-0.034,0.378c0,0.001,0,0.001,0,0.002c-0.011,0.065-0.026,0.127-0.042,0.19
	c0,0.001-0.001,0.002-0.001,0.003c-0.031,0.122-0.07,0.239-0.12,0.35c-0.001,0.002-0.001,0.003-0.002,0.005
	c-0.018,0.039-0.033,0.079-0.053,0.116c0,0.001-0.001,0.001-0.001,0.002c-0.078,0.142-0.172,0.273-0.289,0.39l0,0
	c-0.006,0.006-0.009,0.015-0.015,0.021c-2.183,2.098-6.775,1.36-9.496-2.126c-0.71-0.919-1.229-1.782-1.613-2.558l0,0
	c-0.13-0.262-0.243-0.513-0.344-0.753c0,0,0,0,0-0.001c-0.071-0.17-0.136-0.335-0.194-0.493v-0.001
	c-0.034-0.094-0.067-0.186-0.097-0.275v-0.001c-0.44-1.307-0.444-2.125-0.444-2.125v-0.001l0.737-11.479l0,0
	c0,0-0.016-0.004-5.754-1.475c-4.116-1.08-9.198-6.612-11.731-9.638c-0.991-1.184-1.592-1.985-1.592-1.985
	c-4.706,4.025-11.48,0.737-12.614-4.11c-1.162-4.847,2.806-11.707,7.285-8.957c1.079,0.662,2.021,1.652,2.834,2.767
	c0,0.003,0,0.006,0,0.008c0.498,0.678,0.945,1.405,1.345,2.136c0.044,0.08,0.085,0.161,0.127,0.241
	c0.13,0.244,0.255,0.488,0.374,0.731c0.087,0.179,0.173,0.357,0.254,0.533c0.05,0.108,0.098,0.214,0.146,0.32
	c1.055,2.356,1.58,4.348,1.58,4.348s12.104,0.821,19.928-4.536c7.824-5.386,14.797-16.781,14.797-16.781
	c0.124,0.241,0.277,0.476,0.444,0.708c0.106,0.148,0.231,0.291,0.353,0.436c0.066,0.078,0.128,0.158,0.198,0.235
	c0.155,0.171,0.324,0.337,0.497,0.502c0.044,0.042,0.087,0.084,0.132,0.126C247.475,166.245,247.687,166.427,247.909,166.605z
	 M236.351,475.126H222.83l0.878,8.901h12.161L236.351,475.126z M284.114,473.355l-7.733,0.785l-6.241,0.646l1.105,11.396h0.199
	h11.962L284.114,473.355z M262.343,302.156c0.755-0.037,1.501-0.072,2.241-0.107c6.402-0.305,12.157-0.503,15.903-0.31
	c0.125,0.006,0.254,0.012,0.374,0.019c0.212,0.013,0.411,0.028,0.608,0.044c0.176,0.014,0.347,0.029,0.512,0.045
	c0.155,0.016,0.308,0.032,0.452,0.049c0.198,0.024,0.38,0.051,0.556,0.08c0.094,0.015,0.196,0.029,0.283,0.046
	c0.259,0.048,0.496,0.101,0.698,0.161c6.945,2.126,6.095,2.324,17.49,2.948c0.512,0.029,1.02,0.044,1.526,0.058
	c0.146,0.004,0.295,0.013,0.441,0.016c0.453,0.008,0.9,0.003,1.347-0.001c0.211-0.002,0.424,0.001,0.633-0.004
	c0.431-0.01,0.856-0.031,1.28-0.052c0.218-0.011,0.438-0.018,0.654-0.032c0.414-0.027,0.821-0.063,1.227-0.101
	c0.218-0.02,0.438-0.039,0.653-0.062c0.398-0.043,0.789-0.095,1.178-0.15c0.213-0.03,0.425-0.059,0.635-0.092
	c0.383-0.06,0.759-0.127,1.132-0.198c0.202-0.039,0.403-0.078,0.602-0.12c0.37-0.078,0.734-0.161,1.092-0.25
	c0.185-0.046,0.366-0.094,0.547-0.143c0.36-0.097,0.714-0.198,1.059-0.306c0.16-0.05,0.315-0.104,0.472-0.157
	c0.353-0.119,0.702-0.24,1.037-0.371c0.124-0.048,0.242-0.101,0.364-0.151c0.354-0.146,0.705-0.295,1.038-0.455
	c0.066-0.032,0.126-0.066,0.191-0.099c2.48-1.233,4.316-2.87,5.201-4.9h0.002l0,0h-0.002c0.093-0.225,0.178-0.451,0.255-0.679
	c0.054-0.169,0.106-0.338,0.148-0.512c0.025-0.095,0.058-0.187,0.079-0.283c0.635-3.332,0.777-6.33-0.424-8.531
	c-1.159-2.123-3.569-3.505-8.022-3.714c-9.071-0.425-13.918,1.191-19.389,1.021c-0.86-0.027-1.456-0.188-1.855-0.456
	c-2.153-1.443,1.463-5.974,0.578-9.013c-0.131-0.446-0.318-0.817-0.547-1.118c-1.604-2.107-5.256-0.809-6,1.771
	c-0.822,2.948-6.094,11.764-6.094,11.764l-20.364-2.736l-8.125-1.091l0,0l-12.018-1.615l-11.679-22.961c0,0-1.007,0.687-2.62,1.715
	c-5.259,3.496-11.1,6.72-15.877,8.364c-0.081,0.029-0.16,0.055-0.24,0.083c-0.203,0.068-0.41,0.143-0.608,0.205
	c-0.826,0.265-1.611,0.472-2.339,0.604c0,0,6.238,14.907,12.21,24.387c2.337,3.71,4.633,6.589,6.499,7.418
	c0.013,0.006,0.032,0.01,0.045,0.016c0.175,0.076,0.379,0.145,0.601,0.21c0.048,0.014,0.094,0.029,0.145,0.043
	c0.247,0.067,0.518,0.128,0.815,0.184c0.039,0.007,0.08,0.014,0.12,0.022c5.529,0.992,19.019,0.223,31.363-0.405
	c0.644-0.033,1.286-0.065,1.922-0.097L262.343,302.156z"></path>
<path id="color_x5F_4" fill="#00CEC9" d="M420.518,446.836h-12.501l1.984-18.17h13.323L420.518,446.836z M365.242,410.496H386.7
	v-12.444h-22.252L365.242,410.496z M367.652,446.836H386.7v-18.17h-20.239L367.652,446.836z M366.376,427.731H386.7v-16.299h-21.373
	L366.376,427.731z M406.117,464.099h11.707l2.523-16.328h-12.444L406.117,464.099z M387.636,410.496h23.442l1.361-12.444h-24.803
	V410.496z M368.757,464.099H386.7v-16.328h-18.992L368.757,464.099z M428.058,398.052h-14.683l-1.361,12.444h14.116L428.058,398.052
	z M425.988,411.432H411.9l-1.786,16.299h13.351L425.988,411.432z M357.078,480.881l2.324,17.546h10.687l-1.162-17.546H357.078z
	 M346.193,398.052l1.644,12.444h16.498l-0.822-12.444H346.193z M365.44,427.73l-1.049-16.299H347.95l2.155,16.299H365.44z
	 M432.876,291.325c3.798,26.617,35.745,42.859,50.939,27.666c15.165-15.194-7.512-17.604-5.613-40.933s-0.482-43.88-21.175-32.344
	C445.831,251.951,429.078,264.707,432.876,291.325z M369.806,479.945H386.7v-14.91h-17.858L369.806,479.945z M366.716,446.836
	l-1.191-18.17h-15.307l2.41,18.17H366.716z M371.024,498.427h7.928c2.63-0.22,5.21-0.45,7.748-0.689v-16.857h-16.838
	L371.024,498.427z M387.635,427.73h21.543l1.786-16.299h-23.329V427.73z M368.87,479.945l-0.964-14.91h-12.898l1.956,14.91H368.87z
	 M367.849,464.1l-1.077-16.328h-14.031l2.154,16.328H367.849z M387.635,480.881v16.768c4.827-0.461,9.499-0.954,13.997-1.487
	l1.679-15.28H387.635z M201.021,235.558c0.102-0.034,0.208-0.071,0.31-0.106C201.229,235.487,201.123,235.524,201.021,235.558z
	 M204.262,174.287c-0.256-0.157-0.509-0.275-0.76-0.371C203.753,174.013,204.006,174.13,204.262,174.287z M227.916,243.611
	c0.313,0.372,0.623,0.75,0.923,1.116c0,0,0.001-0.001,0.001-0.001c-0.244-0.296-0.496-0.602-0.749-0.905
	C228.032,243.751,227.976,243.682,227.916,243.611c-0.099-0.119-0.192-0.24-0.295-0.358l0,0
	C227.723,243.371,227.816,243.491,227.916,243.611z M266.993,205.268c-0.17,0.028-0.34,0.057-0.51,0.085
	c-4.814,1.11-8.151,5.244-8.49,9.934c4.671,1.641,9.238,3.751,12.943,6.236c-0.325-0.829-0.615-1.678-0.825-2.564L266.993,205.268z
	 M225.088,240.339c0.003-0.002,0.007-0.004,0.01-0.006c-0.425-0.481-0.879-0.963-1.304-1.445l0,0
	c0.425,0.482,0.878,0.963,1.303,1.444c-0.003,0.002-0.007,0.004-0.01,0.006h0c0.869,0.977,1.713,1.954,2.529,2.917l0,0
	C226.8,242.292,225.957,241.316,225.088,240.339z M387.635,446.836h19.446l1.984-18.17h-21.43V446.836z M512.502,419.904
	c-0.142,41.27-24.582,63.486-95.624,74.212l15.46-99.692l-90.312-0.028c5.003,38.081,9.381,71.233,13.905,105.649
	c-14.543,0.847-30.301,1.469-47.353,1.894c-0.512,0.013-1.013,0.019-1.523,0.031c0.952-0.121,1.574-0.343,1.721-0.708
	c0.992-2.494-0.171-6.378-2.749-7.825c-2.58-1.417-9.893-0.623-12.898-0.623c-3.033,0-5.754-3.628-6.236-4.649
	c-0.482-0.991-1.276-1.983-1.276-1.983h-2.211l0.708-12.827l3.232-0.328c0,0.001-8.022-74.664-6.747-95.328
	c1.218-20.191-0.43-28.2-0.506-28.556c2.991-1.334,4.502-2.229,4.502-2.229l-6.236-38.125h93.232l1.063-0.009
	c0.97,0,0.774-1.424,0.84-1.894l0.081-0.081l-0.08-0.021c0.009-0.111-0.005-49.132-0.005-49.244l-26.554-12.8l15.443-33.264
	l-1.644-5.385l0.001-0.001l-38.438-3.969l-3.445,7.523c0.282-1.623,0.258-3.326-0.127-5.029c-1.587-6.888-8.476-11.196-15.364-9.637
	c-0.168,0.056-0.336,0.111-0.504,0.139l-0.601-2.636l-36.283,8.334l0.595,2.636c-0.17,0.029-0.34,0.057-0.51,0.086
	c-5.465,1.259-9.293,5.857-9.869,11.142c-0.151,1.377-0.092,2.798,0.23,4.221c1.587,6.891,8.475,11.228,15.363,9.64
	c1.021-0.227,1.984-0.595,2.891-1.049c1.534,1.632,3.349,2.972,5.344,3.965c3.169,1.576,6.797,2.27,10.502,1.818l1.729,7.54h0
	h-6.973c-1.541-3.026-3.334-6.296-5.258-9.357c-1.995-0.993-3.81-2.333-5.344-3.965c-0.907,0.454-1.87,0.822-2.891,1.049
	c-6.888,1.588-13.776-2.749-15.363-9.64c-0.322-1.424-0.381-2.844-0.231-4.221c-2.988-0.97-5.97-1.743-8.756-2.299
	c0,0.001,0.001,0.001,0.001,0.002c-3.855-0.766-7.37-1.105-9.918-0.994l-0.005,0.002v-0.002l1.049-7.991h0.001
	c0.015,0.004,6.256,1.664,11.725-0.53c1.522-0.61,2.983-1.518,4.234-2.843c5.727-6.123,2.495-28.8,2.495-28.8
	s-0.004-19.125-14.393-26.636c0.125-0.023,0.216-0.039,0.218-0.039c-0.389-0.208-0.792-0.395-1.204-0.566
	c-0.009-0.004-0.018-0.009-0.027-0.013c-0.225-0.093-0.46-0.169-0.691-0.252c-0.201-0.072-0.397-0.153-0.601-0.219
	c-0.865-0.272-1.731-0.513-2.599-0.726c-0.218-0.054-0.436-0.091-0.654-0.141c-0.63-0.144-1.261-0.286-1.892-0.399
	c-0.457-0.082-0.915-0.139-1.372-0.204c-0.381-0.054-0.761-0.119-1.142-0.161c-0.634-0.071-1.269-0.117-1.904-0.156
	c-0.196-0.012-0.391-0.033-0.587-0.042c-0.763-0.035-1.526-0.045-2.291-0.033c-0.063,0.001-0.125-0.001-0.188,0
	c-2.524,0.051-5.061,0.357-7.609,0.927c-4.491,0.876-8.267,2.444-11.31,4.546c-0.019,0.013-0.035,0.027-0.054,0.04l-4.049-1.705
	c0,0-10.917-13.167-28.167-1.417s-7.826,42.677-2,62.06c6.75,22.457-11.75,28.69-11.75,28.69s19.149-0.849,26.005-6
	c10.954-8.23,17.652-30.75,4.152-46.75s-3.574-31.083,5.26-29.417l3.172,3.364c-2.334,5.23-2.545,11.466-0.521,17.963
	c0.002,0.005,0.009,0.009,0.012,0.014c0,0,0,0,0,0c-2.816,1.171-4.699,5.757-3.852,9.29c1.134,4.847,7.908,8.135,12.614,4.11
	c-0.003,0.08,0.02,0.1,0.06,0.079c-0.004-0.005-0.003-0.004-0.006-0.008c0.16,0.211,0.71,0.925,1.538,1.914
	c2.533,3.026,7.615,8.558,11.731,9.638c5.738,1.471,5.754,1.475,5.754,1.475l-0.737,11.478c-0.021,0-20.526-0.42-28.431,11.905
	c-1.075,1.68-1.975,3.612-2.736,5.712l-0.002,0.002l-0.011,0.011c-0.028,0.078-0.051,0.163-0.079,0.242
	c-0.245,0.691-0.479,1.395-0.695,2.121c-0.012,0.041-0.025,0.081-0.036,0.121c-0.209,0.711-0.4,1.441-0.582,2.18
	c-0.049,0.197-0.098,0.393-0.144,0.591c-0.169,0.716-0.327,1.441-0.473,2.177c-0.043,0.217-0.083,0.437-0.124,0.656
	c-0.059,0.31-0.111,0.626-0.165,0.94c-0.018,0.108-0.039,0.214-0.057,0.323c-0.026,0.156-0.058,0.307-0.083,0.466
	c-0.009,0.055-0.02,0.106-0.029,0.162c0.001,0,0.001,0,0.002-0.001c-0.031,0.193-0.065,0.383-0.095,0.577
	c-0.112,0.728-0.213,1.464-0.307,2.202c-0.037,0.292-0.074,0.584-0.109,0.877c-0.075,0.63-0.143,1.261-0.207,1.894
	c5.448-1.335,15.921-4.451,26.198-10.396c-1.422-1.411-2.839-2.73-4.211-3.888c-0.204-0.177-0.411-0.345-0.616-0.509
	c-0.03-0.024-0.06-0.048-0.09-0.072c0.031,0.025,0.061,0.047,0.091,0.072c0.205,0.164,0.412,0.332,0.616,0.509
	c1.372,1.158,2.789,2.477,4.211,3.888c0,0,0,0-0.001,0c-10.277,5.945-20.75,9.061-26.197,10.397h-0.001
	c-0.006,0.002-0.013,0.003-0.019,0.005c-0.057,0.681-0.113,1.36-0.17,2.013c0.002,0,0.004-0.001,0.005-0.001
	c0.002,0,0.004-0.001,0.005-0.001c-0.018,0.219-0.038,0.44-0.055,0.659c-0.026,0.339-0.053,0.677-0.076,1.016
	c-0.045,0.656-0.083,1.31-0.118,1.963c-0.016,0.301-0.03,0.6-0.044,0.899c-0.001,0-0.002,0-0.002,0.001
	c-0.005,0.123-0.01,0.238-0.015,0.358c0-0.004,0-0.008,0.001-0.013c0,0.005,0,0.009-0.001,0.013
	c-0.008,0.201-0.017,0.396-0.025,0.593c-0.015,0.343-0.03,0.692-0.044,1.031c0.001,0,0.003-0.001,0.004-0.001
	c3.882-0.879,12.226-3.093,21.345-7.363c-9.118,4.27-17.463,6.485-21.346,7.364c-0.019,0.559-0.033,1.11-0.047,1.663
	c-0.005,0.203-0.01,0.406-0.014,0.608c-0.026,1.252-0.043,2.488-0.045,3.687c-0.002,0.263-0.011,0.526-0.011,0.789
	c0.004-0.001,0.01-0.002,0.014-0.003c0,0,0.001,0,0.001,0c0.005,2.52,0.05,4.881,0.108,7.007c0.001,0.032,0.001,0.063,0.001,0.095
	c0.008,0.406,0.017,0.821,0.017,1.206c0.005-0.001,0.011-0.002,0.016-0.003c4.789-0.998,24.854-5.82,40.088-18.56
	c0.002-0.002,0.003-0.003,0.005-0.004c0,0.001,0.001,0.001,0.001,0.002c-0.002,0.002-0.004,0.003-0.006,0.005c0,0,0,0,0-0.001
	c-15.233,12.738-35.299,17.56-40.087,18.558c0.023,0.796,0.047,1.562,0.07,2.271l0.043,1.223l0.014,0.392c-0.001,0-0.001,0-0.002,0
	l-0.014-0.393c0.003,0.101,0.006,0.207,0.009,0.305c0.001,0.029,0.002,0.06,0.003,0.089c0.008,0.263,0.015,0.543,0.023,0.834
	c0.087,3.304,0.178,8.413,0.242,14.311c0.016,1.359,0.032,2.758,0.047,4.187c-0.003,0-0.005-0.001-0.008-0.001
	c0.112,14.19,0.042,31.236-0.587,38.862c-0.992,12.019-4.139,16.469-4.139,20.268c0,0.926,2.732,2.002,7.144,3.041
	c0-0.001,0-0.007,0-0.007h0.03v0.001H195.9c0,0,0,0.006,0,0.007c-0.004,0.141-0.376,14.426,9.439,32.477
	c9.865,18.143,13.238,88.583,13.238,88.583h21.09l5.924-91.105l21.09,91.105l9.7-0.985l7.733-0.785l-7.733,0.785l-6.241,0.646
	l1.105,11.396h0.199c0,0-2.041,0.453-2.324,2.098c-0.255,1.644-1.588,8.333-1.219,10.431c0.368,2.126,2.324,2.864,4.705,2.92
	c2.381,0.056,4.961,0.141,8.901-0.851c2.76-0.691,14.387,1.004,21.548,1.271c-27.737,0.498-52.703-0.475-74.954-2.683
	c1.184-0.124,2.501-0.347,4.026-0.742c3.969-0.992,26.277,2.977,27.269,0.482c0.992-2.467-0.17-6.379-2.75-7.796
	s-9.921-0.623-12.926-0.623c-3.005,0-5.726-3.657-6.208-4.649c-0.482-0.992-1.276-2.012-1.276-2.012h-14.173
	c0,0-2.069,0.481-2.324,2.125c-0.255,1.616-1.587,8.334-1.219,10.432c0.144,0.817,0.533,1.423,1.09,1.867
	c-93.901-10.99-136.384-44.802-131.936-81.638c3.912-32.655,39.203-50.712,21.855-73.928
	c-17.348-23.215-23.187-51.448-19.417-78.548c9.014-64.743,95.017-153.638,191.424-164.835
	c99.893-11.621,185.896,37.135,170.674,97.512c-15.194,60.35-34.299,52.215-34.271,97.909
	C417.966,338.918,512.813,336.311,512.502,419.904z M222.83,475.126l0.878,8.901h12.161l0.482-8.901H222.83z M306.513,218.448
	c0.706-0.03,1.442-0.113,2.149-0.284c5.896-1.36,9.581-7.228,8.249-13.124c-1.361-5.896-7.257-9.581-13.153-8.249
	c-0.17,0.057-0.312,0.114-0.482,0.142l-0.165-0.703l3.284,14.393C307.016,213.278,307.017,215.933,306.513,218.448z
	 M223.784,238.892L223.784,238.892c-0.638-0.699-1.283-1.391-1.932-2.071C222.501,237.501,223.146,238.193,223.784,238.892z
	 M219.896,234.822c0.122,0.123,0.236,0.243,0.356,0.363C220.134,235.063,220.015,234.94,219.896,234.822
	c0.003,0.002,0.005,0.004,0.008,0.007C219.902,234.827,219.899,234.824,219.896,234.822c-0.043-0.044-0.083-0.086-0.127-0.131
	c0,0,0,0-0.001,0C219.812,234.736,219.852,234.778,219.896,234.822z M402.581,496.045c3.604-0.434,7.101-0.892,10.497-1.374
	l2.139-13.79h-10.97L402.581,496.045z M387.635,479.945h15.789l1.644-14.91h-17.433V479.945z M387.635,464.1h17.518l1.814-16.328
	h-19.332V464.1z M406.004,465.035l-1.644,14.91h11.027l2.296-14.91H406.004z M223.792,245.853
	c-12.462,7.912-25.937,11.46-30.868,12.565c-0.017,0.388-0.014,0.777-0.017,1.166c0.003-0.389,0-0.778,0.017-1.166
	C197.856,257.312,211.33,253.764,223.792,245.853z M342.026,242.373L342.026,242.373l-0.064-0.031l-3.167-1.528h-0.001v0.001v0
	l3.167,1.527L342.026,242.373z M242.454,144.621c0.071-0.015,0.115-0.022,0.168-0.032c-0.001,0-0.001-0.001-0.002-0.001
	C242.576,144.596,242.512,144.609,242.454,144.621z M257.015,171.225c0,0-0.066-0.022-0.164-0.055
	C256.951,171.204,257.015,171.225,257.015,171.225z M309.087,219.979c-1.02,0.227-2.041,0.312-3.033,0.312
	c-1.729,5.527-6.01,10.148-11.764,12.104l1.956,8.419h8.334l11.559-25.244l2.714-5.926l-2.714,5.926
	C314.4,217.709,311.975,219.314,309.087,219.979z"></path>
<path id="color_x5F_3" fill="#E84393" d="M316.139,215.57l2.714-5.926l3.445-7.523l38.438,3.969l-18.709,36.283l-0.065-0.031
	l-3.167-1.528H304.58L316.139,215.57z M193.009,266.723c5.159-1.106,24.378-5.868,38.948-18.142c-1.19-1.522-2.56-3.215-4.04-4.971
	c0.313,0.373,0.622,0.751,0.923,1.116c-14.048,10.251-30.727,14.504-35.929,15.643c0.005,2.557,0.051,4.953,0.11,7.103
	C193.015,267.22,193.009,266.984,193.009,266.723z M432.338,394.424l-16.696,107.66h-59.443
	c-4.62-35.15-9.071-68.854-14.173-107.688L432.338,394.424z M387.636,410.496h23.442l1.361-12.444h-24.803L387.636,410.496
	L387.636,410.496z M387.635,427.73h21.543l1.786-16.299h-23.329V427.73z M387.635,446.836h19.446l1.984-18.17h-21.43V446.836z
	 M387.635,464.1h17.518l1.814-16.328h-19.332V464.1z M387.635,479.945h15.789l1.644-14.91h-17.433V479.945z M347.837,410.496h16.498
	l-0.822-12.444h-17.32L347.837,410.496z M350.105,427.73h15.335l-1.049-16.299H347.95L350.105,427.73z M352.628,446.836h14.088
	l-1.191-18.17h-15.307L352.628,446.836z M354.895,464.1h12.954l-1.077-16.328h-14.031L354.895,464.1z M356.964,479.945h11.906
	l-0.964-14.91h-12.898L356.964,479.945z M370.089,498.427l-1.162-17.546h-11.849l2.324,17.546H370.089z M386.7,480.881h-16.838
	l1.162,17.546H386.7V480.881z M386.7,465.035h-17.858l0.964,14.91H386.7V465.035z M386.7,447.771h-18.992l1.049,16.328H386.7
	V447.771z M386.7,428.666h-20.239l1.191,18.17H386.7V428.666z M386.7,411.432h-21.373l1.049,16.299H386.7V411.432z M386.7,398.052
	h-22.252l0.794,12.444H386.7V398.052z M401.383,498.427l1.928-17.546h-15.676v17.546H401.383z M415.217,480.881h-10.97
	l-1.928,17.546h10.176L415.217,480.881z M417.683,465.035h-11.679l-1.644,14.91h11.027L417.683,465.035z M420.347,447.771h-12.444
	l-1.786,16.328h11.707L420.347,447.771z M423.324,428.666h-13.323l-1.984,18.17h12.501L423.324,428.666z M425.988,411.432H411.9
	l-1.786,16.299h13.351L425.988,411.432z M426.13,410.496l1.928-12.444h-14.683l-1.361,12.444H426.13z M287.346,473.027
	c0,0.001-8.022-74.664-6.747-95.328c1.218-20.191-0.43-28.2-0.506-28.556c-0.002-0.008-0.004-0.017-0.004-0.017
	c-3.861,1.713-10.137,4.162-18.835,6.369c-0.222,0.056-0.45,0.112-0.675,0.168c-0.372,0.092-0.748,0.184-1.128,0.276
	c-0.311,0.075-0.625,0.149-0.942,0.223c-0.315,0.074-0.636,0.146-0.957,0.219c-0.349,0.079-0.696,0.158-1.051,0.236
	c-0.347,0.076-0.702,0.151-1.055,0.226c-0.3,0.064-0.592,0.129-0.897,0.192c-0.055,0.011-0.114,0.021-0.168,0.032
	c-0.373,0.075-0.755,0.146-1.146,0.214c-0.091,0.016-0.181,0.032-0.273,0.047c-15.502,2.603-43.806-0.147-57.033-3.27H195.9
	c0,0,0,0.006,0,0.007c-0.004,0.141-0.376,14.426,9.439,32.477c9.865,18.143,13.238,88.583,13.238,88.583h21.09l5.924-91.105
	l21.09,91.105l9.7-0.985l7.733-0.785L287.346,473.027z M194.653,237.469c4.791-1.275,12.189-3.628,19.899-7.482
	c0.131,0.096,0.258,0.206,0.387,0.308c-3.124-2.55-5.971-4.197-8.012-4.079c-8.22,0.481-10.148,3.316-10.148,3.316l-0.017,0.017
	l-0.011,0.011c-0.028,0.078-0.051,0.163-0.079,0.242c-0.245,0.691-0.479,1.395-0.695,2.121c-0.012,0.041-0.025,0.081-0.036,0.121
	c-0.209,0.711-0.4,1.441-0.582,2.18c-0.049,0.197-0.098,0.393-0.144,0.591c-0.169,0.716-0.327,1.441-0.473,2.177
	c-0.043,0.217-0.083,0.437-0.124,0.656c-0.079,0.417-0.149,0.84-0.221,1.263C194.477,238.427,194.554,237.943,194.653,237.469z
	 M232.226,248.927c-0.069-0.088-0.129-0.167-0.199-0.256C232.094,248.757,232.159,248.841,232.226,248.927z M209.505,270.189
	c0.01-0.002,0.02-0.004,0.03-0.007c0.016-0.004,0.034-0.01,0.05-0.014c0.428-0.107,0.872-0.234,1.325-0.375
	c0.02-0.006,0.038-0.01,0.058-0.016c0.198-0.062,0.406-0.137,0.608-0.205c0.079-0.027,0.16-0.055,0.24-0.083
	c4.777-1.644,10.619-4.868,15.877-8.364c0.031-0.021,0.063-0.042,0.094-0.063c3.207-2.137,6.193-4.365,8.564-6.386
	c-0.378-0.697-1.543-2.368-3.21-4.559c-15.233,12.738-35.299,17.56-40.087,18.558c0.023,0.796,0.047,1.562,0.07,2.271l0.043,1.223
	l0,0l0.014,0.393c4.86,0.001,10.517-1.107,15.447-2.182c0.02-0.004,0.039-0.008,0.059-0.013
	C208.958,270.307,209.237,270.248,209.505,270.189z M219.766,234.692c-1.422-1.411-2.839-2.73-4.211-3.888
	c0.193,0.168,0.386,0.336,0.584,0.514c-8.588,4.393-16.864,6.943-21.853,8.22c-0.031,0.193-0.065,0.383-0.095,0.577
	c-0.112,0.728-0.213,1.464-0.307,2.202c-0.037,0.292-0.074,0.584-0.109,0.877c-0.075,0.63-0.143,1.261-0.207,1.894
	C199.016,243.753,209.489,240.637,219.766,234.692z M193.094,251.643c5.555-1.276,18.674-4.96,30.69-12.751
	c-1.276-1.398-2.583-2.77-3.888-4.071c0.433,0.434,0.849,0.85,1.261,1.286c-11.048,6.46-22.378,9.72-27.768,10.996
	c-0.018,0.22-0.038,0.441-0.055,0.661c-0.026,0.339-0.053,0.677-0.076,1.016c-0.045,0.656-0.083,1.31-0.118,1.963
	c-0.022,0.413-0.042,0.824-0.06,1.235c0,0.008-0.001,0.015-0.001,0.023C193.084,251.881,193.089,251.766,193.094,251.643z
	 M207.096,177.053c0,0.003,0,0.006,0,0.008c0.498,0.678,0.945,1.405,1.345,2.136c0.044,0.081,0.084,0.16,0.127,0.241
	c0.13,0.244,0.255,0.488,0.374,0.731c0.089,0.18,0.172,0.355,0.254,0.533c0.05,0.108,0.098,0.214,0.146,0.32
	c0.72,1.596,1.204,3.03,1.438,3.779l4.224,0.539c5.386-37.672,27.808-40.79,27.836-40.79c-0.389-0.208-0.792-0.395-1.204-0.566
	c-0.009-0.004-0.018-0.009-0.027-0.013c-0.225-0.093-0.46-0.169-0.691-0.252c-0.201-0.072-0.397-0.153-0.601-0.219
	c-0.865-0.272-1.731-0.513-2.599-0.726c-0.218-0.054-0.436-0.091-0.654-0.141c-0.63-0.144-1.261-0.286-1.892-0.399
	c-0.457-0.082-0.915-0.139-1.372-0.204c-0.381-0.054-0.761-0.119-1.142-0.161c-0.634-0.071-1.269-0.117-1.904-0.156
	c-0.196-0.012-0.391-0.033-0.587-0.042c-0.763-0.035-1.526-0.045-2.291-0.033c-0.063,0.001-0.125-0.001-0.188,0
	c-2.524,0.051-5.061,0.357-7.609,0.927C209.906,151.775,207.551,167.755,207.096,177.053z M192.924,258.418
	c5.441-1.22,21.285-5.414,34.692-15.163c-0.816-0.963-1.66-1.94-2.529-2.917c-12.721,8.3-26.687,12.068-32.074,13.288
	c-0.019,0.559-0.033,1.11-0.047,1.663c-0.005,0.203-0.01,0.406-0.014,0.608c-0.026,1.252-0.043,2.488-0.045,3.687
	C192.91,259.195,192.907,258.806,192.924,258.418z"></path>
<path id="color_x5F_2" fill="#FBC02D" d="M247.434,212.383c0-0.001-0.001-0.001-0.001-0.002c2.786,0.556,5.768,1.329,8.756,2.299
	c-0.15,1.377-0.091,2.797,0.231,4.221c1.587,6.891,8.475,11.228,15.363,9.64c1.021-0.227,1.984-0.595,2.891-1.049
	c1.534,1.632,3.349,2.972,5.344,3.965c1.924,3.061,3.717,6.331,5.258,9.357H254.01v0.001v43.171l-12.019-1.616l-11.679-22.961
	c0,0-0.968,0.66-2.525,1.654c3.207-2.137,6.193-4.365,8.564-6.386c-0.378-0.697-1.543-2.368-3.21-4.559
	c0.002-0.002,0.004-0.003,0.006-0.005c-0.285-0.373-0.602-0.778-0.921-1.185c-0.067-0.086-0.131-0.169-0.199-0.256
	c-0.025-0.031-0.045-0.058-0.07-0.089l0,0c-1.19-1.522-2.56-3.215-4.04-4.971c-0.1-0.12-0.193-0.241-0.296-0.359
	c-0.001,0.001-0.003,0.002-0.004,0.003c-0.816-0.963-1.66-1.94-2.529-2.917c0.003-0.002,0.007-0.004,0.01-0.006
	c-0.425-0.481-0.879-0.963-1.304-1.445c-0.003,0.002-0.006,0.004-0.009,0.005c-1.276-1.398-2.583-2.77-3.888-4.071
	c-0.044-0.044-0.084-0.086-0.128-0.131c-0.001,0-0.001,0.001-0.002,0.001c-1.422-1.411-2.839-2.73-4.211-3.888
	c-0.204-0.177-0.411-0.345-0.616-0.509c-3.124-2.55-5.971-4.197-8.012-4.079c-8.22,0.481-10.148,3.316-10.148,3.316l-0.017,0.017
	c0.761-2.101,1.662-4.034,2.737-5.714c7.909-12.331,28.432-11.905,28.432-11.905l0,0v0.001v0.001c0,0,0.003,0.817,0.444,2.125
	c-0.239-0.703-0.364-1.276-0.415-1.645c0.05,0.368,0.176,0.943,0.415,1.645c0.03,0.089,0.063,0.181,0.097,0.275
	c0.059,0.161,0.122,0.321,0.195,0.495c0.1,0.24,0.214,0.491,0.344,0.753c0.021,0.042,0.033,0.077,0.055,0.119
	c-0.022-0.042-0.034-0.078-0.054-0.119c0.385,0.777,0.904,1.64,1.613,2.558c2.721,3.486,7.313,4.224,9.496,2.126
	c0.006-0.006,0.009-0.015,0.015-0.021c0.121-0.116,0.214-0.249,0.291-0.392c0.02-0.037,0.035-0.077,0.053-0.116
	c0.051-0.113,0.092-0.232,0.122-0.358c0.016-0.062,0.031-0.125,0.042-0.19c0.019-0.122,0.029-0.251,0.034-0.382
	c0.002-0.049,0.013-0.092,0.013-0.142c-0.014-2.797-3.164-7.256-3.176-7.274C240.064,211.278,243.579,211.617,247.434,212.383z
	 M258.234,218.506c1.361,5.867,7.257,9.581,13.153,8.221c0.709-0.171,1.389-0.398,2.041-0.681c-1.017-1.355-1.85-2.884-2.492-4.523
	c-3.705-2.485-8.272-4.595-12.943-6.236C257.917,216.341,257.989,217.423,258.234,218.506z M195.929,354.058
	c13.227,3.122,41.531,5.873,57.033,3.27c0.091-0.015,0.182-0.031,0.273-0.047c0.391-0.068,0.772-0.139,1.146-0.214
	c0.055-0.011,0.113-0.021,0.167-0.033c0.304-0.063,0.599-0.127,0.898-0.191c0.353-0.075,0.709-0.149,1.055-0.226
	c0.355-0.078,0.702-0.157,1.051-0.236c0.321-0.073,0.641-0.146,0.957-0.219c0.317-0.074,0.63-0.148,0.942-0.223
	c0.38-0.091,0.757-0.183,1.128-0.276c0.226-0.056,0.453-0.112,0.675-0.168c8.698-2.207,14.974-4.656,18.835-6.369
	c0,0,0.002,0.009,0.004,0.017c2.991-1.334,4.502-2.229,4.502-2.229l-6.236-38.125h-4.053l0,0l0,0h-0.001l-11.958-6.631
	c-0.637,0.032-1.278,0.064-1.922,0.097c-12.343,0.642-25.829,1.407-31.363,0.405c-0.04-0.007-0.081-0.014-0.12-0.022
	c-0.296-0.056-0.568-0.117-0.815-0.184c-0.051-0.014-0.096-0.028-0.145-0.043c-0.222-0.065-0.426-0.134-0.601-0.21
	c-0.013-0.006-0.032-0.01-0.045-0.016c-1.866-0.829-4.162-3.708-6.499-7.418c-5.971-9.478-12.208-24.381-12.211-24.388
	c-4.931,1.075-10.587,2.183-15.447,2.182l-0.014-0.393c0.003,0.101,0.006,0.207,0.009,0.305c0.001,0.029,0.002,0.06,0.003,0.089
	c0.008,0.263,0.015,0.543,0.023,0.834c0.087,3.304,0.178,8.413,0.242,14.311c0.016,1.359,0.032,2.758,0.047,4.187
	c-0.003,0-0.005-0.001-0.008-0.001c0.112,14.19,0.042,31.236-0.587,38.862c-0.992,12.019-4.139,16.469-4.139,20.268
	c0,0.926,2.732,2.002,7.144,3.041c0-0.001,0-0.007,0-0.007L195.929,354.058L195.929,354.058z M256.646,491.312
	c-2.58-1.417-9.921-0.623-12.926-0.623c-3.005,0-5.726-3.657-6.208-4.649c-0.482-0.992-1.276-2.012-1.276-2.012h-14.173
	c0,0-2.069,0.481-2.324,2.125c-0.255,1.616-1.587,8.334-1.219,10.432c0.369,2.098,2.324,2.835,4.706,2.892
	c2.382,0.057,4.961,0.17,8.901-0.851c3.969-0.992,26.277,2.977,27.269,0.482C260.388,496.641,259.226,492.729,256.646,491.312z
	 M306.027,493.437c-2.58-1.417-9.893-0.623-12.898-0.623c-3.033,0-5.754-3.628-6.236-4.649c-0.482-0.991-1.276-1.983-1.276-1.983
	h-2.211h-11.962c0,0-2.041,0.453-2.324,2.098c-0.255,1.644-1.588,8.333-1.219,10.431c0.368,2.126,2.324,2.864,4.705,2.92
	c2.381,0.056,4.961,0.141,8.901-0.851c3.968-0.993,26.277,2.948,27.269,0.482C309.768,498.768,308.605,494.884,306.027,493.437z"></path>
<path id="color_x5F_1" fill="#0984E3" d="M209.651,187.433c-0.04,0.021-0.063,0.002-0.06-0.079
	C209.591,187.354,209.615,187.386,209.651,187.433z M215.004,185.34l-4.224-0.539c-0.234-0.749-0.718-2.183-1.438-3.779
	c-0.048-0.106-0.096-0.212-0.146-0.32c-0.082-0.178-0.165-0.353-0.254-0.533c-0.119-0.243-0.244-0.487-0.374-0.731
	c-0.043-0.081-0.083-0.16-0.127-0.241c-0.4-0.731-0.847-1.458-1.345-2.136c0,0,0,0.001,0,0.001c0.498,0.678,0.945,1.405,1.345,2.136
	c0.044,0.08,0.085,0.161,0.127,0.241c0.13,0.244,0.255,0.488,0.374,0.731c0.087,0.179,0.173,0.357,0.254,0.533
	c0.05,0.108,0.098,0.214,0.146,0.32c1.055,2.356,1.58,4.348,1.58,4.348s12.104,0.821,19.928-4.536
	c7.824-5.386,14.797-16.781,14.797-16.781s1.041,1.495,3.068,3.155c3.485,2.462,8.3,4.016,8.3,4.016s-0.004-19.128-14.395-26.638
	C240.333,145.013,220.087,149.788,215.004,185.34z M192.907,182.03c-13.5-16-3.574-31.083,5.26-29.417l3.172,3.364
	c-2.334,5.23-2.545,11.466-0.521,17.963c0.002,0.005,0.009,0.009,0.012,0.014c1.047-0.435,2.219-0.413,3.433,0.333
	c1.079,0.662,2.021,1.652,2.834,2.767c0,0,0-0.001,0-0.001c0.455-9.298,2.81-25.278,12.983-34.488
	c-4.491,0.876-8.267,2.444-11.31,4.546c-0.019,0.013-0.035,0.027-0.054,0.04l-4.049-1.705c0,0-10.917-13.167-28.167-1.417
	s-7.826,42.677-2,62.06c6.75,22.457-11.75,28.69-11.75,28.69s19.149-0.849,26.005-6C199.709,220.55,206.407,198.03,192.907,182.03z"></path>
</svg>