<?xml version="1.0" standalone="no"?>
<svg version="1.1" id="Layer_1" xmlns="http://www.w3.org/2000/svg" xmlns:xlink="http://www.w3.org/1999/xlink" x="0px" y="0px" viewBox="0 0 595.28 595.28" enable-background="new 0 0 595.28 595.28" xml:space="preserve">
<path id="color_x5F_5" fill="#FFD2BB" d="M288.972,452.518c0.028,0.596,0.34,3.969,0.34,3.969h-0.028h-0.028h-0.028h-0.085h-0.057
	h-0.113h-0.113l-0.113-0.028h-0.142h-0.17h-0.142l-0.198-0.028h-0.198l-0.198-0.028h-0.198h-0.227l-0.255-0.028h-0.227l-0.255-0.028
	h-0.255l-0.283-0.028h-0.284l-0.283-0.028l-0.283-0.028h-0.283l-0.312-0.028l-0.284-0.028h-0.312l0,0l-0.312-0.028l-0.312-0.028
	l-0.312-0.028l-0.312-0.028h-0.312l0,0l-0.34-0.028l-0.312-0.028l-0.312-0.028l-0.312-0.028l-0.312-0.028l-0.312-0.028l-0.283-0.028
	l-0.312-0.028l-0.312-0.028l-0.283-0.028l-0.283-0.029l-0.283-0.027l-0.255-0.058l-0.283-0.028l0,0l-0.255-0.028l0,0l-0.255-0.028
	l0,0l-0.227-0.028l0,0l-0.227-0.057l0,0l-0.227-0.028l0,0l-0.227-0.028l0,0l-0.198-0.057l-0.17-0.028l-0.198-0.028l0,0l-0.142-0.057
	l-0.17-0.028l0,0c-0.028,0-0.085-0.028-0.113-0.028l0,0c-0.057-0.028-0.085-0.028-0.142-0.057l0,0c-0.028,0-0.057-0.028-0.085-0.028
	l0,0c-0.028-0.028-0.085-0.028-0.085-0.057h-0.028c0,0-0.028-0.028-0.057-0.028l0,0c-0.028-0.028-0.028-0.028-0.057-0.057l0,0
	l-0.057-0.028l0,0l-0.028-0.057l0,0l-0.057-0.028l0,0l-0.028-0.057l-0.057-0.028l0,0l-0.028-0.057l0,0l-0.057-0.029l0,0
	l-0.028-0.057l-0.057-0.028l-0.028-0.057l-0.028-0.028l0,0l-0.057-0.057l-0.028-0.028l0,0l-0.028-0.028l-0.028-0.057l-0.028-0.028
	h-0.028l-0.028-0.057l-0.028-0.028l0,0l-0.028-0.028l-0.057-0.085l0,0l-0.028-0.028l-0.028-0.057l-0.028-0.028l-0.028-0.028v-0.057
	l-0.028-0.028l-0.057-0.057l0,0l-0.028-0.028l0,0v-0.028l-0.028-0.057l0,0l-0.028-0.028l0,0v-0.028l0,0l-0.028-0.028l0,0
	l-0.028-0.028v-0.029l0,0l-0.028-0.028v-0.028l0,0l-0.028-0.028l0,0l0,0l-0.028-0.028l0,0v-0.028l0,0v-0.028l0,0l-0.028-0.028l0,0
	l0,0l0,0l-0.028-0.057l0,0v-0.028l0,0h-0.028l0,0v-0.028l0,0l0,0v-0.028l0,0l0,0l0,0l-0.028-0.028l0,0l0,0l0,0l0,0l0,0l0,0l0,0
	v-0.028l0,0l0,0l0,0l0,0l0,0l0,0l0,0l0,0l0,0l-0.964-8.561l15.279,0.17L288.972,452.518z M330.046,455.268l0.057-12.614
	l-15.421,0.283l0.369,15.563c1.814,0.567,8.192,0.992,11.48,1.162L330.046,455.268z M328.261,455.807v-0.029l0,0v-0.027l0,0v-0.029
	l0,0l0.028-0.028l0,0l0,0l0.028-0.028l0,0l0,0l0,0h0.028v-0.028l0,0l0,0h0.028c0-0.028,0.028-0.028,0.057-0.028v-0.028
	c0.312-0.142,0.935-0.283,1.616-0.312L328.261,455.807z M208.213,162.222L208.213,162.222c0.057-1.672,2.891-8.419,2.239-10.006
	c-0.624-1.616-1.871-0.766-4.791,2.268c-2.891,3.033-1.616,4.139-2.948,5.641c-1.927,2.211-5.017,1.928-7.342,1.843
	c-2.324-0.085-3.798,1.304-4.932,4.195c-1.162,2.892-0.397,10.658,0.737,13.096c1.134,2.467,4.819,2.75,4.819,2.75l1.219,12.188
	l10.403-1.162c-0.964-5.924-2.239-14.797-1.417-16.639C207.476,173.617,208.157,163.895,208.213,162.222L208.213,162.222z
	 M280.1,141.982L280.1,141.982C269.81,136.965,267.741,129,267.741,129c0.028,0.113,0.057,0.255,0.057,0.368l0.028,0.17l0.028,0.228
	v0.142l0.028,0.255v0.142v0.255v0.113l0.028,0.284v0.085c0,0.113,0,0.227,0,0.312v0.085c0,0.113,0,0.255,0,0.369l0,0
	c-0.198,6.037-3.317,11.679-4.62,13.748v0.028l-0.085,0.113l0,0l-0.057,0.113c-0.113,0.142-0.17,0.255-0.255,0.34
	c-0.397,4.365-0.567,8.73-0.255,12.274c1.077,11.31,3.798,16.157,10.63,18.936c6.803,2.806,5.698,14.031,5.698,14.031
	s0.17,0.255,0.454,0.623c0.283-0.425,0.567-0.85,0.879-1.275l0,0l0,0c0.057-0.085,0.113-0.142,0.17-0.227
	c9.496-12.926,21.231-13.72,20.268-27.071C300.169,155.646,290.39,147,280.1,141.982L280.1,141.982z M340.903,252.563
	L340.903,252.563l-24.746,22.195c0.85,2.438,2.098,5.158,3.884,7.682l25.285-14.259L340.903,252.563z"></path>
<path id="color_x5F_4" fill="#00CEC9" d="M447.117,216.931c0-2.409,1.928-4.365,4.337-4.365s4.337,1.955,4.337,4.365
	c0,2.381-1.927,4.337-4.337,4.337C449.044,221.268,447.117,219.312,447.117,216.931z M459.391,213.33
	c2.409,0,4.365-1.955,4.365-4.365c0-2.409-1.956-4.337-4.365-4.337c-2.381,0-4.337,1.928-4.337,4.337
	C455.054,211.375,457.01,213.33,459.391,213.33z M548.258,430.918c-25.966-35.802-63.015-13.918-74.155-64.63
	c-3.646-16.647-5.994-35.646-10.974-54.68c-39.701,33.824-63.633,77.839-63.633,77.839l-39.487-46.488l15.987-21.515l26.504,30.019
	c25.033-27.38,44.251-41.727,57.945-49.205c-11.207-35.768-34.034-70.313-94.767-88.134c-2.813-0.826-5.581-1.59-8.315-2.305
	c-0.29,2.405-0.715,4.726-1.272,6.921c6.925,7.173,13.277,14.185,14.377,16.843c2.58,6.235-24.179,36-24.179,36l-0.964-3.402
	l-11.775,6.64c2.496,16.633,5.864,25.284,5.624,26.468c-0.453,2.207-0.452,2.208,0,0c0,0,2.268,11.31-1.956,28.855
	c-4.224,17.518,0.567,112.337,0.567,112.337l-15.977,0.324l8.295-0.152l-0.057,12.614l-0.002,0.002c0.001,0,0.001,0,0.002,0
	l-0.002,0.001l-0.001,0.002c1.132-0.059,2.416,0.107,2.586,0.676c0.311,1.077,3.628,21.77,1.587,23.924
	c-0.077,0.079-0.224,0.155-0.422,0.228H567.76C567.874,471.057,565.067,454.134,548.258,430.918z M459.391,220.53
	c-2.381,0-4.337,1.928-4.337,4.337c0,2.41,1.956,4.366,4.337,4.366c2.409,0,4.365-1.956,4.365-4.366
	C463.756,222.458,461.8,220.53,459.391,220.53z M515.291,394.322c4.791-3.826,1.361-16.044-7.654-27.297
	c-9.014-11.226-20.211-17.235-24.973-13.408c-4.791,3.855-1.361,16.072,7.654,27.298
	C499.332,392.168,510.528,398.178,515.291,394.322z M146.192,226.087c2.409,0,4.365-1.956,4.365-4.366
	c0-2.409-1.956-4.337-4.365-4.337c-2.381,0-4.337,1.928-4.337,4.337C141.855,224.131,143.811,226.087,146.192,226.087z
	 M467.357,221.268c2.41,0,4.337-1.956,4.337-4.337c0-2.41-1.928-4.365-4.337-4.365s-4.365,1.956-4.365,4.365
	C462.992,219.312,464.947,221.268,467.357,221.268z M283.362,477.945c-0.095,0.816-0.096,1.563-0.015,2.155H152.946l13.144-36.54
	h-32.739l17.376-0.028c0,0,5.641-46.262,5.641-72.822c0-15.323-6.042-30.863-15.013-36.771c9.641-8.17,19.766-19.651,30.575-36.589
	c12.577-19.713,25.37-36.977,39.297-51.101c5.443,4.514,12.41,7.463,21.336,7.588c18.255,0.255,27.439-17.405,27.439-17.405
	s-0.964,53.064-1.247,60.889c-0.061,1.674,0.268,3.103,1.053,4.342c-0.001-0.002-0.002-0.003-0.003-0.005l9.156,142.979l4.093,0.045
	l0.964,8.559v0.009c-0.004-0.01-0.009-0.024-0.009-0.024s-1.446,1.049-1.389,2.665c0.085,1.644,0.085,7.455-8.334,8.674
	s-16.838,2.664-18.68,5.499c-1.842,2.835-2.013,7.483-0.992,7.994C245.349,478.399,268.706,478.597,283.362,477.945z
	 M175.785,353.249c-18.113,6.463-19.417,50.484-19.417,50.484l-1.276,23.301c0,0,5.584-7.342,24.576-28.913
	C198.661,376.55,193.927,346.758,175.785,353.249z M122.721,431.57c-8.107-5.812-9.383-3.884-14.57-1.928
	c-5.187,1.928-12.614,0.623-16.186-4.876c-3.572-5.499,2.92-9.042,6.151-6.463c3.232,2.581,6.151,6.463,9.071,2.268
	c2.891-4.224-1.616-4.535-11.027-14.258c-9.383-9.694-8.391-25.455,5.414-21.572c7.37,2.069,14.598,10.035,19.757,17.036
	c-5.972-18.091-10.417-37.695-7.787-51.07c-20.255,8.38-39.046,10.703-58.77,32.419c-28.573,31.437-20.098,77.499-14.712,96.974
	h89.957l-13.79-36.54h17.122C133.351,443.56,130.8,437.409,122.721,431.57z M137.914,324.307
	c15.846-13.663,23.981-30.217,18.17-36.964c-5.811-6.746-23.386-1.105-39.231,12.558c-15.846,13.663-23.981,30.218-18.17,36.964
	C104.494,343.611,122.068,337.998,137.914,324.307z M138.254,225.321c-2.409,0-4.337,1.956-4.337,4.365
	c0,2.381,1.928,4.337,4.337,4.337c2.409,0,4.337-1.956,4.337-4.337C142.591,227.277,140.663,225.321,138.254,225.321z
	 M138.254,218.121c2.409,0,4.337-1.956,4.337-4.337c0-2.409-1.928-4.365-4.337-4.365s-4.337,1.956-4.337,4.365
	C133.917,216.165,135.845,218.121,138.254,218.121z M130.317,226.087c2.381,0,4.337-1.956,4.337-4.366
	c0-2.409-1.956-4.337-4.337-4.337c-2.409,0-4.365,1.928-4.365,4.337C125.952,224.131,127.908,226.087,130.317,226.087z
	 M340.903,252.563l-0.936-3.289c0,0,3.563-7.333,3.798-8.476l-2.193-2.711c0,0-8.358,3.294-10.59,3.306
	c0,0,0.31,18.857,0.914,19.247L340.903,252.563z"></path>
<path id="color_x5F_3" fill="#E84393" d="M118.185,340.294L118.185,340.294c-9.893,11.48-4.677,37.786,3.146,61.483
	c-5.159-7.001-12.387-14.967-19.757-17.036c-13.805-3.883-14.797,11.878-5.414,21.572c9.411,9.723,13.918,10.034,11.027,14.258
	c-2.92,4.195-5.839,0.313-9.071-2.268c-3.231-2.579-9.723,0.964-6.151,6.463c3.572,5.499,10.999,6.804,16.186,4.876
	c5.187-1.956,6.463-3.884,14.57,1.928c8.079,5.839,10.63,11.99,10.63,11.99l17.376-0.028c0,0,5.641-46.262,5.641-72.822
	C156.368,344.178,138.254,316.993,118.185,340.294L118.185,340.294z M39.07,480.1v9.24h530.305v-9.24H39.07z M175.785,353.249
	L175.785,353.249c-18.113,6.463-19.417,50.484-19.417,50.484l-1.276,23.301c0,0,5.584-7.342,24.576-28.913
	C198.661,376.55,193.927,346.758,175.785,353.249L175.785,353.249z"></path>
<path id="color_x5F_2" fill="#FBC02D" d="M317.039,277.002c0.172,0.402,0.355,0.806,0.55,1.213
	C317.394,277.809,317.211,277.404,317.039,277.002z M316.33,275.214c0.114,0.314,0.236,0.632,0.363,0.953
	C316.566,275.846,316.445,275.528,316.33,275.214z M232.563,253.837c-40.394-0.567-40.734-58.904-40.734-58.904l11.094-1.375
	l4.695-0.525c-0.003-0.018-0.006-0.038-0.009-0.056l4.573-0.567c0,0-2.523,12.813,5.584,25.767
	c8.136,12.983,18.737,1.645,21.09-1.615c2.381-3.289,5.442-5.924,14.343-17.15c8.929-11.253,24.718-14.825,24.718-14.825
	c0.17-0.056,0.369-0.085,0.539-0.113c0.822,3.516,0.51,6.917,0.51,6.917s0.171,0.255,0.453,0.65
	c-8.084,12.522-6.657,30.616,6.099,41.72c0.412,0.359,0.836,0.711,1.271,1.055c0.411,0.326,0.849,0.638,1.298,0.943
	c0.083,0.057,0.167,0.113,0.251,0.169c0.944,0.625,1.964,1.208,3.051,1.747c0.036,0.018,0.071,0.036,0.107,0.054
	c10.259,5.043,26.337,6.278,39.485,3.663c0.082,7.059,0.421,13.465,0.914,19.247l-15.733,14.11c-1.493-4.279-1.807-7.737-1.82-7.816
	l-2.778,0.227c0.057,0.709,1.559,17.604,14.598,24.236l1.276-2.466c-3.151-1.61-5.549-3.949-7.378-6.504l13.489-7.606
	c2.496,16.634,5.864,25.285,5.624,26.469c-0.453,2.207-24.204,11.03-48.323,8.738c-0.031-0.003-0.062-0.005-0.093-0.008
	c-18.363-1.809-27.45-3.698-30.645-7.92c-0.021-0.028-0.041-0.056-0.061-0.084c-0.085-0.116-0.168-0.233-0.244-0.352
	c-0.785-1.239-1.113-2.668-1.053-4.342c0.283-7.825,1.247-60.889,1.247-60.889S250.818,254.092,232.563,253.837z M260.74,286.55
	l2.154,3.458c9.269-6.491,10.516-23.329,10.602-24.038l-1.559-0.227l-1.729-0.368C270.179,265.517,268.365,281.306,260.74,286.55z
	 M370.468,235.583c-1.099-2.657-7.451-9.67-14.377-16.843c-1.314,5.177-3.331,9.671-5.891,12.986
	c-1.988,2.574-4.984,4.693-8.628,6.361c1.348,1.396,2.205,2.406,2.193,2.711c-0.056,1.39-3.798,8.476-3.798,8.476l0.933,3.292
	l0.003-0.003l4.422,15.618l0.964,3.402C346.289,271.583,373.048,241.818,370.468,235.583z M402.5,351.463l-26.504-30.019
	l-15.987,21.515l39.487,46.488c0,0,33.505-61.625,86.995-95.074C486.49,294.373,459.646,288.959,402.5,351.463z M318.625,280.193
	c-0.245-0.428-0.475-0.857-0.694-1.286C318.15,279.336,318.379,279.766,318.625,280.193z M319.688,281.894
	c-0.216-0.322-0.428-0.645-0.627-0.972C319.262,281.248,319.47,281.573,319.688,281.894z"></path>
<path id="color_x5F_1" fill="#0984E3" d="M262.894,290.008l-2.154-3.458c7.625-5.244,9.439-21.033,9.468-21.175l1.729,0.368
	l1.559,0.227C273.41,266.679,272.163,283.517,262.894,290.008z M327.439,288.931c-11.65-5.953-13.068-21.827-13.096-21.997
	l-2.778,0.227c0.057,0.709,1.559,17.604,14.598,24.236L327.439,288.931z M328.261,455.807c0.028,0.595,0.312,3.968,0.312,3.968
	s-12.926-0.566-13.946-1.474s-1.332-1.786-1.332-1.786s-1.446,1.049-1.389,2.665c0.057,1.644,0.085,7.455-8.334,8.674
	c-2.778,0.396-5.556,0.822-8.107,1.304c-0.453-6.774-1.928-15.789-2.126-16.469c-0.312-1.077-4.422-0.737-4.365-0.171
	c0.028,0.596,0.34,3.969,0.34,3.969s-12.954-0.538-13.975-1.474c-1.021-0.907-1.332-1.786-1.332-1.786s-1.446,1.049-1.389,2.665
	c0.085,1.644,0.085,7.455-8.334,8.674c-8.419,1.219-16.838,2.664-18.68,5.499s-2.013,7.483-0.992,7.994
	c0.737,0.34,24.094,0.538,38.75-0.114c-0.198,1.701,0,3.118,0.539,3.402c1.049,0.481,48.246,0.651,50.315-1.475
	c2.041-2.154-1.276-22.847-1.587-23.924C332.314,454.899,328.204,455.211,328.261,455.807z M130.147,480.439h22.677l13.266-36.879
	h-49.861L130.147,480.439z M342.944,165.34c-16.498-16.781-20.636-33.023-34.101-47.338c-11.027-11.765-37.616-10.007-45.099-0.313
	c-13.068,16.866-1.02,28.743-1.02,28.743s6.236-8.844,5.017-17.433c0,0,2.069,7.965,12.359,12.982s20.069,13.663,20.636,21.458
	c0.964,13.352-10.772,14.146-20.268,27.071c-9.524,12.926-8.164,32.882,6.321,44.306c14.485,11.452,52.923,10.488,63.411-3.09
	C360.689,218.149,362.135,184.871,342.944,165.34z M339.174,301.29c-0.453,2.211-24.265,11.055-48.416,8.73
	c-18.992-1.871-28.063-3.827-30.954-8.362l9.156,142.979l25.455,0.283l5.414-100.289l4.394,98.532l33.562-0.681
	c0,0-4.791-94.819-0.567-112.337C341.442,312.6,339.174,301.29,339.174,301.29z"></path>
</svg>