<?xml version="1.0" standalone="no"?>
<svg version="1.1" id="Layer_1" xmlns="http://www.w3.org/2000/svg" xmlns:xlink="http://www.w3.org/1999/xlink" x="0px" y="0px" viewBox="0 0 595.28 595.28" enable-background="new 0 0 595.28 595.28" xml:space="preserve">
<path id="color_x5F_8" fill="#C1EAE5" d="M291.353,394.709l0.001-0.006v75.209H125.612l165.741-128.296V394.709z M260.286,283.336
	h18.482v29.876l12.586-10.177v-46.6v-64.658v-0.002L118.1,329.059v114.009l142.186-114.917V283.336z M215.668,159.603H118.1v81.978
	l97.568-81.977V159.603z"></path>
<path id="color_x5F_7" fill="#D8EFED" d="M291.353,341.616L125.612,469.912H118.1v-26.844l142.186-114.916v21.91v0.001h18.482
	v-0.001v-9.835c0.708-0.029,1.389-0.057,1.984-0.057c4.025,0,8.986-5.159,8.986-5.159l0.005-0.001l1.611-0.368v0.001h-0.001V341.616
	z M291.354,159.604h-75.685L118.1,241.581v87.478l173.254-137.284V159.604z M278.768,325.628L278.768,325.628
	c0.078-0.011,0.142-0.019,0.214-0.029c0.001,0,0.002,0,0.003,0c0.175-0.025,0.334-0.047,0.477-0.065
	c0.058-0.007,0.118-0.015,0.17-0.021c0.043-0.005,0.087-0.011,0.125-0.015c0.097-0.011,0.184-0.02,0.25-0.026
	c0.01-0.001,0.018-0.002,0.028-0.003c0.069-0.006,0.123-0.01,0.149-0.01c0.567,0,7.087,0.198,7.087,0.198l0.015-0.005l4.067-1.469
	l0,0v-14.484v-0.001v-6.661l-12.586,10.177v12.414H278.768z"></path>
<path id="color_x5F_6" fill="#FFFFFF" d="M278.768,325.629c-1.18,0.17-2.913,0.483-4.589,0.93
	c-0.079,0.021-0.157,0.042-0.236,0.063c-0.104,0.028-0.207,0.056-0.309,0.086c-0.227,0.065-0.452,0.132-0.673,0.202
	c-0.01,0.003-0.02,0.007-0.031,0.01c-1.743,0.558-3.233,1.273-3.693,2.139c-0.005,0.009-0.009,0.018-0.013,0.027
	c-0.06,0.12-0.104,0.243-0.122,0.368c-0.273,1.851-1.082,4.868-1.063,7.19c0.008,1.056,0.188,1.968,0.666,2.561
	c1.304,1.645,6.151,1.191,10.063,1.021v9.835v0.001h-18.482v-0.001v-21.91v-0.001v-44.815h18.482v29.876v0.001V325.629
	L278.768,325.629z M100.383,485.276h17.461V139.307h-17.461V485.276z M460.214,348.447h0.312h8.731c0,0,0.539-27.156-0.539-30.954
	c-1.078-3.799-3.998-7.398-5.075-9.95c-0.85-1.955-0.709-9.014-0.595-12.104h1.361v-2.183h-2.857h-0.771h-4.196v2.183h1.106
	c0.113,3.09,0.255,10.148-0.595,12.104c-1.077,2.552-3.969,6.151-5.074,9.95c-1.077,3.798-0.539,30.954-0.539,30.954H460.214z
	 M430.79,316.785l8.843-2.268v-0.001l-0.057-0.282l-8.787,2.239c0.085-2.268,0.227-4.621,0.397-6.974l0.002-0.001l11.308-5.555l0,0
	l-0.142-0.255l-11.14,5.471c0.057-0.879,0.113-1.729,0.198-2.608l0.085-0.085l-0.085-0.057c0.907-11.536,2.324-22.28,2.353-22.422
	l-0.31-0.057h-0.002c0,0.085-0.51,3.91-1.105,9.407c0,0.001,0,0.002,0,0.004l-4.422-7.71l0,0l-0.255,0.142l4.62,8.051
	c-0.369,3.627-0.794,7.935-1.162,12.327c0,0.001,0,0.002,0,0.003l-9.864-8.248h-0.001l-0.198,0.228l10.035,8.391
	c-0.255,3.486-0.481,7.056-0.623,10.401v0.001l-8.192-3.798l0,0l-0.142,0.255l8.334,3.883c-0.057,0.879-0.085,1.786-0.085,2.665
	h0.283v-0.001C430.704,318.909,430.733,317.862,430.79,316.785L430.79,316.785z M444.453,329.738l2.041-9.127h-11.453h-10.375
	h-10.09l1.729,9.127h0.005h28.13H444.453z M486.744,262.257c1.171,0.966,2.672,1.547,4.31,1.547s3.139-0.581,4.31-1.547
	c1.506-1.242,2.465-3.123,2.465-5.227c0-1.637-0.581-3.139-1.547-4.31c-1.243-1.506-3.123-2.465-5.228-2.465
	c-1.637,0-3.139,0.581-4.31,1.547c-1.506,1.243-2.465,3.123-2.465,5.228C484.279,259.134,485.239,261.015,486.744,262.257z"></path>
<path id="color_x5F_5" fill="#FFD2BB" d="M343.171,286.483l17.49-4.281l6.321,35.405l-65.825,14.831l-9.803,2.205v-0.001
	l-1.611,0.368l-0.005,0.001c0,0-4.961,5.159-8.986,5.159c-2.997,0-7.413,0.542-10.08,0c-0.001,0-0.002-0.001-0.004-0.001
	c-0.204-0.041-0.394-0.091-0.576-0.146c-0.034-0.01-0.067-0.021-0.1-0.032c-0.146-0.047-0.282-0.101-0.411-0.158
	c-0.043-0.019-0.087-0.038-0.128-0.058c-0.114-0.056-0.216-0.12-0.313-0.186c-0.038-0.026-0.08-0.049-0.115-0.076
	c-0.113-0.087-0.212-0.182-0.298-0.285c-0.007-0.009-0.017-0.016-0.024-0.024c-0.478-0.593-0.658-1.505-0.666-2.56
	c-0.018-2.322,0.79-5.338,1.063-7.19c0.019-0.126,0.062-0.248,0.122-0.368c0.005-0.009,0.009-0.018,0.013-0.027
	c0.459-0.866,1.95-1.582,3.693-2.139c0.01-0.003,0.02-0.007,0.031-0.01c0.221-0.07,0.446-0.137,0.673-0.202
	c0.103-0.029,0.206-0.058,0.309-0.086c0.078-0.022,0.157-0.042,0.236-0.063c1.783-0.471,3.631-0.791,4.803-0.96
	c0.001,0,0.002,0,0.003,0c0.177-0.025,0.333-0.046,0.477-0.065c0.058-0.007,0.118-0.015,0.17-0.021
	c0.043-0.005,0.087-0.011,0.125-0.015c0.097-0.011,0.184-0.02,0.25-0.026c0.01-0.001,0.019-0.002,0.028-0.003
	c0.069-0.006,0.123-0.01,0.149-0.01c0.567,0,7.087,0.198,7.087,0.198l0.015-0.005l28.433-10.113l5.593-1.984
	c0.001,0,0.002,0,0.003,0l3.195-1.143l21.495-7.645L343.171,286.483z M326.985,182.053l55.644-30.529c0,0,1.276,0,3.997,0.425
	c2.722,0.425,6.18-0.567,7.739-1.729c1.587-1.134,5.754,1.021,7.03,0.595c1.304-0.453,1.871-2.607,0.567-3.458
	c-1.276-0.851-3.005-0.851-3.572-1.588c-0.567-0.708,10.744-5.867,11.764-8.163c0.992-2.295,1.133-5.017,0.14-7.739
	c-1.02-2.721-3.6-7.738-8.617-7.171c-5.017,0.566-15.477,7.738-18.765,10.46c-3.316,2.721-4.11,9.099-8.135,12.33
	c-0.623,0.504-2.534,1.545-5.316,2.945c1.988-0.99,3.532-1.797,4.466-2.377l4.478,7.767l-5.159,2.835l-4.534-7.851
	c-15.756,7.854-55.703,25.661-55.703,26.133c0,0.398-1.53,13.124-2.494,21.005l7.947-0.044l7.588-0.051L326.985,182.053z
	 M330.9,460.179l0.279,0.378h9.95c0,0,2.301-1.153,2.792-2.233l-0.921-6.1h-13.889L330.9,460.179z M343.115,221.625
	c1.332-0.793,6.463,0.539,12.387-2.664s8.872-13.125,8.872-13.125c0.328-1.209,0.577-2.34,0.77-3.415
	c-2.931,0.821-6.123,1.188-9.331,0.836c-10.346-1.162-16.498-6.747-16.498-6.747s-2.523-1.813-5.017-0.283
	c-1.943,1.193-2.957,7.148-3.753,9.441c0.359,8.497,0.603,9.747,0.38,11.422c-0.113,0.879-1.332,2.721-2.579,4.393
	c0.709,0.368,1.531,0.737,2.495,1.021c0.005,0.002,0.011,0.003,0.016,0.005c1.539,0.448,3.25,1.075,5.034,2.061
	c0.11,0.061,0.222,0.131,0.333,0.195c0.24,0.138,0.48,0.275,0.722,0.427c0.171,0.107,0.344,0.229,0.516,0.344
	c0.188,0.126,0.375,0.246,0.564,0.381c0.176,0.125,0.352,0.265,0.528,0.398c0.192,0.145,0.383,0.286,0.575,0.441
	c0.025,0.02,0.049,0.037,0.074,0.057C340.62,224.63,342.349,222.08,343.115,221.625z"></path>
<path id="color_x5F_4" fill="#00CEC9" d="M398.39,145.769c0.371,0.482,1.24,0.652,2.153,0.948
	c-0.338-0.667-0.68-1.331-1.031-1.988C398.719,145.239,398.265,145.613,398.39,145.769z M324.511,312.41l-3.195,1.143
	c-0.001,0-0.002,0-0.003,0c0,0,0,0,0,0l-5.593,1.984l-24.366,8.645l-0.001,0.001l-3.93,1.42l28.294-10.064l5.593-1.984
	c0.001,0,0.002,0,0.003,0l3.195-1.143l21.495-7.645l-2.832-18.284l0,0l-2.268,0.538l-4.592-19.219c0,0-3.827,33.421-6.038,42.548
	L324.511,312.41z M215.668,159.603v0.001L169.732,198.2c0,0,45.937-38.596,45.937-38.596h75.685v32.171v0.002v64.658
	c6.52-12.358,12.416-22.79,13.408-24.463c2.466-4.224,3.005-36,3.005-36l10.696-0.073l0.815-0.005l-0.816,0.005l-7.947,0.044
	c0.964-7.881,2.494-20.607,2.494-21.005c0-0.472,39.947-18.279,55.703-26.133l-0.001-0.003c0.257-0.127,0.505-0.25,0.75-0.372
	c0.054-0.027,0.104-0.052,0.157-0.079c2.694-1.359,4.548-2.371,5.159-2.865c4.025-3.231,4.819-9.609,8.135-12.33
	c1.216-1.006,3.414-2.622,5.954-4.286c-13.727-16.329-34.095-27.868-65.34-32.111c-67.633-9.168-115.846,15.038-140.305,62.844
	H215.668z M378.405,153.821L378.405,153.821l-5.159,2.835L378.405,153.821z M441.845,294.56c-2.353,5.159-5.017,5.188-5.159,7.342
	c-0.142,2.126,1.531,1.134,3.855-0.709c2.325-1.842,5.159-1.247,5.613,1.049c0.425,2.267-0.992,4.763-4.819,5.953
	c-3.799,1.162-5.982,1.419-6.379,3.261c-0.397,1.842,0.992,1.531,3.855,0.482c2.863-1.022,4.96,0.594,3.855,2.777
	c-1.077,2.182-1.814,2.098-4.195,2.494c-2.381,0.397-3.43,3.402-3.43,3.402h11.453l-2.041,9.127h-0.013h-0.001l-4.296,19.077h0.001
	h41.499v-0.312v-14.06v-13.12c-5.364-2.493-10.231-5.113-14.651-7.841c0.699,1.284,1.335,2.633,1.726,4.01
	c1.078,3.798,0.539,30.954,0.539,30.954h-8.731h-0.312h-8.731c0,0-0.538-27.156,0.539-30.954c1.105-3.799,3.997-7.398,5.074-9.95
	c0.084-0.193,0.155-0.447,0.221-0.73c-5.894-4.547-10.778-9.324-14.842-14.258C442.338,293.253,442.13,293.926,441.845,294.56z
	 M510.331,333.792c-3.481-1.884-7.273-3.669-11.368-5.351v5.351H510.331z M291.353,334.643L291.353,334.643L291.353,334.643
	L291.353,334.643z M100.383,305.263c-8.158,7.726-16.395,18.373-24.293,34.369c-21.249,43.022,1.38,79.301,24.293,102.278V305.263z
	 M324.832,218.195l3.883-22.365l-2.664,0.018h-0.001l0.935-13.795l55.644-30.529c0,0,1.276,0,3.997,0.425
	c2.722,0.425,6.18-0.567,7.739-1.729c1.587-1.134,5.754,1.021,7.03,0.595c0.332-0.115,0.615-0.343,0.833-0.629
	c11.101,23.907,14.866,53.424,18.81,84.11c1.828,14.22,4.378,29.424,11.958,43.949c-4.716,0.032-8.637,5.905-8.301,10.219
	c0.397,5.102,3.798,11.792,1.871,10.205s-2.92-5.301-6.917-4.847c-4.025,0.453-4.422,7.086,0.68,10.431
	c5.102,3.374,5.017,8.589,3.515,7.002c-1.474-1.587-2.381-1.786-3.657-0.652c-1.304,1.134-0.198,5.244,2.268,6.804
	c1.672,1.021,2.098,2.409,2.211,3.203h-10.09l1.729,9.127h0.004l3.623,19.077h-42.689v0.397v5.386v5.386h29.14v19.247h2.835v-19.247
	H514.95v18.482h2.835v-18.482h20.532c11.759,22.305,3.295,49.022-16.083,72.539c-62.992,76.468-340.682,59.673-385.513,37.389
	h154.633v-75.209l-0.001,0.006l0.001-0.006l7.766-50.309l25.625,107.83h4.365h0.001l0,0l1.789,7.955l0.279,0.378h9.95
	c0,0,2.301-1.153,2.792-2.233l-0.921-6.1h4.677l-16.242-126.595l-30.278,6.809l65.825-14.831l-6.321-35.405l3.175-0.765
	c0,0-11.197-32.542-16.356-43.455c-2.557-5.396-5.47-8.894-8.351-11.226c-0.192-0.155-0.383-0.296-0.575-0.441
	c-0.176-0.133-0.352-0.273-0.528-0.398c0.176,0.125,0.352,0.265,0.528,0.398c0.192,0.145,0.383,0.286,0.575,0.441
	c0.025,0.02,0.049,0.037,0.074,0.057c1.417-2.183,3.146-4.733,3.912-5.188c1.332-0.793,6.463,0.539,12.387-2.664
	c5.924-3.203,8.872-13.125,8.872-13.125c0.328-1.209,0.577-2.34,0.77-3.415c6.497-1.821,11.702-5.883,12.893-9.341
	c1.701-5.017,3.005-8.759,1.132-7.738c-1.871,0.992-5.868,3.572-10.035-0.737c-4.167-4.28-7.738-8.447-18.198-9.609
	c-10.488-1.134-17.348,4.45-19.502,7.909c-2.154,3.43,0.142,6.434-1.587,10.034c-1.729,3.571-0.907,13.04,0.057,13.606
	c0.207,0.132,0.415-0.225,0.641-0.877c0.796-2.293,1.81-8.249,3.753-9.441c-1.943,1.193-2.957,7.148-3.753,9.441
	c0.359,8.497,0.603,9.747,0.38,11.422c-0.113,0.879-1.332,2.721-2.579,4.393 M368.596,467.02c-1.274-1.984-4.42-2.239-7.624-2.041
	c-3.232,0.198-12.019-1.275-13.493-4.054c-1.474-2.749-3.146-3.77-3.515-2.692c-0.011,0.03-0.029,0.061-0.043,0.091
	c-0.491,1.08-2.792,2.233-2.792,2.233h-9.95l-0.279-0.378l-0.288-0.388c0,0-0.822-0.085-1.162,0.624
	c-0.312,0.709-1.077,10.091-0.369,10.545c0.709,0.425,40.224,0.057,40.224,0.057S369.872,469.033,368.596,467.02z M118.1,443.068
	 M118.1,443.068V329.059v-37.062c-0.085,0.051-0.171,0.104-0.256,0.156v165.095c0.085,0.065,0.172,0.134,0.256,0.199V443.068z"></path>
<path id="color_x5F_3" fill="#E84393" d="M291.354,324.182v-14.484c10.175,2.183,22.107,3.685,29.959,3.855l-5.593,1.984
	L291.354,324.182z M444.439,329.738h-28.13l3.623,19.077h20.211L444.439,329.738z M291.353,334.643v6.973v53.093l0.001-0.006
	l7.766-50.309l25.625,107.83h4.365h0.001H343h4.677l-16.242-126.595l-30.278,6.809L291.353,334.643L291.353,334.643z"></path>
<path id="color_x5F_2" fill="#FBC02D" d="M373.246,156.656l-4.534-7.851l-0.001-0.003c0.257-0.127,0.505-0.25,0.75-0.372
	c1.988-0.99,3.532-1.797,4.466-2.377l4.478,7.767L373.246,156.656z M435.041,320.611h-10.375c-0.113-0.794-0.539-2.182-2.211-3.203
	c-2.466-1.56-3.572-5.67-2.268-6.804c1.276-1.134,2.183-0.935,3.657,0.652c1.502,1.587,1.587-3.628-3.515-7.002
	c-5.102-3.345-4.705-9.978-0.68-10.431c3.997-0.454,4.99,3.26,6.917,4.847c1.927,1.587-1.474-5.103-1.871-10.205
	s5.159-12.386,10.942-9.609c5.811,2.778,8.532,10.545,6.208,15.704c-2.353,5.159-5.017,5.188-5.159,7.342
	c-0.142,2.126,1.531,1.134,3.855-0.709c2.325-1.842,5.159-1.247,5.613,1.049c0.425,2.267-0.992,4.763-4.819,5.953
	c-3.799,1.162-5.982,1.419-6.379,3.261c-0.397,1.842,0.992,1.531,3.855,0.482c2.863-1.022,4.96,0.594,3.855,2.777
	c-1.077,2.182-1.814,2.098-4.195,2.494C436.09,317.606,435.041,320.611,435.041,320.611z M430.676,319.93L430.676,319.93
	c0.029-1.02,0.057-2.069,0.114-3.145l8.843-2.268v-0.001h0.001l-0.057-0.283l-8.786,2.239c0.085-2.268,0.227-4.621,0.397-6.974
	l11.308-5.555l0,0l0.002-0.001l-0.142-0.255l-11.14,5.471c0.056-0.879,0.113-1.729,0.198-2.608l0.085-0.085l-0.085-0.057
	c0.907-11.536,2.325-22.28,2.353-22.422l-0.312-0.057v0.001h-0.002c0,0.085-0.51,3.91-1.105,9.407l-4.42-7.707l-0.002,0.001l0,0
	l-0.255,0.142l4.62,8.051c-0.369,3.627-0.794,7.935-1.162,12.327l-9.863-8.247l-0.001,0.002h-0.001l-0.198,0.228l10.035,8.391
	c-0.255,3.486-0.481,7.056-0.623,10.401l-8.191-3.798l-0.001,0.001l0,0l-0.142,0.255l8.334,3.883
	c-0.057,0.879-0.085,1.786-0.085,2.665L430.676,319.93C430.676,319.931,430.676,319.93,430.676,319.93z M338.026,225.917
	c-0.189-0.135-0.376-0.255-0.564-0.381c-0.172-0.115-0.345-0.236-0.516-0.344c-0.242-0.152-0.482-0.289-0.722-0.427
	c-0.111-0.064-0.222-0.134-0.333-0.195c-1.783-0.986-3.494-1.612-5.034-2.061c-0.005-0.002-0.011-0.003-0.016-0.005
	c-4.875-1.446-6.009-4.309-6.009-4.309l3.883-22.365l-2.664,0.018l-7.588,0.051l-10.696,0.073c0,0-0.539,31.776-3.005,36
	c-0.992,1.673-6.888,12.105-13.408,24.463v46.6v0.001v6.661v0.001c10.175,2.183,22.107,3.685,29.959,3.855c0.001,0,0.002,0,0.003,0
	l3.195-1.143l5.762-2.06c2.211-9.127,6.038-42.548,6.038-42.548l4.592,19.219l2.268-0.538l0,0l17.49-4.281l0,0l3.175-0.765
	c0,0-11.197-32.542-16.356-43.455c-2.557-5.396-5.47-8.894-8.351-11.226c-0.192-0.155-0.383-0.296-0.575-0.441
	C338.378,226.182,338.202,226.042,338.026,225.917z M470.078,272.705c2.028-2.493,3.92-4.607,5.682-6.384
	c0.061-0.062,0.125-0.131,0.186-0.192c-0.17-0.198-0.34-0.425-0.482-0.651c-0.043,0.044-0.089,0.094-0.132,0.138
	c-1.806,1.843-3.745,4.034-5.849,6.608c-4.369,5.386-7.065,13.013-8.702,21.032h0.771
	C463.169,285.408,465.815,277.965,470.078,272.705z M537.854,348.815h-38.891v-0.113v-0.285v-7.113h38.891v-7.512h-38.891v-25.514
	h-8.646v-5.981h-8.674v32.146v14.06v0.312h-41.499h-20.211h-42.69v0.397v5.386v5.386h29.14v19.247h2.835v-19.247H514.95v18.482
	h2.835v-18.482h33.987v-5.386v-5.386v-0.397H537.854z M341.129,460.557h-9.95l-0.279-0.378l-0.288-0.388
	c0,0-0.822-0.085-1.162,0.624c-0.312,0.709-1.077,10.091-0.369,10.545c0.709,0.425,40.224,0.057,40.224,0.057
	s0.567-1.984-0.709-3.997c-1.274-1.984-4.42-2.239-7.624-2.041c-3.232,0.198-12.019-1.275-13.493-4.054
	c-1.474-2.749-3.146-3.77-3.515-2.692c-0.011,0.03-0.029,0.061-0.043,0.091C343.43,459.404,341.129,460.557,341.129,460.557z"></path>
<path id="color_x5F_1" fill="#0984E3" d="M498.963,341.304h38.891v7.511h-38.891v-0.113v-0.285V341.304z M475.464,265.478
	c-0.043,0.044-0.089,0.094-0.132,0.138c-0.625-1.302-0.522-2.949,0.895-4.163c0.624-0.539,1.616-1.077,2.806-1.588
	c-1.417,0.171-2.636,0.198-3.43-0.057c-3.232-1.021-3.232-6.265,0.624-6.859c0.482-0.085,1.049-0.085,1.701-0.057
	c-0.68-0.341-1.219-0.709-1.559-1.077c-2.324-2.467,0.255-7.03,3.94-5.67c0.227,0.113,0.51,0.227,0.765,0.397
	c-0.198-0.368-0.369-0.709-0.425-1.021c-0.907-3.288,3.543-6.095,6.123-3.146c0.255,0.283,0.539,0.68,0.794,1.134
	c0-0.511,0.028-0.992,0.113-1.39c0.822-3.798,6.066-3.515,6.917-0.197c0.028,0.197,0.085,0.481,0.085,0.765
	c0.113-0.17,0.198-0.312,0.312-0.453c2.495-3.005,7.002-0.341,6.236,2.976c-0.255,1.078-1.417,2.693-2.835,4.338
	c1.616-1.219,3.175-2.211,4.337-2.552c3.742-1.105,6.009,3.629,3.515,5.953c-0.595,0.538-1.729,1.049-3.09,1.502
	c1.304-0.057,2.438,0,3.231,0.228c3.77,1.049,3.175,6.264-0.17,6.888c-0.482,0.113-1.134,0.057-1.871-0.028
	c0.539,0.34,0.992,0.68,1.332,1.021c2.75,2.749-0.34,7.001-3.572,5.896c-0.283-0.084-0.624-0.283-0.964-0.51
	c0.142,0.283,0.255,0.566,0.312,0.822c1.137,3.739-3.597,6.035-5.921,3.541c-0.283-0.312-0.595-0.822-0.879-1.417
	c0.057,0.681,0.028,1.247-0.057,1.672c-0.85,3.288-6.094,3.601-6.917-0.227c-0.028-0.17-0.057-0.34-0.057-0.538
	c-0.142,0.255-0.312,0.481-0.454,0.651c-2.239,2.552-7.058,0.426-6.038-3.373c0.34-1.162,1.276-2.749,2.466-4.365
	c-1.616,1.445-3.175,2.608-4.28,2.892c-1.424,0.381-2.75-0.246-3.557-1.283c0.061-0.062,0.125-0.131,0.186-0.192
	C475.776,265.931,475.606,265.704,475.464,265.478z M484.279,257.03c0,2.104,0.96,3.985,2.465,5.227
	c1.171,0.966,2.672,1.547,4.31,1.547s3.139-0.581,4.31-1.547c1.506-1.242,2.465-3.123,2.465-5.227c0-1.637-0.581-3.139-1.547-4.31
	c-1.243-1.506-3.123-2.465-5.228-2.465c-1.637,0-3.139,0.581-4.31,1.547C485.239,253.045,484.279,254.925,484.279,257.03z
	 M334.298,196.227c2.494-1.53,5.017,0.283,5.017,0.283s6.152,5.585,16.498,6.747c3.207,0.352,6.4-0.014,9.331-0.836
	c6.497-1.821,11.702-5.883,12.893-9.341c1.701-5.017,3.005-8.759,1.132-7.738c-1.871,0.992-5.868,3.572-10.035-0.737
	c-4.167-4.28-7.738-8.447-18.198-9.609c-10.488-1.134-17.348,4.45-19.502,7.909c-2.154,3.43,0.142,6.434-1.587,10.034
	c-1.729,3.571-0.907,13.04,0.057,13.606c0.207,0.132,0.415-0.225,0.641-0.877C331.341,203.375,332.355,197.419,334.298,196.227z"></path>
</svg>