<?xml version="1.0" standalone="no"?>
<svg version="1.1" id="Layer_1" xmlns="http://www.w3.org/2000/svg" xmlns:xlink="http://www.w3.org/1999/xlink" x="0px" y="0px" viewBox="0 0 595.28 595.28" enable-background="new 0 0 595.28 595.28" xml:space="preserve">
<path id="color_x5F_6" fill="#FEBF40" d="M313.354,196.975c1.814-1.559,3.628-3.373,5.301-5.414v90.142
	c-1.332-5.584-3.061-11.339-5.301-17.149V196.975z M265.08,471.766L265.08,471.766c0.453,1.105,0.595,2.211,0.482,3.175h246.047
	v-3.175H265.08z M234.805,471.766L234.805,471.766h-5.783v3.175h12.387c-2.098-0.454-3.742-0.879-4.535-1.304
	C236.024,473.211,235.344,472.53,234.805,471.766L234.805,471.766z M144.692,164.433L144.692,164.433h143.065
	c2.608-2.438,5.981-4.507,9.695-5.896H139.42v313.229H72.154v3.175h142.611v-3.175h-70.072L144.692,164.433L144.692,164.433z
	 M297.452,142.861h-0.001 M158.469,116.527h-8.476v26.334h19.956v-7.002h-11.48V116.527z M194.638,119.561
	c2.466,2.494,3.685,5.868,3.685,10.148s-1.219,7.653-3.685,10.147c-2.438,2.495-5.754,3.714-9.978,3.714
	c-4.223,0-7.568-1.218-10.006-3.714c-2.466-2.494-3.685-5.867-3.685-10.147s1.219-7.654,3.685-10.148
	c2.438-2.466,5.783-3.713,10.006-3.713C188.884,115.848,192.2,117.095,194.638,119.561z M189.763,129.709
	c0-2.495-0.397-4.338-1.219-5.5c-0.822-1.162-2.126-1.757-3.883-1.757c-1.786,0-3.09,0.595-3.912,1.757
	c-0.851,1.162-1.247,3.005-1.247,5.5c0,2.494,0.397,4.337,1.247,5.499c0.822,1.162,2.126,1.757,3.912,1.757
	c1.758,0,3.061-0.595,3.883-1.757C189.366,134.046,189.763,132.203,189.763,129.709z M215.645,134.046h3.798
	c-0.198,0.992-0.709,1.757-1.587,2.353c-0.85,0.566-1.928,0.851-3.146,0.851c-1.729,0-3.033-0.596-3.855-1.758
	c-0.85-1.19-1.276-2.977-1.276-5.357c0-2.551,0.425-4.507,1.247-5.812c0.85-1.275,2.126-1.927,3.798-1.927
	c1.077,0,1.956,0.255,2.693,0.821c0.709,0.539,1.219,1.333,1.559,2.382h8.022c-0.397-3.09-1.644-5.499-3.742-7.2
	c-2.126-1.701-4.876-2.551-8.305-2.551c-4.365,0-7.767,1.219-10.176,3.628c-2.409,2.438-3.628,5.839-3.628,10.233
	c0,4.309,1.077,7.682,3.26,10.176c2.152,2.467,5.128,3.685,8.899,3.685c1.786,0,3.345-0.227,4.706-0.737
	c1.332-0.481,2.495-1.247,3.43-2.239l0.425,2.268h5.443v-14.429h-11.565L215.645,134.046L215.645,134.046z M254.562,119.561
	c2.438,2.494,3.657,5.868,3.657,10.148s-1.219,7.653-3.657,10.147c-2.438,2.495-5.783,3.714-10.006,3.714
	c-4.223,0-7.568-1.218-10.006-3.714c-2.438-2.494-3.685-5.867-3.685-10.147s1.247-7.654,3.685-10.148
	c2.438-2.466,5.783-3.713,10.006-3.713C248.78,115.848,252.125,117.095,254.562,119.561z M249.687,129.709
	c0-2.495-0.425-4.338-1.247-5.5c-0.822-1.162-2.098-1.757-3.883-1.757c-1.757,0-3.061,0.595-3.912,1.757
	c-0.822,1.162-1.247,3.005-1.247,5.5c0,2.494,0.425,4.337,1.247,5.499c0.85,1.162,2.154,1.757,3.912,1.757
	c1.786,0,3.061-0.595,3.883-1.757C249.262,134.046,249.687,132.203,249.687,129.709z M278.516,132.742
	c0,1.53-0.312,2.607-0.907,3.23c-0.624,0.624-1.644,0.936-3.061,0.936c-1.474,0-2.523-0.312-3.146-0.936
	c-0.624-0.651-0.935-1.729-0.935-3.23v-16.215h-8.447v16.895c-0.002,3.288,1.047,5.811,3.201,7.54
	c2.154,1.758,5.244,2.608,9.326,2.608c4.025,0,7.115-0.851,9.241-2.608c2.126-1.729,3.175-4.252,3.175-7.54v-16.895h-8.447
	L278.516,132.742L278.516,132.742z M289.883,116.527v6.945h7.569v19.389h8.446v-19.389h7.569v-6.945
	C313.467,116.527,289.883,116.527,289.883,116.527z"></path>
<path id="color_x5F_5" fill="#FFD2BB" d="M314.289,309.312c-0.227,1.304-0.652,1.616-0.142,2.92c0.51,1.332,0.879,2.665,0.057,3.969
	c-0.794,1.332-4.706,1.928-7.427,1.928s-19.758-1.248-26.306-3.912c-6.548-2.637-23.301-6.747-22.422-34.101
	c0,0,6.746,5.867,19.843,5.726c0,0-0.454,18.822,21.628,17.519c0,0,0.935-0.369,2.551-2.354c1.616-1.984,4.337-1.785,7.058-1.559
	s4.195,0.652,4.195,2.126s0.142,1.984,0.964,2.665C315.111,304.89,314.516,307.979,314.289,309.312L314.289,309.312z
	 M269.898,216.393L269.898,216.393c0,0,1.389,11.849,11.282,13.436v2.154h12.557v-2.353c0,0,9.213-0.879,12.926-5.697
	c3.742-4.791,1.474-14.315,0-17.745c-0.482-1.134-0.992-2.523-1.672-3.997c-8.221,3.26-17.66,4.45-23.726,3.515
	c-6.35-0.992-8.022,8.334-8.022,8.334s-1.871-4.507-5.216-6.973c-2.665-1.956-5.301,0.142-5.896,3.231
	C262.443,213.104,264.484,215.825,269.898,216.393L269.898,216.393z M244.216,432.137L244.216,432.137l-6.236,7.087
	c0.737,0.567,1.332,1.077,1.332,1.077l3.146,5.188c0,0,0.142,0.085,0.368,0.198l9.298-5.074
	C250.028,438.742,246.484,435.396,244.216,432.137L244.216,432.137z M318.172,439.62L318.172,439.62l0.595,8.93
	c0.709,0.142,1.247,0.312,1.247,0.312l7.257-0.368l1.077-8.617C325.146,440.953,320.639,440.188,318.172,439.62L318.172,439.62z"></path>
<path id="color_x5F_4" fill="#00CEC9" d="M304.994,202.197c0.679,1.472,1.188,2.859,1.669,3.991c1.474,3.43,3.742,12.954,0,17.745
	c-3.713,4.818-12.926,5.697-12.926,5.697v2.353h0.001h1.644v6.945l14.005,16.413c1.476,3.063,2.79,6.129,3.967,9.181v-67.546
	c-2.57,2.213-5.098,3.86-7.087,4.706C305.847,201.861,305.421,202.029,304.994,202.197z M402.305,274.389
	c-2.409,0-4.365,1.956-4.365,4.337c0,2.41,1.956,4.366,4.365,4.366c2.381,0,4.337-1.956,4.337-4.366
	C406.642,276.345,404.686,274.389,402.305,274.389z M394.339,275.126c2.409,0,4.365-1.928,4.365-4.337s-1.956-4.337-4.365-4.337
	s-4.337,1.928-4.337,4.337S391.93,275.126,394.339,275.126z M402.305,267.189c2.381,0,4.337-1.956,4.337-4.338
	c0-2.409-1.956-4.365-4.337-4.365c-2.409,0-4.365,1.956-4.365,4.365C397.939,265.233,399.895,267.189,402.305,267.189z
	 M271.712,246.693c0.643-0.841,1.257-1.623,1.838-2.339c-0.598,0.734-1.227,1.524-1.889,2.391
	C271.676,246.725,271.691,246.714,271.712,246.693z M410.242,275.126c2.409,0,4.365-1.928,4.365-4.337s-1.956-4.337-4.365-4.337
	s-4.337,1.928-4.337,4.337S407.832,275.126,410.242,275.126z M235.644,472.747c0.126,0.122,0.261,0.233,0.398,0.342
	C235.904,472.981,235.772,472.867,235.644,472.747z M262.506,209.054c0.016-0.038,0.033-0.075,0.049-0.112
	C262.539,208.98,262.522,209.016,262.506,209.054z M236.875,473.634c-0.242-0.124-0.469-0.268-0.686-0.426
	c0.216,0.16,0.442,0.307,0.685,0.429c0.213,0.114,0.491,0.228,0.819,0.343l0.033,0C237.39,473.863,237.098,473.747,236.875,473.634z
	 M265.362,472.593C265.362,472.593,265.362,472.593,265.362,472.593C265.362,472.593,265.362,472.593,265.362,472.593z
	 M235.303,472.391c-0.037-0.042-0.074-0.083-0.11-0.125C235.229,472.308,235.266,472.349,235.303,472.391z M105.886,330.94
	c2.409,0,4.365-1.928,4.365-4.337c0-2.41-1.956-4.365-4.365-4.365c-2.381,0-4.337,1.955-4.337,4.365
	C101.549,329.013,103.505,330.94,105.886,330.94z M97.949,330.203c-2.409,0-4.337,1.956-4.337,4.337
	c0,2.409,1.928,4.365,4.337,4.365s4.337-1.956,4.337-4.365C102.286,332.159,100.358,330.203,97.949,330.203z M262.766,208.507
	c0.033-0.062,0.066-0.123,0.102-0.183C262.833,208.384,262.799,208.445,262.766,208.507z M318.512,340.734
	c-0.048,0.022-0.096,0.045-0.144,0.067C318.417,340.779,318.464,340.756,318.512,340.734z M327.078,440.2
	c0.043-0.008,0.082-0.021,0.124-0.03C327.16,440.179,327.121,440.192,327.078,440.2z M317.607,277.591
	c-0.015-0.055-0.029-0.11-0.044-0.165C317.578,277.481,317.592,277.536,317.607,277.591z M552.938,474.94l-41.329-0.126v-3.048
	H265.083c-1.101-2.723-3.85-5.363-7.629-5.5c-5.499-0.198-14.995-10.289-12.954-14.598c1.714-3.57-0.808-5.463-1.725-6.008
	c0.02,0.01,0.03,0.016,0.051,0.027l9.283-5.066c1.075,0.956,1.801,1.55,1.801,1.55s26.192-15.308,38.466-31.182
	c2.324-3.033,4.819-7.512,7.285-12.784c9.269,13.437,16.526,28.829,16.696,40.904c0,0,0.707,0.224,1.82,0.487
	c1.046,0.247,1.036,0.264-0.005,0.024l0.595,8.93c0.268,0.054,0.498,0.109,0.697,0.16c-0.988-0.246-3.008-0.633-3.558,0.151
	c-0.737,1.021-0.284,17.858,0,19.332c0.283,1.475,6.548,2.778,10.517,1.105c3.968-1.7,5.046-2.522,10.743-1.757
	c5.669,0.794,17.745-4.309,19.502-10.971c1.756-6.66-2.354-7.454-7.541-5.866c-5.216,1.559-5.698,3.997-10.998,4.195
	c-5.301,0.198-8.22-1.843-8.419-3.629c-0.198-1.757-0.68-2.862-0.68-2.862l-1.759,0.086l1.077-8.617
	c-0.048,0.016-0.101,0.023-0.149,0.038c0.621-0.198,1.202-0.458,1.709-0.805c0,0,8.22-27.241,4.904-49.21
	c-2.126-13.89-12.302-23.131-20.183-31.322c3.479-10.745,5.742-18.724,5.753-18.762c0.001-0.001,0.002-0.001,0.003-0.002
	c0,0,5.802-26.788-1.91-58.818c0.057,0.234,0.124,0.473,0.18,0.707v-90.142c-0.115,0.14-0.234,0.27-0.35,0.407
	c6.369-7.562,10.8-18.107,4.233-27.619c-5.915-8.581-16.358-9.097-25.09-5.812h-73.23c11.587-5.314,25.255-8.271,41.656-8.674
	c81.496-1.956,94.62,48.358,101.225,111.231c7.625,72.851,49.181,41.073,81.978,78.122s26.419,74.07,50.287,77.131
	c45.184,5.755,52.583,25.144,53.575,35.349C554.242,464.764,552.938,474.94,552.938,474.94z M443.407,390.581
	c-9.241,2.892-9.808,3.458-5.386-6.35c4.422-9.808,4.224-22.705-6.945-26.164c-11.14-3.486-13.465,12.104-9.609,22.507
	c3.855,10.403,2.126,14.061-4.62,10.205c-6.746-3.856-12.501,2.892-7.71,8.277c4.819,5.386,16.186,10.006,13.294,13.465
	c-2.891,3.486-6.945-2.296-11.735-1.332c-4.819,0.963-2.523,8.646,5.754,12.699c3.114,1.516,4.828,3.298,5.755,4.932h-14.316
	l9.978,42.945h20.154l11.055-42.945h-15.605c2.348-2.747,6.508-2.147,13.026-4.932c6.718-2.892,4.62-8.477-1.729-8.079
	c-6.35,0.368-8.277,1.53-8.277-4.252c0-5.755,7.88-5.556,14.825-9.241C458.232,398.66,452.648,387.689,443.407,390.581z
	 M72.154,471.766h67.266V327.605c-20.685,41.445-51.33,47.172-67.521,66.69c-31.266,37.672-12.019,79.143-12.019,79.143
	l12.274,0.037V471.766z M97.949,323.003c2.409,0,4.337-1.956,4.337-4.365c0-2.381-1.928-4.337-4.337-4.337s-4.337,1.956-4.337,4.337
	C93.612,321.047,95.539,323.003,97.949,323.003z M90.012,330.94c2.381,0,4.337-1.928,4.337-4.337c0-2.41-1.956-4.365-4.337-4.365
	c-2.409,0-4.365,1.955-4.365,4.365C85.646,329.013,87.602,330.94,90.012,330.94z M319.685,448.767
	c-0.05-0.013-0.107-0.028-0.165-0.043C319.577,448.739,319.636,448.754,319.685,448.767z M151.694,293.239
	c-2.058,8.324-4.415,15.743-7.002,22.403l0,156.124h70.072v2.144l14.257,0.043v-2.187h5.781c-2.086-2.953-2.245-7.828-1.528-10.406
	c0.907-3.231-0.227-9.581-2.778-10.771c-2.551-1.162-3.713-7.852-3.146-9.411c0.595-1.559,7.852-3.713,8.929-3.146
	c0.478,0.264,1.126,0.74,1.703,1.189l6.231-7.081c-0.762-1.098-1.384-2.187-1.756-3.206c0,0,23.811-24.123,26.164-33.533
	c1.105-4.366,0.623-16.073-0.227-27.383c-15.892-6.457-19.129-23.669-19.242-24.291c-1.477-0.225-2.299-0.369-2.299-0.369
	c-0.226-2.607-0.34-5.215-0.368-7.795c0-0.001,0-0.001,0-0.002c-27.865,0.539-38.58-13.238-38.58-13.238l-0.454-14.569l-1.899,9.155
	c0,0-1.19,0.397-4.11-1.502c-2.948-1.9-4.706-12.36-2.353-18.964c2.352-6.633,14.683-14.258,14.683-14.258l-1.616,11.452
	l10.885-15.732c7.342-12.926,35.575-34.101,39.09-35.15c3.512-1.02,11.662,1.271,11.677,1.276c0,0,0,0,0-0.001c0,0,0.002,0,0.002,0
	l4.381-4.93l-4.382,4.903c2.634-3.196,4.486-5.025,4.527-5.066l0.008-0.009v-6.944h2.239h0.595h0v-2.154
	c-9.893-1.587-11.282-13.436-11.282-13.436c-5.393-0.566-7.438-3.268-7.762-6.063c-0.136,0.741-0.158,1.537-0.033,2.349
	c0,0-4.734-1.786-5.726-7.058c-0.992-5.301,4.309-8.249,7.257-8.447s0.482-7.257,5.301-11.281
	c4.79-3.997,10.573-2.154,14.003-14.202c0.728-2.556,2.456-5.053,4.817-7.258h-74.158
	C180.862,186.113,167.081,231.03,151.694,293.239z M288.701,163.598 M296.021,159.114c0.049-0.021,0.099-0.042,0.148-0.063
	C296.12,159.073,296.07,159.093,296.021,159.114z"></path>
<path id="color_x5F_3" fill="#E84393" d="M407.889,428.82L407.889,428.82l9.978,42.945h20.154l11.055-42.945H407.889z
	 M329.908,439.11c0,0,8.22-27.241,4.904-49.21c-2.126-13.89-12.302-23.131-20.183-31.322c3.487-10.771,5.754-18.766,5.754-18.766
	c-20.268,10.8-61.2,5.442-71.235,3.884c0,0,3.061,17.745,19.247,24.321c0.85,11.31,1.332,23.017,0.227,27.383
	c-2.353,9.41-26.164,33.533-26.164,33.533c2.041,5.584,11.452,13.238,11.452,13.238s26.192-15.308,38.466-31.182
	c2.324-3.033,4.819-7.512,7.285-12.784c9.269,13.437,16.526,28.829,16.696,40.904C316.358,439.11,325.599,442.059,329.908,439.11
	L329.908,439.11z"></path>
<path id="color_x5F_2" fill="#FBC02D" d="M278.346,238.928l-4.535,5.074C276.475,240.77,278.346,238.928,278.346,238.928z
	 M295.382,238.928v-6.945h-1.644H281.18h-0.595h-2.239v6.945c33.789,14.627,35.858,46.885,34.838,61.965
	c0.085,0.199,0.142,0.426,0.142,0.681c0,1.474,0.142,1.984,0.964,2.665c0.822,0.651,0.227,3.741,0,5.073
	c-0.227,1.304-0.652,1.616-0.142,2.92c0.51,1.332,0.879,2.665,0.057,3.969c-0.539,0.907-2.438,1.445-4.45,1.729
	c-15.25,45.185-61.739,15.166-63.241,14.174c-0.028,1.134-0.057,2.296-0.028,3.458c0.028,2.58,0.142,5.188,0.368,7.795
	c0,0,50.315,8.816,73.531-3.543c0,0,9.213-42.52-10.998-84.473L295.382,238.928z M257.965,280.313
	c-0.028,0.028-0.028,0.028-0.028,0.057c-0.057,0.085-0.085,0.198-0.142,0.283c0,0.028,0,0.028,0,0.057
	c-1.587,3.657-9.95,24.151-11.168,47.905c37.162,15.846,50.513,0.057,55.191-10.771c-6.321-0.51-16.611-1.7-21.345-3.628
	c-6.548-2.637-23.301-6.747-22.422-34.101c0,0-0.028,0.028-0.028,0.057C257.993,280.2,257.965,280.257,257.965,280.313z
	 M299.52,303.359c0,0,0.935-0.369,2.551-2.354c0.709-0.85,1.616-1.304,2.608-1.502c0.51-50.825-30.841-55.474-30.869-55.474
	c-0.652,0.793-1.361,1.7-2.098,2.664c-0.057,0.057-0.085,0.113-0.142,0.142c-0.312,0.426-0.624,0.851-0.964,1.305
	c-0.057,0.084-0.113,0.17-0.198,0.255c-0.709,1.021-1.474,2.098-2.239,3.231c-0.085,0.142-0.17,0.255-0.283,0.396
	c-0.283,0.454-0.567,0.907-0.879,1.36c-0.085,0.171-0.198,0.313-0.312,0.482c-0.369,0.595-0.709,1.162-1.077,1.786
	c-0.028,0.028-0.028,0.028-0.057,0.057c-0.369,0.623-0.737,1.247-1.106,1.898c-0.113,0.199-0.198,0.397-0.312,0.596
	c-0.283,0.481-0.539,0.964-0.794,1.445c-0.113,0.227-0.227,0.426-0.34,0.652c-0.34,0.623-0.68,1.275-1.02,1.956
	c0,0.028-0.028,0.085-0.057,0.142c-0.34,0.681-0.68,1.417-1.02,2.126c-0.085,0.227-0.198,0.453-0.284,0.681
	c-0.255,0.538-0.482,1.077-0.709,1.644c-0.113,0.227-0.198,0.454-0.284,0.709c-0.312,0.737-0.595,1.474-0.879,2.239
	c-0.028,0.028-0.028,0.057-0.028,0.085c-0.284,0.766-0.567,1.56-0.822,2.353c-0.085,0.256-0.17,0.482-0.255,0.737
	c-0.17,0.595-0.368,1.19-0.539,1.814c-0.057,0.255-0.142,0.481-0.198,0.736c-0.255,0.851-0.454,1.673-0.652,2.523l1.786,2.069
	c0,0,6.746,5.867,19.843,5.726C277.892,285.841,277.439,304.663,299.52,303.359z M443.407,390.581
	c-9.241,2.892-9.808,3.458-5.386-6.35s4.224-22.705-6.945-26.164c-11.14-3.486-13.465,12.104-9.609,22.507
	c3.855,10.403,2.126,14.061-4.62,10.205s-12.501,2.892-7.71,8.277c4.819,5.386,16.186,10.006,13.294,13.465
	c-2.891,3.486-6.945-2.296-11.735-1.332c-4.819,0.963-2.523,8.646,5.754,12.699c3.203,1.559,4.932,3.401,5.839,5.073h11.055
	c2.324-2.919,6.52-2.239,13.153-5.073c6.718-2.892,4.62-8.477-1.729-8.079c-6.35,0.368-8.277,1.53-8.277-4.252
	c0-5.755,7.88-5.556,14.825-9.241C458.232,398.66,452.648,387.689,443.407,390.581z"></path>
<path id="color_x5F_1" fill="#0984E3" d="M304.68,299.504L304.68,299.504c1.361-0.283,2.92-0.17,4.45-0.057
	c2.239,0.17,3.628,0.51,4.054,1.445c1.021-15.08-1.049-47.338-34.838-61.965l-4.535,5.103
	C273.81,244.03,305.19,248.65,304.68,299.504L304.68,299.504z M309.754,317.929L309.754,317.929
	c-1.021,0.142-2.041,0.199-2.976,0.199c-0.737,0-2.58-0.085-4.961-0.284c-4.677,10.828-18.028,26.617-55.191,10.771
	c1.361-26.248,11.424-48.5,11.424-48.5l-1.786-2.069c3.515-15.108,12.161-27.468,17.547-34.016l0,0c0,0-8.164-2.297-11.679-1.276
	c-3.515,1.049-31.748,22.224-39.09,35.15l-10.885,15.732l1.616-11.452c0,0-12.331,7.625-14.683,14.258
	c-2.353,6.604-0.595,17.064,2.353,18.964c2.92,1.899,4.11,1.502,4.11,1.502l1.899-9.155l0.454,14.569
	c0,0,10.715,13.777,38.58,13.238c-0.028-1.162,0-2.324,0.028-3.458C248.015,333.095,294.503,363.113,309.754,317.929
	L309.754,317.929z M262.103,212.679L262.103,212.679c-0.652-4.224,2.608-8.051,5.924-5.612c3.345,2.466,5.216,6.973,5.216,6.973
	s1.672-9.326,8.022-8.334c6.378,0.992,16.469-0.396,25.002-4.024c8.532-3.629,26.957-21.855,16.271-37.333
	c-10.687-15.505-36.17-4.705-39.6,7.342c-3.43,12.048-9.213,10.205-14.003,14.202c-4.819,4.024-2.353,11.083-5.301,11.281
	c-2.948,0.198-8.249,3.146-7.257,8.447C257.369,210.893,262.103,212.679,262.103,212.679L262.103,212.679z M349.127,450.704
	L349.127,450.704c-5.216,1.559-5.698,3.997-10.998,4.195c-5.301,0.198-8.22-1.843-8.419-3.629c-0.198-1.757-0.68-2.862-0.68-2.862
	l-9.014,0.453c0,0-3.373-1.049-4.11,0c-0.737,1.021-0.284,17.858,0,19.332c0.283,1.475,6.548,2.778,10.517,1.105
	c3.968-1.7,5.046-2.522,10.743-1.757c5.669,0.794,17.745-4.309,19.502-10.971C358.424,449.91,354.314,449.116,349.127,450.704
	L349.127,450.704z M257.454,466.266L257.454,466.266c-5.499-0.198-14.995-10.289-12.954-14.598c2.069-4.309-2.041-6.18-2.041-6.18
	l-3.146-5.188c0,0-1.956-1.673-3.033-2.268c-1.077-0.567-8.334,1.587-8.929,3.146c-0.567,1.559,0.595,8.249,3.146,9.411
	c2.551,1.19,3.685,7.54,2.778,10.771c-0.907,3.26-0.425,10.204,3.6,12.274c4.025,2.04,27.836,4.988,28.63,1.672
	C266.27,471.964,262.953,466.465,257.454,466.266L257.454,466.266z"></path>
</svg>